<?xml version="1.0" encoding="utf-8" standalone="no"?>
<!DOCTYPE svg PUBLIC "-//W3C//DTD SVG 1.1//EN"
  "http://www.w3.org/Graphics/SVG/1.1/DTD/svg11.dtd">
<svg xmlns:xlink="http://www.w3.org/1999/xlink" width="432pt" height="432pt" viewBox="0 0 432 432" xmlns="http://www.w3.org/2000/svg" version="1.1">
 <metadata>
  <rdf:RDF xmlns:dc="http://purl.org/dc/elements/1.1/" xmlns:cc="http://creativecommons.org/ns#" xmlns:rdf="http://www.w3.org/1999/02/22-rdf-syntax-ns#">
   <cc:Work>
    <dc:type rdf:resource="http://purl.org/dc/dcmitype/StillImage"/>
    <dc:date>2025-11-19T22:48:18.404377</dc:date>
    <dc:format>image/svg+xml</dc:format>
    <dc:creator>
     <cc:Agent>
      <dc:title>Matplotlib v3.7.3, https://matplotlib.org/</dc:title>
     </cc:Agent>
    </dc:creator>
   </cc:Work>
  </rdf:RDF>
 </metadata>
 <defs>
  <style type="text/css">*{stroke-linejoin: round; stroke-linecap: butt}</style>
 </defs>
 <g id="figure_1">
  <g id="patch_1">
   <path d="M 0 432 
L 432 432 
L 432 0 
L 0 0 
z
" style="fill: #ffffff"/>
  </g>
  <g id="axes_1">
   <g id="patch_2">
    <path d="M 216 51.84 
C 176.461458 51.84 138.223795 66.124505 108.369433 92.047725 
C 78.51507 117.970944 59.008516 153.82705 53.462796 192.974735 
C 47.917076 232.12242 56.697115 271.985647 78.176665 305.180906 
C 99.656215 338.376164 132.421856 362.719105 170.4047 373.700901 
L 216 216 
z
" style="fill: #77cfa5"/>
   </g>
   <g id="patch_3">
    <path d="M 170.4047 373.700901 
C 205.712448 383.90926 243.445859 381.970112 277.521136 368.196108 
C 311.596414 354.422104 340.078215 329.595554 358.37439 297.719267 
C 376.670565 265.842981 383.741964 228.727406 378.448457 192.356724 
C 373.15495 155.986042 355.797187 122.425967 329.17378 97.087422 
L 216 216 
z
" style="fill: #016074"/>
   </g>
   <g id="patch_4">
    <path d="M 329.17378 97.087422 
C 324.951597 93.069005 320.518389 89.278311 315.892995 85.73145 
C 311.267601 82.184589 306.456582 78.886591 301.480383 75.851473 
L 216 216 
z
" style="fill: #099396"/>
   </g>
   <g id="patch_5">
    <path d="M 301.480383 75.851473 
C 297.570866 73.466952 293.563284 71.247063 289.468155 69.19763 
C 285.373025 67.148197 281.193933 65.271015 276.941846 63.57101 
L 216 216 
z
" style="fill: #91d2c0"/>
   </g>
   <g id="patch_6">
    <path d="M 276.941846 63.57101 
C 274.236207 62.489283 271.502247 61.479785 268.742871 60.543591 
C 265.983495 59.607396 263.199681 58.744837 260.39439 57.956829 
L 216 216 
z
" style="fill: #ebd7a5"/>
   </g>
   <g id="patch_7">
    <path d="M 260.39439 57.956829 
C 257.989892 57.281405 255.570293 56.660942 253.137483 56.095926 
C 250.704673 55.530909 248.259285 55.021486 245.80323 54.568054 
L 216 216 
z
" style="fill: #ee9b01"/>
   </g>
   <g id="patch_8">
    <path d="M 245.80323 54.568054 
C 243.347175 54.114622 240.881091 53.7173 238.406906 53.376397 
C 235.93272 53.035494 233.451077 52.7511 230.963915 52.523436 
L 216 216 
z
" style="fill: #cc6602"/>
   </g>
   <g id="patch_9">
    <path d="M 230.963915 52.523436 
C 230.134892 52.447551 229.305305 52.377974 228.475224 52.314709 
C 227.645144 52.251445 226.814594 52.194496 225.983646 52.143867 
L 216 216 
z
" style="fill: #bc3e03"/>
   </g>
   <g id="patch_10">
    <path d="M 225.983646 52.143867 
C 225.152699 52.093238 224.321379 52.04893 223.489758 52.010948 
C 222.658137 51.972966 221.826239 51.941311 220.994136 51.915984 
L 216 216 
z
" style="fill: #b02013"/>
   </g>
   <g id="patch_11">
    <path d="M 220.994136 51.915984 
C 220.578086 51.903321 220.16199 51.892241 219.745856 51.882743 
C 219.329721 51.873245 218.913553 51.865329 218.497358 51.858997 
L 216 216 
z
" style="fill: #9d2227"/>
   </g>
   <g id="patch_12">
    <path d="M 218.497358 51.858997 
C 218.081164 51.852665 217.664947 51.847916 217.248716 51.844749 
C 216.832486 51.841583 216.416245 51.84 216.000002 51.84 
L 216 216 
z
" style="fill: #8c564b"/>
   </g>
   <g id="patch_13">
    <path d="M 216 314.496 
C 242.121445 314.496 267.176539 304.11784 285.64719 285.64719 
C 304.11784 267.176539 314.496 242.121445 314.496 216 
C 314.496 189.878555 304.11784 164.823461 285.64719 146.35281 
C 267.176539 127.88216 242.121445 117.504 216 117.504 
C 189.878555 117.504 164.823461 127.88216 146.35281 146.35281 
C 127.88216 164.823461 117.504 189.878555 117.504 216 
C 117.504 242.121445 127.88216 267.176539 146.35281 285.64719 
C 164.823461 304.11784 189.878555 314.496 216 314.496 
z
" clip-path="url(#p40218cbb6e)" style="fill: #ffffff"/>
   </g>
   <g id="matplotlib.axis_1"/>
   <g id="matplotlib.axis_2"/>
   <g id="text_1">
    <!-- 45.5% -->
    <g transform="translate(57.379768 202.546663) scale(0.18 -0.18)">
     <defs>
      <path id="DejaVuSans-34" d="M 2419 4116 
L 825 1625 
L 2419 1625 
L 2419 4116 
z
M 2253 4666 
L 3047 4666 
L 3047 1625 
L 3713 1625 
L 3713 1100 
L 3047 1100 
L 3047 0 
L 2419 0 
L 2419 1100 
L 313 1100 
L 313 1709 
L 2253 4666 
z
" transform="scale(0.015625)"/>
      <path id="DejaVuSans-35" d="M 691 4666 
L 3169 4666 
L 3169 4134 
L 1269 4134 
L 1269 2991 
Q 1406 3038 1543 3061 
Q 1681 3084 1819 3084 
Q 2600 3084 3056 2656 
Q 3513 2228 3513 1497 
Q 3513 744 3044 326 
Q 2575 -91 1722 -91 
Q 1428 -91 1123 -41 
Q 819 9 494 109 
L 494 744 
Q 775 591 1075 516 
Q 1375 441 1709 441 
Q 2250 441 2565 725 
Q 2881 1009 2881 1497 
Q 2881 1984 2565 2268 
Q 2250 2553 1709 2553 
Q 1456 2553 1204 2497 
Q 953 2441 691 2322 
L 691 4666 
z
" transform="scale(0.015625)"/>
      <path id="DejaVuSans-2e" d="M 684 794 
L 1344 794 
L 1344 0 
L 684 0 
L 684 794 
z
" transform="scale(0.015625)"/>
      <path id="DejaVuSans-25" d="M 4653 2053 
Q 4381 2053 4226 1822 
Q 4072 1591 4072 1178 
Q 4072 772 4226 539 
Q 4381 306 4653 306 
Q 4919 306 5073 539 
Q 5228 772 5228 1178 
Q 5228 1588 5073 1820 
Q 4919 2053 4653 2053 
z
M 4653 2450 
Q 5147 2450 5437 2106 
Q 5728 1763 5728 1178 
Q 5728 594 5436 251 
Q 5144 -91 4653 -91 
Q 4153 -91 3862 251 
Q 3572 594 3572 1178 
Q 3572 1766 3864 2108 
Q 4156 2450 4653 2450 
z
M 1428 4353 
Q 1159 4353 1004 4120 
Q 850 3888 850 3481 
Q 850 3069 1003 2837 
Q 1156 2606 1428 2606 
Q 1700 2606 1854 2837 
Q 2009 3069 2009 3481 
Q 2009 3884 1853 4118 
Q 1697 4353 1428 4353 
z
M 4250 4750 
L 4750 4750 
L 1831 -91 
L 1331 -91 
L 4250 4750 
z
M 1428 4750 
Q 1922 4750 2215 4408 
Q 2509 4066 2509 3481 
Q 2509 2891 2217 2550 
Q 1925 2209 1428 2209 
Q 931 2209 642 2551 
Q 353 2894 353 3481 
Q 353 4063 643 4406 
Q 934 4750 1428 4750 
z
" transform="scale(0.015625)"/>
     </defs>
     <use xlink:href="#DejaVuSans-34"/>
     <use xlink:href="#DejaVuSans-35" x="63.623047"/>
     <use xlink:href="#DejaVuSans-2e" x="127.246094"/>
     <use xlink:href="#DejaVuSans-35" x="159.033203"/>
     <use xlink:href="#DejaVuSans-25" x="222.65625"/>
    </g>
   </g>
   <g id="text_2">
    <!-- 42.4% -->
    <g transform="translate(301.309043 286.342289) scale(0.18 -0.18)">
     <defs>
      <path id="DejaVuSans-32" d="M 1228 531 
L 3431 531 
L 3431 0 
L 469 0 
L 469 531 
Q 828 903 1448 1529 
Q 2069 2156 2228 2338 
Q 2531 2678 2651 2914 
Q 2772 3150 2772 3378 
Q 2772 3750 2511 3984 
Q 2250 4219 1831 4219 
Q 1534 4219 1204 4116 
Q 875 4013 500 3803 
L 500 4441 
Q 881 4594 1212 4672 
Q 1544 4750 1819 4750 
Q 2544 4750 2975 4387 
Q 3406 4025 3406 3419 
Q 3406 3131 3298 2873 
Q 3191 2616 2906 2266 
Q 2828 2175 2409 1742 
Q 1991 1309 1228 531 
z
" transform="scale(0.015625)"/>
     </defs>
     <use xlink:href="#DejaVuSans-34"/>
     <use xlink:href="#DejaVuSans-32" x="63.623047"/>
     <use xlink:href="#DejaVuSans-2e" x="127.246094"/>
     <use xlink:href="#DejaVuSans-34" x="159.033203"/>
     <use xlink:href="#DejaVuSans-25" x="222.65625"/>
    </g>
   </g>
   <g id="text_3">
    <!-- 3.4% -->
    <g transform="translate(273.050177 116.752035) scale(0.18 -0.18)">
     <defs>
      <path id="DejaVuSans-33" d="M 2597 2516 
Q 3050 2419 3304 2112 
Q 3559 1806 3559 1356 
Q 3559 666 3084 287 
Q 2609 -91 1734 -91 
Q 1441 -91 1130 -33 
Q 819 25 488 141 
L 488 750 
Q 750 597 1062 519 
Q 1375 441 1716 441 
Q 2309 441 2620 675 
Q 2931 909 2931 1356 
Q 2931 1769 2642 2001 
Q 2353 2234 1838 2234 
L 1294 2234 
L 1294 2753 
L 1863 2753 
Q 2328 2753 2575 2939 
Q 2822 3125 2822 3475 
Q 2822 3834 2567 4026 
Q 2313 4219 1838 4219 
Q 1578 4219 1281 4162 
Q 984 4106 628 3988 
L 628 4550 
Q 988 4650 1302 4700 
Q 1616 4750 1894 4750 
Q 2613 4750 3031 4423 
Q 3450 4097 3450 3541 
Q 3450 3153 3228 2886 
Q 3006 2619 2597 2516 
z
" transform="scale(0.015625)"/>
     </defs>
     <use xlink:href="#DejaVuSans-33"/>
     <use xlink:href="#DejaVuSans-2e" x="63.623047"/>
     <use xlink:href="#DejaVuSans-34" x="95.410156"/>
     <use xlink:href="#DejaVuSans-25" x="159.033203"/>
    </g>
   </g>
   <g id="legend_1">
    <g id="text_4">
     <!-- Substitutions -->
     <g transform="translate(156.992344 154.942875) scale(0.18 -0.18)">
      <defs>
       <path id="DejaVuSans-53" d="M 3425 4513 
L 3425 3897 
Q 3066 4069 2747 4153 
Q 2428 4238 2131 4238 
Q 1616 4238 1336 4038 
Q 1056 3838 1056 3469 
Q 1056 3159 1242 3001 
Q 1428 2844 1947 2747 
L 2328 2669 
Q 3034 2534 3370 2195 
Q 3706 1856 3706 1288 
Q 3706 609 3251 259 
Q 2797 -91 1919 -91 
Q 1588 -91 1214 -16 
Q 841 59 441 206 
L 441 856 
Q 825 641 1194 531 
Q 1563 422 1919 422 
Q 2459 422 2753 634 
Q 3047 847 3047 1241 
Q 3047 1584 2836 1778 
Q 2625 1972 2144 2069 
L 1759 2144 
Q 1053 2284 737 2584 
Q 422 2884 422 3419 
Q 422 4038 858 4394 
Q 1294 4750 2059 4750 
Q 2388 4750 2728 4690 
Q 3069 4631 3425 4513 
z
" transform="scale(0.015625)"/>
       <path id="DejaVuSans-75" d="M 544 1381 
L 544 3500 
L 1119 3500 
L 1119 1403 
Q 1119 906 1312 657 
Q 1506 409 1894 409 
Q 2359 409 2629 706 
Q 2900 1003 2900 1516 
L 2900 3500 
L 3475 3500 
L 3475 0 
L 2900 0 
L 2900 538 
Q 2691 219 2414 64 
Q 2138 -91 1772 -91 
Q 1169 -91 856 284 
Q 544 659 544 1381 
z
M 1991 3584 
L 1991 3584 
z
" transform="scale(0.015625)"/>
       <path id="DejaVuSans-62" d="M 3116 1747 
Q 3116 2381 2855 2742 
Q 2594 3103 2138 3103 
Q 1681 3103 1420 2742 
Q 1159 2381 1159 1747 
Q 1159 1113 1420 752 
Q 1681 391 2138 391 
Q 2594 391 2855 752 
Q 3116 1113 3116 1747 
z
M 1159 2969 
Q 1341 3281 1617 3432 
Q 1894 3584 2278 3584 
Q 2916 3584 3314 3078 
Q 3713 2572 3713 1747 
Q 3713 922 3314 415 
Q 2916 -91 2278 -91 
Q 1894 -91 1617 61 
Q 1341 213 1159 525 
L 1159 0 
L 581 0 
L 581 4863 
L 1159 4863 
L 1159 2969 
z
" transform="scale(0.015625)"/>
       <path id="DejaVuSans-73" d="M 2834 3397 
L 2834 2853 
Q 2591 2978 2328 3040 
Q 2066 3103 1784 3103 
Q 1356 3103 1142 2972 
Q 928 2841 928 2578 
Q 928 2378 1081 2264 
Q 1234 2150 1697 2047 
L 1894 2003 
Q 2506 1872 2764 1633 
Q 3022 1394 3022 966 
Q 3022 478 2636 193 
Q 2250 -91 1575 -91 
Q 1294 -91 989 -36 
Q 684 19 347 128 
L 347 722 
Q 666 556 975 473 
Q 1284 391 1588 391 
Q 1994 391 2212 530 
Q 2431 669 2431 922 
Q 2431 1156 2273 1281 
Q 2116 1406 1581 1522 
L 1381 1569 
Q 847 1681 609 1914 
Q 372 2147 372 2553 
Q 372 3047 722 3315 
Q 1072 3584 1716 3584 
Q 2034 3584 2315 3537 
Q 2597 3491 2834 3397 
z
" transform="scale(0.015625)"/>
       <path id="DejaVuSans-74" d="M 1172 4494 
L 1172 3500 
L 2356 3500 
L 2356 3053 
L 1172 3053 
L 1172 1153 
Q 1172 725 1289 603 
Q 1406 481 1766 481 
L 2356 481 
L 2356 0 
L 1766 0 
Q 1100 0 847 248 
Q 594 497 594 1153 
L 594 3053 
L 172 3053 
L 172 3500 
L 594 3500 
L 594 4494 
L 1172 4494 
z
" transform="scale(0.015625)"/>
       <path id="DejaVuSans-69" d="M 603 3500 
L 1178 3500 
L 1178 0 
L 603 0 
L 603 3500 
z
M 603 4863 
L 1178 4863 
L 1178 4134 
L 603 4134 
L 603 4863 
z
" transform="scale(0.015625)"/>
       <path id="DejaVuSans-6f" d="M 1959 3097 
Q 1497 3097 1228 2736 
Q 959 2375 959 1747 
Q 959 1119 1226 758 
Q 1494 397 1959 397 
Q 2419 397 2687 759 
Q 2956 1122 2956 1747 
Q 2956 2369 2687 2733 
Q 2419 3097 1959 3097 
z
M 1959 3584 
Q 2709 3584 3137 3096 
Q 3566 2609 3566 1747 
Q 3566 888 3137 398 
Q 2709 -91 1959 -91 
Q 1206 -91 779 398 
Q 353 888 353 1747 
Q 353 2609 779 3096 
Q 1206 3584 1959 3584 
z
" transform="scale(0.015625)"/>
       <path id="DejaVuSans-6e" d="M 3513 2113 
L 3513 0 
L 2938 0 
L 2938 2094 
Q 2938 2591 2744 2837 
Q 2550 3084 2163 3084 
Q 1697 3084 1428 2787 
Q 1159 2491 1159 1978 
L 1159 0 
L 581 0 
L 581 3500 
L 1159 3500 
L 1159 2956 
Q 1366 3272 1645 3428 
Q 1925 3584 2291 3584 
Q 2894 3584 3203 3211 
Q 3513 2838 3513 2113 
z
" transform="scale(0.015625)"/>
      </defs>
      <use xlink:href="#DejaVuSans-53"/>
      <use xlink:href="#DejaVuSans-75" x="63.476562"/>
      <use xlink:href="#DejaVuSans-62" x="126.855469"/>
      <use xlink:href="#DejaVuSans-73" x="190.332031"/>
      <use xlink:href="#DejaVuSans-74" x="242.431641"/>
      <use xlink:href="#DejaVuSans-69" x="281.640625"/>
      <use xlink:href="#DejaVuSans-74" x="309.423828"/>
      <use xlink:href="#DejaVuSans-75" x="348.632812"/>
      <use xlink:href="#DejaVuSans-74" x="412.011719"/>
      <use xlink:href="#DejaVuSans-69" x="451.220703"/>
      <use xlink:href="#DejaVuSans-6f" x="479.003906"/>
      <use xlink:href="#DejaVuSans-6e" x="540.185547"/>
      <use xlink:href="#DejaVuSans-73" x="603.564453"/>
     </g>
    </g>
    <g id="patch_14">
     <path d="M 144.422812 179.326313 
L 162.422812 179.326313 
L 162.422812 164.686313 
L 144.422812 164.686313 
z
" style="fill: #77cfa5"/>
    </g>
    <g id="text_5">
     <!-- G-&gt;A -->
     <g transform="translate(172.022812 175.966313) scale(0.12 -0.12)">
      <defs>
       <path id="DejaVuSans-47" d="M 3809 666 
L 3809 1919 
L 2778 1919 
L 2778 2438 
L 4434 2438 
L 4434 434 
Q 4069 175 3628 42 
Q 3188 -91 2688 -91 
Q 1594 -91 976 548 
Q 359 1188 359 2328 
Q 359 3472 976 4111 
Q 1594 4750 2688 4750 
Q 3144 4750 3555 4637 
Q 3966 4525 4313 4306 
L 4313 3634 
Q 3963 3931 3569 4081 
Q 3175 4231 2741 4231 
Q 1884 4231 1454 3753 
Q 1025 3275 1025 2328 
Q 1025 1384 1454 906 
Q 1884 428 2741 428 
Q 3075 428 3337 486 
Q 3600 544 3809 666 
z
" transform="scale(0.015625)"/>
       <path id="DejaVuSans-2d" d="M 313 2009 
L 1997 2009 
L 1997 1497 
L 313 1497 
L 313 2009 
z
" transform="scale(0.015625)"/>
       <path id="DejaVuSans-3e" d="M 678 3150 
L 678 3719 
L 4684 2266 
L 4684 1747 
L 678 294 
L 678 863 
L 3897 2003 
L 678 3150 
z
" transform="scale(0.015625)"/>
       <path id="DejaVuSans-41" d="M 2188 4044 
L 1331 1722 
L 3047 1722 
L 2188 4044 
z
M 1831 4666 
L 2547 4666 
L 4325 0 
L 3669 0 
L 3244 1197 
L 1141 1197 
L 716 0 
L 50 0 
L 1831 4666 
z
" transform="scale(0.015625)"/>
      </defs>
      <use xlink:href="#DejaVuSans-47"/>
      <use xlink:href="#DejaVuSans-2d" x="77.490234"/>
      <use xlink:href="#DejaVuSans-3e" x="113.574219"/>
      <use xlink:href="#DejaVuSans-41" x="197.363281"/>
     </g>
    </g>
    <g id="patch_15">
     <path d="M 144.422812 199.966313 
L 162.422812 199.966313 
L 162.422812 185.326313 
L 144.422812 185.326313 
z
" style="fill: #016074"/>
    </g>
    <g id="text_6">
     <!-- C-&gt;T -->
     <g transform="translate(172.022812 196.606313) scale(0.12 -0.12)">
      <defs>
       <path id="DejaVuSans-43" d="M 4122 4306 
L 4122 3641 
Q 3803 3938 3442 4084 
Q 3081 4231 2675 4231 
Q 1875 4231 1450 3742 
Q 1025 3253 1025 2328 
Q 1025 1406 1450 917 
Q 1875 428 2675 428 
Q 3081 428 3442 575 
Q 3803 722 4122 1019 
L 4122 359 
Q 3791 134 3420 21 
Q 3050 -91 2638 -91 
Q 1578 -91 968 557 
Q 359 1206 359 2328 
Q 359 3453 968 4101 
Q 1578 4750 2638 4750 
Q 3056 4750 3426 4639 
Q 3797 4528 4122 4306 
z
" transform="scale(0.015625)"/>
       <path id="DejaVuSans-54" d="M -19 4666 
L 3928 4666 
L 3928 4134 
L 2272 4134 
L 2272 0 
L 1638 0 
L 1638 4134 
L -19 4134 
L -19 4666 
z
" transform="scale(0.015625)"/>
      </defs>
      <use xlink:href="#DejaVuSans-43"/>
      <use xlink:href="#DejaVuSans-2d" x="69.824219"/>
      <use xlink:href="#DejaVuSans-3e" x="105.908203"/>
      <use xlink:href="#DejaVuSans-54" x="189.697266"/>
     </g>
    </g>
    <g id="patch_16">
     <path d="M 144.422812 220.606313 
L 162.422812 220.606313 
L 162.422812 205.966313 
L 144.422812 205.966313 
z
" style="fill: #099396"/>
    </g>
    <g id="text_7">
     <!-- T-&gt;C -->
     <g transform="translate(172.022812 217.246313) scale(0.12 -0.12)">
      <use xlink:href="#DejaVuSans-54"/>
      <use xlink:href="#DejaVuSans-2d" x="51.958984"/>
      <use xlink:href="#DejaVuSans-3e" x="88.042969"/>
      <use xlink:href="#DejaVuSans-43" x="171.832031"/>
     </g>
    </g>
    <g id="patch_17">
     <path d="M 144.422812 241.246313 
L 162.422812 241.246313 
L 162.422812 226.606313 
L 144.422812 226.606313 
z
" style="fill: #91d2c0"/>
    </g>
    <g id="text_8">
     <!-- A-&gt;G -->
     <g transform="translate(172.022812 237.886313) scale(0.12 -0.12)">
      <use xlink:href="#DejaVuSans-41"/>
      <use xlink:href="#DejaVuSans-2d" x="66.158203"/>
      <use xlink:href="#DejaVuSans-3e" x="102.242188"/>
      <use xlink:href="#DejaVuSans-47" x="186.03125"/>
     </g>
    </g>
    <g id="patch_18">
     <path d="M 144.422812 261.886313 
L 162.422812 261.886313 
L 162.422812 247.246313 
L 144.422812 247.246313 
z
" style="fill: #ebd7a5"/>
    </g>
    <g id="text_9">
     <!-- A-&gt;T -->
     <g transform="translate(172.022812 258.526313) scale(0.12 -0.12)">
      <use xlink:href="#DejaVuSans-41"/>
      <use xlink:href="#DejaVuSans-2d" x="66.158203"/>
      <use xlink:href="#DejaVuSans-3e" x="102.242188"/>
      <use xlink:href="#DejaVuSans-54" x="186.03125"/>
     </g>
    </g>
    <g id="patch_19">
     <path d="M 144.422812 282.526313 
L 162.422812 282.526313 
L 162.422812 267.886313 
L 144.422812 267.886313 
z
" style="fill: #ee9b01"/>
    </g>
    <g id="text_10">
     <!-- G-&gt;T -->
     <g transform="translate(172.022812 279.166313) scale(0.12 -0.12)">
      <use xlink:href="#DejaVuSans-47"/>
      <use xlink:href="#DejaVuSans-2d" x="77.490234"/>
      <use xlink:href="#DejaVuSans-3e" x="113.574219"/>
      <use xlink:href="#DejaVuSans-54" x="197.363281"/>
     </g>
    </g>
    <g id="patch_20">
     <path d="M 227.914687 179.326313 
L 245.914687 179.326313 
L 245.914687 164.686313 
L 227.914687 164.686313 
z
" style="fill: #cc6602"/>
    </g>
    <g id="text_11">
     <!-- T-&gt;A -->
     <g transform="translate(255.514687 175.966313) scale(0.12 -0.12)">
      <use xlink:href="#DejaVuSans-54"/>
      <use xlink:href="#DejaVuSans-2d" x="51.958984"/>
      <use xlink:href="#DejaVuSans-3e" x="88.042969"/>
      <use xlink:href="#DejaVuSans-41" x="171.832031"/>
     </g>
    </g>
    <g id="patch_21">
     <path d="M 227.914687 199.966313 
L 245.914687 199.966313 
L 245.914687 185.326313 
L 227.914687 185.326313 
z
" style="fill: #bc3e03"/>
    </g>
    <g id="text_12">
     <!-- C-&gt;G -->
     <g transform="translate(255.514687 196.606313) scale(0.12 -0.12)">
      <use xlink:href="#DejaVuSans-43"/>
      <use xlink:href="#DejaVuSans-2d" x="69.824219"/>
      <use xlink:href="#DejaVuSans-3e" x="105.908203"/>
      <use xlink:href="#DejaVuSans-47" x="189.697266"/>
     </g>
    </g>
    <g id="patch_22">
     <path d="M 227.914687 220.606313 
L 245.914687 220.606313 
L 245.914687 205.966313 
L 227.914687 205.966313 
z
" style="fill: #b02013"/>
    </g>
    <g id="text_13">
     <!-- T-&gt;G -->
     <g transform="translate(255.514687 217.246313) scale(0.12 -0.12)">
      <use xlink:href="#DejaVuSans-54"/>
      <use xlink:href="#DejaVuSans-2d" x="51.958984"/>
      <use xlink:href="#DejaVuSans-3e" x="88.042969"/>
      <use xlink:href="#DejaVuSans-47" x="171.832031"/>
     </g>
    </g>
    <g id="patch_23">
     <path d="M 227.914687 241.246313 
L 245.914687 241.246313 
L 245.914687 226.606313 
L 227.914687 226.606313 
z
" style="fill: #9d2227"/>
    </g>
    <g id="text_14">
     <!-- A-&gt;C -->
     <g transform="translate(255.514687 237.886313) scale(0.12 -0.12)">
      <use xlink:href="#DejaVuSans-41"/>
      <use xlink:href="#DejaVuSans-2d" x="66.158203"/>
      <use xlink:href="#DejaVuSans-3e" x="102.242188"/>
      <use xlink:href="#DejaVuSans-43" x="186.03125"/>
     </g>
    </g>
    <g id="patch_24">
     <path d="M 227.914687 261.886313 
L 245.914687 261.886313 
L 245.914687 247.246313 
L 227.914687 247.246313 
z
" style="fill: #8c564b"/>
    </g>
    <g id="text_15">
     <!-- C-&gt;A -->
     <g transform="translate(255.514687 258.526313) scale(0.12 -0.12)">
      <use xlink:href="#DejaVuSans-43"/>
      <use xlink:href="#DejaVuSans-2d" x="69.824219"/>
      <use xlink:href="#DejaVuSans-3e" x="105.908203"/>
      <use xlink:href="#DejaVuSans-41" x="189.697266"/>
     </g>
    </g>
   </g>
  </g>
 </g>
 <defs>
  <clipPath id="p40218cbb6e">
   <rect x="10.8" y="10.8" width="410.4" height="410.4"/>
  </clipPath>
 </defs>
</svg>
