<?xml version="1.0" encoding="utf-8" standalone="no"?>
<!DOCTYPE svg PUBLIC "-//W3C//DTD SVG 1.1//EN"
  "http://www.w3.org/Graphics/SVG/1.1/DTD/svg11.dtd">
<svg xmlns:xlink="http://www.w3.org/1999/xlink" width="1077.825125pt" height="553.804375pt" viewBox="0 0 1077.825125 553.804375" xmlns="http://www.w3.org/2000/svg" version="1.1">
 <metadata>
  <rdf:RDF xmlns:dc="http://purl.org/dc/elements/1.1/" xmlns:cc="http://creativecommons.org/ns#" xmlns:rdf="http://www.w3.org/1999/02/22-rdf-syntax-ns#">
   <cc:Work>
    <dc:type rdf:resource="http://purl.org/dc/dcmitype/StillImage"/>
    <dc:date>2025-07-18T16:39:13.907000</dc:date>
    <dc:format>image/svg+xml</dc:format>
    <dc:creator>
     <cc:Agent>
      <dc:title>Matplotlib v3.7.3, https://matplotlib.org/</dc:title>
     </cc:Agent>
    </dc:creator>
   </cc:Work>
  </rdf:RDF>
 </metadata>
 <defs>
  <style type="text/css">*{stroke-linejoin: round; stroke-linecap: butt}</style>
 </defs>
 <g id="figure_1">
  <g id="patch_1">
   <path d="M 0 553.804375 
L 1077.825125 553.804375 
L 1077.825125 0 
L 0 0 
z
" style="fill: #ffffff"/>
  </g>
  <g id="axes_1">
   <g id="patch_2">
    <path d="M 61.203125 299.274146 
L 1065.603125 299.274146 
L 1065.603125 7.2 
L 61.203125 7.2 
z
" style="fill: #ffffff"/>
   </g>
   <g id="patch_3">
    <path d="M 55.916809 1042.73561 
L 66.489441 1042.73561 
L 66.489441 1042.73561 
L 55.916809 1042.73561 
z
" clip-path="url(#p6ea4b63571)" style="fill: #43978f; opacity: 0.8; stroke: #000000; stroke-width: 0.8; stroke-linejoin: miter"/>
   </g>
   <g id="patch_4">
    <path d="M 208.162704 1042.73561 
L 218.735336 1042.73561 
L 218.735336 155.892293 
L 208.162704 155.892293 
z
" clip-path="url(#p6ea4b63571)" style="fill: #43978f; opacity: 0.8; stroke: #000000; stroke-width: 0.8; stroke-linejoin: miter"/>
   </g>
   <g id="patch_5">
    <path d="M 55.916809 1042.73561 
L 66.489441 1042.73561 
L 66.489441 1042.73561 
L 55.916809 1042.73561 
z
" clip-path="url(#p6ea4b63571)" style="fill: #9ec4be; opacity: 0.8; stroke: #000000; stroke-width: 0.8; stroke-linejoin: miter"/>
   </g>
   <g id="patch_6">
    <path d="M 220.849862 1042.73561 
L 231.422493 1042.73561 
L 231.422493 150.581854 
L 220.849862 150.581854 
z
" clip-path="url(#p6ea4b63571)" style="fill: #9ec4be; opacity: 0.8; stroke: #000000; stroke-width: 0.8; stroke-linejoin: miter"/>
   </g>
   <g id="patch_7">
    <path d="M 55.916809 1042.73561 
L 66.489441 1042.73561 
L 66.489441 1042.73561 
L 55.916809 1042.73561 
z
" clip-path="url(#p6ea4b63571)" style="fill: #abd0f1; opacity: 0.8; stroke: #000000; stroke-width: 0.8; stroke-linejoin: miter"/>
   </g>
   <g id="patch_8">
    <path d="M 138.383336 1042.73561 
L 148.955967 1042.73561 
L 148.955967 155.892293 
L 138.383336 155.892293 
z
" clip-path="url(#p6ea4b63571)" style="fill: #abd0f1; opacity: 0.8; stroke: #000000; stroke-width: 0.8; stroke-linejoin: miter"/>
   </g>
   <g id="patch_9">
    <path d="M 55.916809 1042.73561 
L 66.489441 1042.73561 
L 66.489441 1042.73561 
L 55.916809 1042.73561 
z
" clip-path="url(#p6ea4b63571)" style="fill: #dce9f4; opacity: 0.8; stroke: #000000; stroke-width: 0.8; stroke-linejoin: miter"/>
   </g>
   <g id="patch_10">
    <path d="M 151.070493 1042.73561 
L 161.643125 1042.73561 
L 161.643125 28.441756 
L 151.070493 28.441756 
z
" clip-path="url(#p6ea4b63571)" style="fill: #dce9f4; opacity: 0.8; stroke: #000000; stroke-width: 0.8; stroke-linejoin: miter"/>
   </g>
   <g id="patch_11">
    <path d="M 55.916809 1042.73561 
L 66.489441 1042.73561 
L 66.489441 1042.73561 
L 55.916809 1042.73561 
z
" clip-path="url(#p6ea4b63571)" style="fill: #e56f5e; opacity: 0.8; stroke: #000000; stroke-width: 0.8; stroke-linejoin: miter"/>
   </g>
   <g id="patch_12">
    <path d="M 163.757651 1042.73561 
L 174.330283 1042.73561 
L 174.330283 155.892293 
L 163.757651 155.892293 
z
" clip-path="url(#p6ea4b63571)" style="fill: #e56f5e; opacity: 0.8; stroke: #000000; stroke-width: 0.8; stroke-linejoin: miter"/>
   </g>
   <g id="patch_13">
    <path d="M 55.916809 1042.73561 
L 66.489441 1042.73561 
L 66.489441 1042.73561 
L 55.916809 1042.73561 
z
" clip-path="url(#p6ea4b63571)" style="fill: #f19685; opacity: 0.8; stroke: #000000; stroke-width: 0.8; stroke-linejoin: miter"/>
   </g>
   <g id="patch_14">
    <path d="M 271.598493 1042.73561 
L 282.171125 1042.73561 
L 282.171125 177.134049 
L 271.598493 177.134049 
z
" clip-path="url(#p6ea4b63571)" style="fill: #f19685; opacity: 0.8; stroke: #000000; stroke-width: 0.8; stroke-linejoin: miter"/>
   </g>
   <g id="patch_15">
    <path d="M 55.916809 1042.73561 
L 66.489441 1042.73561 
L 66.489441 1042.73561 
L 55.916809 1042.73561 
z
" clip-path="url(#p6ea4b63571)" style="fill: #f6c957; opacity: 0.8; stroke: #000000; stroke-width: 0.8; stroke-linejoin: miter"/>
   </g>
   <g id="patch_16">
    <path d="M 284.285651 1042.73561 
L 294.858283 1042.73561 
L 294.858283 145.271415 
L 284.285651 145.271415 
z
" clip-path="url(#p6ea4b63571)" style="fill: #f6c957; opacity: 0.8; stroke: #000000; stroke-width: 0.8; stroke-linejoin: miter"/>
   </g>
   <g id="matplotlib.axis_1">
    <g id="xtick_1">
     <g id="line2d_1">
      <defs>
       <path id="m97250a3865" d="M 0 0 
L 0 3.5 
" style="stroke: #000000; stroke-width: 0.8"/>
      </defs>
      <g>
       <use xlink:href="#m97250a3865" x="156.356809" y="299.274146" style="stroke: #000000; stroke-width: 0.8"/>
      </g>
     </g>
    </g>
    <g id="xtick_2">
     <g id="line2d_2">
      <g>
       <use xlink:href="#m97250a3865" x="251.510493" y="299.274146" style="stroke: #000000; stroke-width: 0.8"/>
      </g>
     </g>
    </g>
    <g id="xtick_3">
     <g id="line2d_3">
      <g>
       <use xlink:href="#m97250a3865" x="346.664178" y="299.274146" style="stroke: #000000; stroke-width: 0.8"/>
      </g>
     </g>
    </g>
    <g id="xtick_4">
     <g id="line2d_4">
      <g>
       <use xlink:href="#m97250a3865" x="441.817862" y="299.274146" style="stroke: #000000; stroke-width: 0.8"/>
      </g>
     </g>
    </g>
    <g id="xtick_5">
     <g id="line2d_5">
      <g>
       <use xlink:href="#m97250a3865" x="536.971546" y="299.274146" style="stroke: #000000; stroke-width: 0.8"/>
      </g>
     </g>
    </g>
    <g id="xtick_6">
     <g id="line2d_6">
      <g>
       <use xlink:href="#m97250a3865" x="632.12523" y="299.274146" style="stroke: #000000; stroke-width: 0.8"/>
      </g>
     </g>
    </g>
    <g id="xtick_7">
     <g id="line2d_7">
      <g>
       <use xlink:href="#m97250a3865" x="727.278914" y="299.274146" style="stroke: #000000; stroke-width: 0.8"/>
      </g>
     </g>
    </g>
    <g id="xtick_8">
     <g id="line2d_8">
      <g>
       <use xlink:href="#m97250a3865" x="822.432599" y="299.274146" style="stroke: #000000; stroke-width: 0.8"/>
      </g>
     </g>
    </g>
    <g id="xtick_9">
     <g id="line2d_9">
      <g>
       <use xlink:href="#m97250a3865" x="917.586283" y="299.274146" style="stroke: #000000; stroke-width: 0.8"/>
      </g>
     </g>
    </g>
    <g id="xtick_10">
     <g id="line2d_10">
      <g>
       <use xlink:href="#m97250a3865" x="1012.739967" y="299.274146" style="stroke: #000000; stroke-width: 0.8"/>
      </g>
     </g>
    </g>
   </g>
   <g id="matplotlib.axis_2">
    <g id="ytick_1">
     <g id="line2d_11">
      <defs>
       <path id="md7646f0d70" d="M 0 0 
L -3.5 0 
" style="stroke: #000000; stroke-width: 0.8"/>
      </defs>
      <g>
       <use xlink:href="#md7646f0d70" x="61.203125" y="299.274146" style="stroke: #000000; stroke-width: 0.8"/>
      </g>
     </g>
     <g id="text_1">
      <!-- 140 -->
      <g transform="translate(24.174063 305.716178) scale(0.18 -0.18)">
       <defs>
        <path id="ArialMT-31" d="M 2384 0 
L 1822 0 
L 1822 3584 
Q 1619 3391 1289 3197 
Q 959 3003 697 2906 
L 697 3450 
Q 1169 3672 1522 3987 
Q 1875 4303 2022 4600 
L 2384 4600 
L 2384 0 
z
" transform="scale(0.015625)"/>
        <path id="ArialMT-34" d="M 2069 0 
L 2069 1097 
L 81 1097 
L 81 1613 
L 2172 4581 
L 2631 4581 
L 2631 1613 
L 3250 1613 
L 3250 1097 
L 2631 1097 
L 2631 0 
L 2069 0 
z
M 2069 1613 
L 2069 3678 
L 634 1613 
L 2069 1613 
z
" transform="scale(0.015625)"/>
        <path id="ArialMT-30" d="M 266 2259 
Q 266 3072 433 3567 
Q 600 4063 929 4331 
Q 1259 4600 1759 4600 
Q 2128 4600 2406 4451 
Q 2684 4303 2865 4023 
Q 3047 3744 3150 3342 
Q 3253 2941 3253 2259 
Q 3253 1453 3087 958 
Q 2922 463 2592 192 
Q 2263 -78 1759 -78 
Q 1097 -78 719 397 
Q 266 969 266 2259 
z
M 844 2259 
Q 844 1131 1108 757 
Q 1372 384 1759 384 
Q 2147 384 2411 759 
Q 2675 1134 2675 2259 
Q 2675 3391 2411 3762 
Q 2147 4134 1753 4134 
Q 1366 4134 1134 3806 
Q 844 3388 844 2259 
z
" transform="scale(0.015625)"/>
       </defs>
       <use xlink:href="#ArialMT-31"/>
       <use xlink:href="#ArialMT-34" x="55.615234"/>
       <use xlink:href="#ArialMT-30" x="111.230469"/>
      </g>
     </g>
    </g>
    <g id="ytick_2">
     <g id="line2d_12">
      <g>
       <use xlink:href="#md7646f0d70" x="61.203125" y="246.169756" style="stroke: #000000; stroke-width: 0.8"/>
      </g>
     </g>
     <g id="text_2">
      <!-- 150 -->
      <g transform="translate(24.174063 252.611787) scale(0.18 -0.18)">
       <defs>
        <path id="ArialMT-35" d="M 266 1200 
L 856 1250 
Q 922 819 1161 601 
Q 1400 384 1738 384 
Q 2144 384 2425 690 
Q 2706 997 2706 1503 
Q 2706 1984 2436 2262 
Q 2166 2541 1728 2541 
Q 1456 2541 1237 2417 
Q 1019 2294 894 2097 
L 366 2166 
L 809 4519 
L 3088 4519 
L 3088 3981 
L 1259 3981 
L 1013 2750 
Q 1425 3038 1878 3038 
Q 2478 3038 2890 2622 
Q 3303 2206 3303 1553 
Q 3303 931 2941 478 
Q 2500 -78 1738 -78 
Q 1113 -78 717 272 
Q 322 622 266 1200 
z
" transform="scale(0.015625)"/>
       </defs>
       <use xlink:href="#ArialMT-31"/>
       <use xlink:href="#ArialMT-35" x="55.615234"/>
       <use xlink:href="#ArialMT-30" x="111.230469"/>
      </g>
     </g>
    </g>
    <g id="ytick_3">
     <g id="line2d_13">
      <g>
       <use xlink:href="#md7646f0d70" x="61.203125" y="193.065366" style="stroke: #000000; stroke-width: 0.8"/>
      </g>
     </g>
     <g id="text_3">
      <!-- 160 -->
      <g transform="translate(24.174063 199.507397) scale(0.18 -0.18)">
       <defs>
        <path id="ArialMT-36" d="M 3184 3459 
L 2625 3416 
Q 2550 3747 2413 3897 
Q 2184 4138 1850 4138 
Q 1581 4138 1378 3988 
Q 1113 3794 959 3422 
Q 806 3050 800 2363 
Q 1003 2672 1297 2822 
Q 1591 2972 1913 2972 
Q 2475 2972 2870 2558 
Q 3266 2144 3266 1488 
Q 3266 1056 3080 686 
Q 2894 316 2569 119 
Q 2244 -78 1831 -78 
Q 1128 -78 684 439 
Q 241 956 241 2144 
Q 241 3472 731 4075 
Q 1159 4600 1884 4600 
Q 2425 4600 2770 4297 
Q 3116 3994 3184 3459 
z
M 888 1484 
Q 888 1194 1011 928 
Q 1134 663 1356 523 
Q 1578 384 1822 384 
Q 2178 384 2434 671 
Q 2691 959 2691 1453 
Q 2691 1928 2437 2201 
Q 2184 2475 1800 2475 
Q 1419 2475 1153 2201 
Q 888 1928 888 1484 
z
" transform="scale(0.015625)"/>
       </defs>
       <use xlink:href="#ArialMT-31"/>
       <use xlink:href="#ArialMT-36" x="55.615234"/>
       <use xlink:href="#ArialMT-30" x="111.230469"/>
      </g>
     </g>
    </g>
    <g id="ytick_4">
     <g id="line2d_14">
      <g>
       <use xlink:href="#md7646f0d70" x="61.203125" y="139.960976" style="stroke: #000000; stroke-width: 0.8"/>
      </g>
     </g>
     <g id="text_4">
      <!-- 170 -->
      <g transform="translate(24.174063 146.403007) scale(0.18 -0.18)">
       <defs>
        <path id="ArialMT-37" d="M 303 3981 
L 303 4522 
L 3269 4522 
L 3269 4084 
Q 2831 3619 2401 2847 
Q 1972 2075 1738 1259 
Q 1569 684 1522 0 
L 944 0 
Q 953 541 1156 1306 
Q 1359 2072 1739 2783 
Q 2119 3494 2547 3981 
L 303 3981 
z
" transform="scale(0.015625)"/>
       </defs>
       <use xlink:href="#ArialMT-31"/>
       <use xlink:href="#ArialMT-37" x="55.615234"/>
       <use xlink:href="#ArialMT-30" x="111.230469"/>
      </g>
     </g>
    </g>
    <g id="ytick_5">
     <g id="line2d_15">
      <g>
       <use xlink:href="#md7646f0d70" x="61.203125" y="86.856585" style="stroke: #000000; stroke-width: 0.8"/>
      </g>
     </g>
     <g id="text_5">
      <!-- 180 -->
      <g transform="translate(24.174063 93.298617) scale(0.18 -0.18)">
       <defs>
        <path id="ArialMT-38" d="M 1131 2484 
Q 781 2613 612 2850 
Q 444 3088 444 3419 
Q 444 3919 803 4259 
Q 1163 4600 1759 4600 
Q 2359 4600 2725 4251 
Q 3091 3903 3091 3403 
Q 3091 3084 2923 2848 
Q 2756 2613 2416 2484 
Q 2838 2347 3058 2040 
Q 3278 1734 3278 1309 
Q 3278 722 2862 322 
Q 2447 -78 1769 -78 
Q 1091 -78 675 323 
Q 259 725 259 1325 
Q 259 1772 486 2073 
Q 713 2375 1131 2484 
z
M 1019 3438 
Q 1019 3113 1228 2906 
Q 1438 2700 1772 2700 
Q 2097 2700 2305 2904 
Q 2513 3109 2513 3406 
Q 2513 3716 2298 3927 
Q 2084 4138 1766 4138 
Q 1444 4138 1231 3931 
Q 1019 3725 1019 3438 
z
M 838 1322 
Q 838 1081 952 856 
Q 1066 631 1291 507 
Q 1516 384 1775 384 
Q 2178 384 2440 643 
Q 2703 903 2703 1303 
Q 2703 1709 2433 1975 
Q 2163 2241 1756 2241 
Q 1359 2241 1098 1978 
Q 838 1716 838 1322 
z
" transform="scale(0.015625)"/>
       </defs>
       <use xlink:href="#ArialMT-31"/>
       <use xlink:href="#ArialMT-38" x="55.615234"/>
       <use xlink:href="#ArialMT-30" x="111.230469"/>
      </g>
     </g>
    </g>
    <g id="ytick_6">
     <g id="line2d_16">
      <g>
       <use xlink:href="#md7646f0d70" x="61.203125" y="33.752195" style="stroke: #000000; stroke-width: 0.8"/>
      </g>
     </g>
     <g id="text_6">
      <!-- 190 -->
      <g transform="translate(24.174063 40.194226) scale(0.18 -0.18)">
       <defs>
        <path id="ArialMT-39" d="M 350 1059 
L 891 1109 
Q 959 728 1153 556 
Q 1347 384 1650 384 
Q 1909 384 2104 503 
Q 2300 622 2425 820 
Q 2550 1019 2634 1356 
Q 2719 1694 2719 2044 
Q 2719 2081 2716 2156 
Q 2547 1888 2255 1720 
Q 1963 1553 1622 1553 
Q 1053 1553 659 1965 
Q 266 2378 266 3053 
Q 266 3750 677 4175 
Q 1088 4600 1706 4600 
Q 2153 4600 2523 4359 
Q 2894 4119 3086 3673 
Q 3278 3228 3278 2384 
Q 3278 1506 3087 986 
Q 2897 466 2520 194 
Q 2144 -78 1638 -78 
Q 1100 -78 759 220 
Q 419 519 350 1059 
z
M 2653 3081 
Q 2653 3566 2395 3850 
Q 2138 4134 1775 4134 
Q 1400 4134 1122 3828 
Q 844 3522 844 3034 
Q 844 2597 1108 2323 
Q 1372 2050 1759 2050 
Q 2150 2050 2401 2323 
Q 2653 2597 2653 3081 
z
" transform="scale(0.015625)"/>
       </defs>
       <use xlink:href="#ArialMT-31"/>
       <use xlink:href="#ArialMT-39" x="55.615234"/>
       <use xlink:href="#ArialMT-30" x="111.230469"/>
      </g>
     </g>
    </g>
    <g id="text_7">
     <!-- Sequence Number -->
     <g transform="translate(17.391563 211.601761) rotate(-90) scale(0.14 -0.14)">
      <defs>
       <path id="ArialMT-53" d="M 288 1472 
L 859 1522 
Q 900 1178 1048 958 
Q 1197 738 1509 602 
Q 1822 466 2213 466 
Q 2559 466 2825 569 
Q 3091 672 3220 851 
Q 3350 1031 3350 1244 
Q 3350 1459 3225 1620 
Q 3100 1781 2813 1891 
Q 2628 1963 1997 2114 
Q 1366 2266 1113 2400 
Q 784 2572 623 2826 
Q 463 3081 463 3397 
Q 463 3744 659 4045 
Q 856 4347 1234 4503 
Q 1613 4659 2075 4659 
Q 2584 4659 2973 4495 
Q 3363 4331 3572 4012 
Q 3781 3694 3797 3291 
L 3216 3247 
Q 3169 3681 2898 3903 
Q 2628 4125 2100 4125 
Q 1550 4125 1298 3923 
Q 1047 3722 1047 3438 
Q 1047 3191 1225 3031 
Q 1400 2872 2139 2705 
Q 2878 2538 3153 2413 
Q 3553 2228 3743 1945 
Q 3934 1663 3934 1294 
Q 3934 928 3725 604 
Q 3516 281 3123 101 
Q 2731 -78 2241 -78 
Q 1619 -78 1198 103 
Q 778 284 539 648 
Q 300 1013 288 1472 
z
" transform="scale(0.015625)"/>
       <path id="ArialMT-65" d="M 2694 1069 
L 3275 997 
Q 3138 488 2766 206 
Q 2394 -75 1816 -75 
Q 1088 -75 661 373 
Q 234 822 234 1631 
Q 234 2469 665 2931 
Q 1097 3394 1784 3394 
Q 2450 3394 2872 2941 
Q 3294 2488 3294 1666 
Q 3294 1616 3291 1516 
L 816 1516 
Q 847 969 1125 678 
Q 1403 388 1819 388 
Q 2128 388 2347 550 
Q 2566 713 2694 1069 
z
M 847 1978 
L 2700 1978 
Q 2663 2397 2488 2606 
Q 2219 2931 1791 2931 
Q 1403 2931 1139 2672 
Q 875 2413 847 1978 
z
" transform="scale(0.015625)"/>
       <path id="ArialMT-71" d="M 2538 -1272 
L 2538 353 
Q 2406 169 2170 47 
Q 1934 -75 1669 -75 
Q 1078 -75 651 397 
Q 225 869 225 1691 
Q 225 2191 398 2587 
Q 572 2984 901 3189 
Q 1231 3394 1625 3394 
Q 2241 3394 2594 2875 
L 2594 3319 
L 3100 3319 
L 3100 -1272 
L 2538 -1272 
z
M 803 1669 
Q 803 1028 1072 708 
Q 1341 388 1716 388 
Q 2075 388 2334 692 
Q 2594 997 2594 1619 
Q 2594 2281 2320 2615 
Q 2047 2950 1678 2950 
Q 1313 2950 1058 2639 
Q 803 2328 803 1669 
z
" transform="scale(0.015625)"/>
       <path id="ArialMT-75" d="M 2597 0 
L 2597 488 
Q 2209 -75 1544 -75 
Q 1250 -75 995 37 
Q 741 150 617 320 
Q 494 491 444 738 
Q 409 903 409 1263 
L 409 3319 
L 972 3319 
L 972 1478 
Q 972 1038 1006 884 
Q 1059 663 1231 536 
Q 1403 409 1656 409 
Q 1909 409 2131 539 
Q 2353 669 2445 892 
Q 2538 1116 2538 1541 
L 2538 3319 
L 3100 3319 
L 3100 0 
L 2597 0 
z
" transform="scale(0.015625)"/>
       <path id="ArialMT-6e" d="M 422 0 
L 422 3319 
L 928 3319 
L 928 2847 
Q 1294 3394 1984 3394 
Q 2284 3394 2536 3286 
Q 2788 3178 2913 3003 
Q 3038 2828 3088 2588 
Q 3119 2431 3119 2041 
L 3119 0 
L 2556 0 
L 2556 2019 
Q 2556 2363 2490 2533 
Q 2425 2703 2258 2804 
Q 2091 2906 1866 2906 
Q 1506 2906 1245 2678 
Q 984 2450 984 1813 
L 984 0 
L 422 0 
z
" transform="scale(0.015625)"/>
       <path id="ArialMT-63" d="M 2588 1216 
L 3141 1144 
Q 3050 572 2676 248 
Q 2303 -75 1759 -75 
Q 1078 -75 664 370 
Q 250 816 250 1647 
Q 250 2184 428 2587 
Q 606 2991 970 3192 
Q 1334 3394 1763 3394 
Q 2303 3394 2647 3120 
Q 2991 2847 3088 2344 
L 2541 2259 
Q 2463 2594 2264 2762 
Q 2066 2931 1784 2931 
Q 1359 2931 1093 2626 
Q 828 2322 828 1663 
Q 828 994 1084 691 
Q 1341 388 1753 388 
Q 2084 388 2306 591 
Q 2528 794 2588 1216 
z
" transform="scale(0.015625)"/>
       <path id="ArialMT-20" transform="scale(0.015625)"/>
       <path id="ArialMT-4e" d="M 488 0 
L 488 4581 
L 1109 4581 
L 3516 984 
L 3516 4581 
L 4097 4581 
L 4097 0 
L 3475 0 
L 1069 3600 
L 1069 0 
L 488 0 
z
" transform="scale(0.015625)"/>
       <path id="ArialMT-6d" d="M 422 0 
L 422 3319 
L 925 3319 
L 925 2853 
Q 1081 3097 1340 3245 
Q 1600 3394 1931 3394 
Q 2300 3394 2536 3241 
Q 2772 3088 2869 2813 
Q 3263 3394 3894 3394 
Q 4388 3394 4653 3120 
Q 4919 2847 4919 2278 
L 4919 0 
L 4359 0 
L 4359 2091 
Q 4359 2428 4304 2576 
Q 4250 2725 4106 2815 
Q 3963 2906 3769 2906 
Q 3419 2906 3187 2673 
Q 2956 2441 2956 1928 
L 2956 0 
L 2394 0 
L 2394 2156 
Q 2394 2531 2256 2718 
Q 2119 2906 1806 2906 
Q 1569 2906 1367 2781 
Q 1166 2656 1075 2415 
Q 984 2175 984 1722 
L 984 0 
L 422 0 
z
" transform="scale(0.015625)"/>
       <path id="ArialMT-62" d="M 941 0 
L 419 0 
L 419 4581 
L 981 4581 
L 981 2947 
Q 1338 3394 1891 3394 
Q 2197 3394 2470 3270 
Q 2744 3147 2920 2923 
Q 3097 2700 3197 2384 
Q 3297 2069 3297 1709 
Q 3297 856 2875 390 
Q 2453 -75 1863 -75 
Q 1275 -75 941 416 
L 941 0 
z
M 934 1684 
Q 934 1088 1097 822 
Q 1363 388 1816 388 
Q 2184 388 2453 708 
Q 2722 1028 2722 1663 
Q 2722 2313 2464 2622 
Q 2206 2931 1841 2931 
Q 1472 2931 1203 2611 
Q 934 2291 934 1684 
z
" transform="scale(0.015625)"/>
       <path id="ArialMT-72" d="M 416 0 
L 416 3319 
L 922 3319 
L 922 2816 
Q 1116 3169 1280 3281 
Q 1444 3394 1641 3394 
Q 1925 3394 2219 3213 
L 2025 2691 
Q 1819 2813 1613 2813 
Q 1428 2813 1281 2702 
Q 1134 2591 1072 2394 
Q 978 2094 978 1738 
L 978 0 
L 416 0 
z
" transform="scale(0.015625)"/>
      </defs>
      <use xlink:href="#ArialMT-53"/>
      <use xlink:href="#ArialMT-65" x="66.699219"/>
      <use xlink:href="#ArialMT-71" x="122.314453"/>
      <use xlink:href="#ArialMT-75" x="177.929688"/>
      <use xlink:href="#ArialMT-65" x="233.544922"/>
      <use xlink:href="#ArialMT-6e" x="289.160156"/>
      <use xlink:href="#ArialMT-63" x="344.775391"/>
      <use xlink:href="#ArialMT-65" x="394.775391"/>
      <use xlink:href="#ArialMT-20" x="450.390625"/>
      <use xlink:href="#ArialMT-4e" x="478.173828"/>
      <use xlink:href="#ArialMT-75" x="550.390625"/>
      <use xlink:href="#ArialMT-6d" x="606.005859"/>
      <use xlink:href="#ArialMT-62" x="689.306641"/>
      <use xlink:href="#ArialMT-65" x="744.921875"/>
      <use xlink:href="#ArialMT-72" x="800.537109"/>
     </g>
    </g>
   </g>
   <g id="line2d_17">
    <path d="M 56.181125 300.734517 
L 66.225125 297.813776 
" style="fill: none; stroke: #000000; stroke-width: 1.5; stroke-linecap: square"/>
   </g>
   <g id="line2d_18">
    <path d="M 1060.581125 300.734517 
L 1070.625125 297.813776 
" style="fill: none; stroke: #000000; stroke-width: 1.5; stroke-linecap: square"/>
   </g>
   <g id="patch_17">
    <path d="M 61.203125 299.274146 
L 61.203125 7.2 
" style="fill: none; stroke: #000000; stroke-width: 0.8; stroke-linejoin: miter; stroke-linecap: square"/>
   </g>
   <g id="patch_18">
    <path d="M 1065.603125 299.274146 
L 1065.603125 7.2 
" style="fill: none; stroke: #000000; stroke-width: 0.8; stroke-linejoin: miter; stroke-linecap: square"/>
   </g>
   <g id="patch_19">
    <path d="M 61.203125 299.274146 
L 1065.603125 299.274146 
" style="fill: none; stroke: #000000; stroke-width: 0.8; stroke-linejoin: miter; stroke-linecap: square"/>
   </g>
   <g id="patch_20">
    <path d="M 61.203125 7.2 
L 1065.603125 7.2 
" style="fill: none; stroke: #000000; stroke-width: 0.8; stroke-linejoin: miter; stroke-linecap: square"/>
   </g>
   <g id="legend_1">
    <g id="patch_21">
     <path d="M 954.19375 157.024062 
L 1055.803125 157.024062 
Q 1058.603125 157.024062 1058.603125 154.224062 
L 1058.603125 17 
Q 1058.603125 14.2 1055.803125 14.2 
L 954.19375 14.2 
Q 951.39375 14.2 951.39375 17 
L 951.39375 154.224062 
Q 951.39375 157.024062 954.19375 157.024062 
z
" style="fill: #ffffff; opacity: 0.8; stroke: #cccccc; stroke-linejoin: miter"/>
    </g>
    <g id="patch_22">
     <path d="M 956.99375 29.820937 
L 984.99375 29.820937 
L 984.99375 20.020937 
L 956.99375 20.020937 
z
" style="fill: #43978f; opacity: 0.8; stroke: #000000; stroke-width: 0.8; stroke-linejoin: miter"/>
    </g>
    <g id="text_8">
     <!-- Pattern 1 -->
     <g transform="translate(996.19375 29.820937) scale(0.14 -0.14)">
      <defs>
       <path id="ArialMT-50" d="M 494 0 
L 494 4581 
L 2222 4581 
Q 2678 4581 2919 4538 
Q 3256 4481 3484 4323 
Q 3713 4166 3852 3881 
Q 3991 3597 3991 3256 
Q 3991 2672 3619 2267 
Q 3247 1863 2275 1863 
L 1100 1863 
L 1100 0 
L 494 0 
z
M 1100 2403 
L 2284 2403 
Q 2872 2403 3119 2622 
Q 3366 2841 3366 3238 
Q 3366 3525 3220 3729 
Q 3075 3934 2838 4000 
Q 2684 4041 2272 4041 
L 1100 4041 
L 1100 2403 
z
" transform="scale(0.015625)"/>
       <path id="ArialMT-61" d="M 2588 409 
Q 2275 144 1986 34 
Q 1697 -75 1366 -75 
Q 819 -75 525 192 
Q 231 459 231 875 
Q 231 1119 342 1320 
Q 453 1522 633 1644 
Q 813 1766 1038 1828 
Q 1203 1872 1538 1913 
Q 2219 1994 2541 2106 
Q 2544 2222 2544 2253 
Q 2544 2597 2384 2738 
Q 2169 2928 1744 2928 
Q 1347 2928 1158 2789 
Q 969 2650 878 2297 
L 328 2372 
Q 403 2725 575 2942 
Q 747 3159 1072 3276 
Q 1397 3394 1825 3394 
Q 2250 3394 2515 3294 
Q 2781 3194 2906 3042 
Q 3031 2891 3081 2659 
Q 3109 2516 3109 2141 
L 3109 1391 
Q 3109 606 3145 398 
Q 3181 191 3288 0 
L 2700 0 
Q 2613 175 2588 409 
z
M 2541 1666 
Q 2234 1541 1622 1453 
Q 1275 1403 1131 1340 
Q 988 1278 909 1158 
Q 831 1038 831 891 
Q 831 666 1001 516 
Q 1172 366 1500 366 
Q 1825 366 2078 508 
Q 2331 650 2450 897 
Q 2541 1088 2541 1459 
L 2541 1666 
z
" transform="scale(0.015625)"/>
       <path id="ArialMT-74" d="M 1650 503 
L 1731 6 
Q 1494 -44 1306 -44 
Q 1000 -44 831 53 
Q 663 150 594 308 
Q 525 466 525 972 
L 525 2881 
L 113 2881 
L 113 3319 
L 525 3319 
L 525 4141 
L 1084 4478 
L 1084 3319 
L 1650 3319 
L 1650 2881 
L 1084 2881 
L 1084 941 
Q 1084 700 1114 631 
Q 1144 563 1211 522 
Q 1278 481 1403 481 
Q 1497 481 1650 503 
z
" transform="scale(0.015625)"/>
      </defs>
      <use xlink:href="#ArialMT-50"/>
      <use xlink:href="#ArialMT-61" x="66.699219"/>
      <use xlink:href="#ArialMT-74" x="122.314453"/>
      <use xlink:href="#ArialMT-74" x="150.097656"/>
      <use xlink:href="#ArialMT-65" x="177.880859"/>
      <use xlink:href="#ArialMT-72" x="233.496094"/>
      <use xlink:href="#ArialMT-6e" x="266.796875"/>
      <use xlink:href="#ArialMT-20" x="322.412109"/>
      <use xlink:href="#ArialMT-31" x="350.195312"/>
     </g>
    </g>
    <g id="patch_23">
     <path d="M 956.99375 49.624375 
L 984.99375 49.624375 
L 984.99375 39.824375 
L 956.99375 39.824375 
z
" style="fill: #9ec4be; opacity: 0.8; stroke: #000000; stroke-width: 0.8; stroke-linejoin: miter"/>
    </g>
    <g id="text_9">
     <!-- Pattern 2 -->
     <g transform="translate(996.19375 49.624375) scale(0.14 -0.14)">
      <defs>
       <path id="ArialMT-32" d="M 3222 541 
L 3222 0 
L 194 0 
Q 188 203 259 391 
Q 375 700 629 1000 
Q 884 1300 1366 1694 
Q 2113 2306 2375 2664 
Q 2638 3022 2638 3341 
Q 2638 3675 2398 3904 
Q 2159 4134 1775 4134 
Q 1369 4134 1125 3890 
Q 881 3647 878 3216 
L 300 3275 
Q 359 3922 746 4261 
Q 1134 4600 1788 4600 
Q 2447 4600 2831 4234 
Q 3216 3869 3216 3328 
Q 3216 3053 3103 2787 
Q 2991 2522 2730 2228 
Q 2469 1934 1863 1422 
Q 1356 997 1212 845 
Q 1069 694 975 541 
L 3222 541 
z
" transform="scale(0.015625)"/>
      </defs>
      <use xlink:href="#ArialMT-50"/>
      <use xlink:href="#ArialMT-61" x="66.699219"/>
      <use xlink:href="#ArialMT-74" x="122.314453"/>
      <use xlink:href="#ArialMT-74" x="150.097656"/>
      <use xlink:href="#ArialMT-65" x="177.880859"/>
      <use xlink:href="#ArialMT-72" x="233.496094"/>
      <use xlink:href="#ArialMT-6e" x="266.796875"/>
      <use xlink:href="#ArialMT-20" x="322.412109"/>
      <use xlink:href="#ArialMT-32" x="350.195312"/>
     </g>
    </g>
    <g id="patch_24">
     <path d="M 956.99375 69.427812 
L 984.99375 69.427812 
L 984.99375 59.627812 
L 956.99375 59.627812 
z
" style="fill: #abd0f1; opacity: 0.8; stroke: #000000; stroke-width: 0.8; stroke-linejoin: miter"/>
    </g>
    <g id="text_10">
     <!-- Pattern 3 -->
     <g transform="translate(996.19375 69.427812) scale(0.14 -0.14)">
      <defs>
       <path id="ArialMT-33" d="M 269 1209 
L 831 1284 
Q 928 806 1161 595 
Q 1394 384 1728 384 
Q 2125 384 2398 659 
Q 2672 934 2672 1341 
Q 2672 1728 2419 1979 
Q 2166 2231 1775 2231 
Q 1616 2231 1378 2169 
L 1441 2663 
Q 1497 2656 1531 2656 
Q 1891 2656 2178 2843 
Q 2466 3031 2466 3422 
Q 2466 3731 2256 3934 
Q 2047 4138 1716 4138 
Q 1388 4138 1169 3931 
Q 950 3725 888 3313 
L 325 3413 
Q 428 3978 793 4289 
Q 1159 4600 1703 4600 
Q 2078 4600 2393 4439 
Q 2709 4278 2876 4000 
Q 3044 3722 3044 3409 
Q 3044 3113 2884 2869 
Q 2725 2625 2413 2481 
Q 2819 2388 3044 2092 
Q 3269 1797 3269 1353 
Q 3269 753 2831 336 
Q 2394 -81 1725 -81 
Q 1122 -81 723 278 
Q 325 638 269 1209 
z
" transform="scale(0.015625)"/>
      </defs>
      <use xlink:href="#ArialMT-50"/>
      <use xlink:href="#ArialMT-61" x="66.699219"/>
      <use xlink:href="#ArialMT-74" x="122.314453"/>
      <use xlink:href="#ArialMT-74" x="150.097656"/>
      <use xlink:href="#ArialMT-65" x="177.880859"/>
      <use xlink:href="#ArialMT-72" x="233.496094"/>
      <use xlink:href="#ArialMT-6e" x="266.796875"/>
      <use xlink:href="#ArialMT-20" x="322.412109"/>
      <use xlink:href="#ArialMT-33" x="350.195312"/>
     </g>
    </g>
    <g id="patch_25">
     <path d="M 956.99375 89.23125 
L 984.99375 89.23125 
L 984.99375 79.43125 
L 956.99375 79.43125 
z
" style="fill: #dce9f4; opacity: 0.8; stroke: #000000; stroke-width: 0.8; stroke-linejoin: miter"/>
    </g>
    <g id="text_11">
     <!-- Pattern 4 -->
     <g transform="translate(996.19375 89.23125) scale(0.14 -0.14)">
      <use xlink:href="#ArialMT-50"/>
      <use xlink:href="#ArialMT-61" x="66.699219"/>
      <use xlink:href="#ArialMT-74" x="122.314453"/>
      <use xlink:href="#ArialMT-74" x="150.097656"/>
      <use xlink:href="#ArialMT-65" x="177.880859"/>
      <use xlink:href="#ArialMT-72" x="233.496094"/>
      <use xlink:href="#ArialMT-6e" x="266.796875"/>
      <use xlink:href="#ArialMT-20" x="322.412109"/>
      <use xlink:href="#ArialMT-34" x="350.195312"/>
     </g>
    </g>
    <g id="patch_26">
     <path d="M 956.99375 109.034687 
L 984.99375 109.034687 
L 984.99375 99.234687 
L 956.99375 99.234687 
z
" style="fill: #e56f5e; opacity: 0.8; stroke: #000000; stroke-width: 0.8; stroke-linejoin: miter"/>
    </g>
    <g id="text_12">
     <!-- Pattern 5 -->
     <g transform="translate(996.19375 109.034687) scale(0.14 -0.14)">
      <use xlink:href="#ArialMT-50"/>
      <use xlink:href="#ArialMT-61" x="66.699219"/>
      <use xlink:href="#ArialMT-74" x="122.314453"/>
      <use xlink:href="#ArialMT-74" x="150.097656"/>
      <use xlink:href="#ArialMT-65" x="177.880859"/>
      <use xlink:href="#ArialMT-72" x="233.496094"/>
      <use xlink:href="#ArialMT-6e" x="266.796875"/>
      <use xlink:href="#ArialMT-20" x="322.412109"/>
      <use xlink:href="#ArialMT-35" x="350.195312"/>
     </g>
    </g>
    <g id="patch_27">
     <path d="M 956.99375 128.838125 
L 984.99375 128.838125 
L 984.99375 119.038125 
L 956.99375 119.038125 
z
" style="fill: #f19685; opacity: 0.8; stroke: #000000; stroke-width: 0.8; stroke-linejoin: miter"/>
    </g>
    <g id="text_13">
     <!-- Pattern 6 -->
     <g transform="translate(996.19375 128.838125) scale(0.14 -0.14)">
      <use xlink:href="#ArialMT-50"/>
      <use xlink:href="#ArialMT-61" x="66.699219"/>
      <use xlink:href="#ArialMT-74" x="122.314453"/>
      <use xlink:href="#ArialMT-74" x="150.097656"/>
      <use xlink:href="#ArialMT-65" x="177.880859"/>
      <use xlink:href="#ArialMT-72" x="233.496094"/>
      <use xlink:href="#ArialMT-6e" x="266.796875"/>
      <use xlink:href="#ArialMT-20" x="322.412109"/>
      <use xlink:href="#ArialMT-36" x="350.195312"/>
     </g>
    </g>
    <g id="patch_28">
     <path d="M 956.99375 148.641562 
L 984.99375 148.641562 
L 984.99375 138.841562 
L 956.99375 138.841562 
z
" style="fill: #f6c957; opacity: 0.8; stroke: #000000; stroke-width: 0.8; stroke-linejoin: miter"/>
    </g>
    <g id="text_14">
     <!-- Pattern 7 -->
     <g transform="translate(996.19375 148.641562) scale(0.14 -0.14)">
      <use xlink:href="#ArialMT-50"/>
      <use xlink:href="#ArialMT-61" x="66.699219"/>
      <use xlink:href="#ArialMT-74" x="122.314453"/>
      <use xlink:href="#ArialMT-74" x="150.097656"/>
      <use xlink:href="#ArialMT-65" x="177.880859"/>
      <use xlink:href="#ArialMT-72" x="233.496094"/>
      <use xlink:href="#ArialMT-6e" x="266.796875"/>
      <use xlink:href="#ArialMT-20" x="322.412109"/>
      <use xlink:href="#ArialMT-37" x="350.195312"/>
     </g>
    </g>
   </g>
  </g>
  <g id="axes_2">
   <g id="patch_29">
    <path d="M 61.203125 506.16 
L 1065.603125 506.16 
L 1065.603125 311.443902 
L 61.203125 311.443902 
z
" style="fill: #ffffff"/>
   </g>
   <g id="patch_30">
    <path d="M 113.00902 506.16 
L 123.581651 506.16 
L 123.581651 467.21678 
L 113.00902 467.21678 
z
" clip-path="url(#p34f8b8a110)" style="fill: #43978f; opacity: 0.8; stroke: #000000; stroke-width: 0.8; stroke-linejoin: miter"/>
   </g>
   <g id="patch_31">
    <path d="M 208.162704 506.16 
L 218.735336 506.16 
L 218.735336 311.443902 
L 208.162704 311.443902 
z
" clip-path="url(#p34f8b8a110)" style="fill: #43978f; opacity: 0.8; stroke: #000000; stroke-width: 0.8; stroke-linejoin: miter"/>
   </g>
   <g id="patch_32">
    <path d="M 303.316388 506.16 
L 313.88902 506.16 
L 313.88902 467.21678 
L 303.316388 467.21678 
z
" clip-path="url(#p34f8b8a110)" style="fill: #43978f; opacity: 0.8; stroke: #000000; stroke-width: 0.8; stroke-linejoin: miter"/>
   </g>
   <g id="patch_33">
    <path d="M 398.470072 506.16 
L 409.042704 506.16 
L 409.042704 389.330341 
L 398.470072 389.330341 
z
" clip-path="url(#p34f8b8a110)" style="fill: #43978f; opacity: 0.8; stroke: #000000; stroke-width: 0.8; stroke-linejoin: miter"/>
   </g>
   <g id="patch_34">
    <path d="M 493.623757 506.16 
L 504.196388 506.16 
L 504.196388 389.330341 
L 493.623757 389.330341 
z
" clip-path="url(#p34f8b8a110)" style="fill: #43978f; opacity: 0.8; stroke: #000000; stroke-width: 0.8; stroke-linejoin: miter"/>
   </g>
   <g id="patch_35">
    <path d="M 588.777441 506.16 
L 599.350072 506.16 
L 599.350072 467.21678 
L 588.777441 467.21678 
z
" clip-path="url(#p34f8b8a110)" style="fill: #43978f; opacity: 0.8; stroke: #000000; stroke-width: 0.8; stroke-linejoin: miter"/>
   </g>
   <g id="patch_36">
    <path d="M 683.931125 506.16 
L 694.503757 506.16 
L 694.503757 428.273561 
L 683.931125 428.273561 
z
" clip-path="url(#p34f8b8a110)" style="fill: #43978f; opacity: 0.8; stroke: #000000; stroke-width: 0.8; stroke-linejoin: miter"/>
   </g>
   <g id="patch_37">
    <path d="M 779.084809 506.16 
L 789.657441 506.16 
L 789.657441 389.330341 
L 779.084809 389.330341 
z
" clip-path="url(#p34f8b8a110)" style="fill: #43978f; opacity: 0.8; stroke: #000000; stroke-width: 0.8; stroke-linejoin: miter"/>
   </g>
   <g id="patch_38">
    <path d="M 874.238493 506.16 
L 884.811125 506.16 
L 884.811125 467.21678 
L 874.238493 467.21678 
z
" clip-path="url(#p34f8b8a110)" style="fill: #43978f; opacity: 0.8; stroke: #000000; stroke-width: 0.8; stroke-linejoin: miter"/>
   </g>
   <g id="patch_39">
    <path d="M 969.392178 506.16 
L 979.964809 506.16 
L 979.964809 428.273561 
L 969.392178 428.273561 
z
" clip-path="url(#p34f8b8a110)" style="fill: #43978f; opacity: 0.8; stroke: #000000; stroke-width: 0.8; stroke-linejoin: miter"/>
   </g>
   <g id="patch_40">
    <path d="M 125.696178 506.16 
L 136.268809 506.16 
L 136.268809 467.21678 
L 125.696178 467.21678 
z
" clip-path="url(#p34f8b8a110)" style="fill: #9ec4be; opacity: 0.8; stroke: #000000; stroke-width: 0.8; stroke-linejoin: miter"/>
   </g>
   <g id="patch_41">
    <path d="M 220.849862 506.16 
L 231.422493 506.16 
L 231.422493 311.443902 
L 220.849862 311.443902 
z
" clip-path="url(#p34f8b8a110)" style="fill: #9ec4be; opacity: 0.8; stroke: #000000; stroke-width: 0.8; stroke-linejoin: miter"/>
   </g>
   <g id="patch_42">
    <path d="M 316.003546 506.16 
L 326.576178 506.16 
L 326.576178 467.21678 
L 316.003546 467.21678 
z
" clip-path="url(#p34f8b8a110)" style="fill: #9ec4be; opacity: 0.8; stroke: #000000; stroke-width: 0.8; stroke-linejoin: miter"/>
   </g>
   <g id="patch_43">
    <path d="M 411.15723 506.16 
L 421.729862 506.16 
L 421.729862 389.330341 
L 411.15723 389.330341 
z
" clip-path="url(#p34f8b8a110)" style="fill: #9ec4be; opacity: 0.8; stroke: #000000; stroke-width: 0.8; stroke-linejoin: miter"/>
   </g>
   <g id="patch_44">
    <path d="M 506.310914 506.16 
L 516.883546 506.16 
L 516.883546 389.330341 
L 506.310914 389.330341 
z
" clip-path="url(#p34f8b8a110)" style="fill: #9ec4be; opacity: 0.8; stroke: #000000; stroke-width: 0.8; stroke-linejoin: miter"/>
   </g>
   <g id="patch_45">
    <path d="M 601.464599 506.16 
L 612.03723 506.16 
L 612.03723 467.21678 
L 601.464599 467.21678 
z
" clip-path="url(#p34f8b8a110)" style="fill: #9ec4be; opacity: 0.8; stroke: #000000; stroke-width: 0.8; stroke-linejoin: miter"/>
   </g>
   <g id="patch_46">
    <path d="M 696.618283 506.16 
L 707.190914 506.16 
L 707.190914 428.273561 
L 696.618283 428.273561 
z
" clip-path="url(#p34f8b8a110)" style="fill: #9ec4be; opacity: 0.8; stroke: #000000; stroke-width: 0.8; stroke-linejoin: miter"/>
   </g>
   <g id="patch_47">
    <path d="M 791.771967 506.16 
L 802.344599 506.16 
L 802.344599 389.330341 
L 791.771967 389.330341 
z
" clip-path="url(#p34f8b8a110)" style="fill: #9ec4be; opacity: 0.8; stroke: #000000; stroke-width: 0.8; stroke-linejoin: miter"/>
   </g>
   <g id="patch_48">
    <path d="M 886.925651 506.16 
L 897.498283 506.16 
L 897.498283 467.21678 
L 886.925651 467.21678 
z
" clip-path="url(#p34f8b8a110)" style="fill: #9ec4be; opacity: 0.8; stroke: #000000; stroke-width: 0.8; stroke-linejoin: miter"/>
   </g>
   <g id="patch_49">
    <path d="M 982.079336 506.16 
L 992.651967 506.16 
L 992.651967 428.273561 
L 982.079336 428.273561 
z
" clip-path="url(#p34f8b8a110)" style="fill: #9ec4be; opacity: 0.8; stroke: #000000; stroke-width: 0.8; stroke-linejoin: miter"/>
   </g>
   <g id="patch_50">
    <path d="M 138.383336 506.16 
L 148.955967 506.16 
L 148.955967 311.443902 
L 138.383336 311.443902 
z
" clip-path="url(#p34f8b8a110)" style="fill: #abd0f1; opacity: 0.8; stroke: #000000; stroke-width: 0.8; stroke-linejoin: miter"/>
   </g>
   <g id="patch_51">
    <path d="M 233.53702 506.16 
L 244.109651 506.16 
L 244.109651 467.21678 
L 233.53702 467.21678 
z
" clip-path="url(#p34f8b8a110)" style="fill: #abd0f1; opacity: 0.8; stroke: #000000; stroke-width: 0.8; stroke-linejoin: miter"/>
   </g>
   <g id="patch_52">
    <path d="M 328.690704 506.16 
L 339.263336 506.16 
L 339.263336 389.330341 
L 328.690704 389.330341 
z
" clip-path="url(#p34f8b8a110)" style="fill: #abd0f1; opacity: 0.8; stroke: #000000; stroke-width: 0.8; stroke-linejoin: miter"/>
   </g>
   <g id="patch_53">
    <path d="M 423.844388 506.16 
L 434.41702 506.16 
L 434.41702 389.330341 
L 423.844388 389.330341 
z
" clip-path="url(#p34f8b8a110)" style="fill: #abd0f1; opacity: 0.8; stroke: #000000; stroke-width: 0.8; stroke-linejoin: miter"/>
   </g>
   <g id="patch_54">
    <path d="M 518.998072 506.16 
L 529.570704 506.16 
L 529.570704 467.21678 
L 518.998072 467.21678 
z
" clip-path="url(#p34f8b8a110)" style="fill: #abd0f1; opacity: 0.8; stroke: #000000; stroke-width: 0.8; stroke-linejoin: miter"/>
   </g>
   <g id="patch_55">
    <path d="M 614.151757 506.16 
L 624.724388 506.16 
L 624.724388 428.273561 
L 614.151757 428.273561 
z
" clip-path="url(#p34f8b8a110)" style="fill: #abd0f1; opacity: 0.8; stroke: #000000; stroke-width: 0.8; stroke-linejoin: miter"/>
   </g>
   <g id="patch_56">
    <path d="M 709.305441 506.16 
L 719.878072 506.16 
L 719.878072 389.330341 
L 709.305441 389.330341 
z
" clip-path="url(#p34f8b8a110)" style="fill: #abd0f1; opacity: 0.8; stroke: #000000; stroke-width: 0.8; stroke-linejoin: miter"/>
   </g>
   <g id="patch_57">
    <path d="M 804.459125 506.16 
L 815.031757 506.16 
L 815.031757 467.21678 
L 804.459125 467.21678 
z
" clip-path="url(#p34f8b8a110)" style="fill: #abd0f1; opacity: 0.8; stroke: #000000; stroke-width: 0.8; stroke-linejoin: miter"/>
   </g>
   <g id="patch_58">
    <path d="M 899.612809 506.16 
L 910.185441 506.16 
L 910.185441 428.273561 
L 899.612809 428.273561 
z
" clip-path="url(#p34f8b8a110)" style="fill: #abd0f1; opacity: 0.8; stroke: #000000; stroke-width: 0.8; stroke-linejoin: miter"/>
   </g>
   <g id="patch_59">
    <path d="M 151.070493 506.16 
L 161.643125 506.16 
L 161.643125 311.443902 
L 151.070493 311.443902 
z
" clip-path="url(#p34f8b8a110)" style="fill: #dce9f4; opacity: 0.8; stroke: #000000; stroke-width: 0.8; stroke-linejoin: miter"/>
   </g>
   <g id="patch_60">
    <path d="M 163.757651 506.16 
L 174.330283 506.16 
L 174.330283 311.443902 
L 163.757651 311.443902 
z
" clip-path="url(#p34f8b8a110)" style="fill: #e56f5e; opacity: 0.8; stroke: #000000; stroke-width: 0.8; stroke-linejoin: miter"/>
   </g>
   <g id="patch_61">
    <path d="M 258.911336 506.16 
L 269.483967 506.16 
L 269.483967 428.273561 
L 258.911336 428.273561 
z
" clip-path="url(#p34f8b8a110)" style="fill: #e56f5e; opacity: 0.8; stroke: #000000; stroke-width: 0.8; stroke-linejoin: miter"/>
   </g>
   <g id="patch_62">
    <path d="M 354.06502 506.16 
L 364.637651 506.16 
L 364.637651 389.330341 
L 354.06502 389.330341 
z
" clip-path="url(#p34f8b8a110)" style="fill: #e56f5e; opacity: 0.8; stroke: #000000; stroke-width: 0.8; stroke-linejoin: miter"/>
   </g>
   <g id="patch_63">
    <path d="M 449.218704 506.16 
L 459.791336 506.16 
L 459.791336 389.330341 
L 449.218704 389.330341 
z
" clip-path="url(#p34f8b8a110)" style="fill: #e56f5e; opacity: 0.8; stroke: #000000; stroke-width: 0.8; stroke-linejoin: miter"/>
   </g>
   <g id="patch_64">
    <path d="M 544.372388 506.16 
L 554.94502 506.16 
L 554.94502 467.21678 
L 544.372388 467.21678 
z
" clip-path="url(#p34f8b8a110)" style="fill: #e56f5e; opacity: 0.8; stroke: #000000; stroke-width: 0.8; stroke-linejoin: miter"/>
   </g>
   <g id="patch_65">
    <path d="M 639.526072 506.16 
L 650.098704 506.16 
L 650.098704 389.330341 
L 639.526072 389.330341 
z
" clip-path="url(#p34f8b8a110)" style="fill: #e56f5e; opacity: 0.8; stroke: #000000; stroke-width: 0.8; stroke-linejoin: miter"/>
   </g>
   <g id="patch_66">
    <path d="M 734.679757 506.16 
L 745.252388 506.16 
L 745.252388 467.21678 
L 734.679757 467.21678 
z
" clip-path="url(#p34f8b8a110)" style="fill: #e56f5e; opacity: 0.8; stroke: #000000; stroke-width: 0.8; stroke-linejoin: miter"/>
   </g>
   <g id="patch_67">
    <path d="M 829.833441 506.16 
L 840.406072 506.16 
L 840.406072 467.21678 
L 829.833441 467.21678 
z
" clip-path="url(#p34f8b8a110)" style="fill: #e56f5e; opacity: 0.8; stroke: #000000; stroke-width: 0.8; stroke-linejoin: miter"/>
   </g>
   <g id="patch_68">
    <path d="M 924.987125 506.16 
L 935.559757 506.16 
L 935.559757 428.273561 
L 924.987125 428.273561 
z
" clip-path="url(#p34f8b8a110)" style="fill: #e56f5e; opacity: 0.8; stroke: #000000; stroke-width: 0.8; stroke-linejoin: miter"/>
   </g>
   <g id="patch_69">
    <path d="M 176.444809 506.16 
L 187.017441 506.16 
L 187.017441 350.387122 
L 176.444809 350.387122 
z
" clip-path="url(#p34f8b8a110)" style="fill: #f19685; opacity: 0.8; stroke: #000000; stroke-width: 0.8; stroke-linejoin: miter"/>
   </g>
   <g id="patch_70">
    <path d="M 271.598493 506.16 
L 282.171125 506.16 
L 282.171125 311.443902 
L 271.598493 311.443902 
z
" clip-path="url(#p34f8b8a110)" style="fill: #f19685; opacity: 0.8; stroke: #000000; stroke-width: 0.8; stroke-linejoin: miter"/>
   </g>
   <g id="patch_71">
    <path d="M 366.752178 506.16 
L 377.324809 506.16 
L 377.324809 467.21678 
L 366.752178 467.21678 
z
" clip-path="url(#p34f8b8a110)" style="fill: #f19685; opacity: 0.8; stroke: #000000; stroke-width: 0.8; stroke-linejoin: miter"/>
   </g>
   <g id="patch_72">
    <path d="M 461.905862 506.16 
L 472.478493 506.16 
L 472.478493 389.330341 
L 461.905862 389.330341 
z
" clip-path="url(#p34f8b8a110)" style="fill: #f19685; opacity: 0.8; stroke: #000000; stroke-width: 0.8; stroke-linejoin: miter"/>
   </g>
   <g id="patch_73">
    <path d="M 557.059546 506.16 
L 567.632178 506.16 
L 567.632178 389.330341 
L 557.059546 389.330341 
z
" clip-path="url(#p34f8b8a110)" style="fill: #f19685; opacity: 0.8; stroke: #000000; stroke-width: 0.8; stroke-linejoin: miter"/>
   </g>
   <g id="patch_74">
    <path d="M 652.21323 506.16 
L 662.785862 506.16 
L 662.785862 467.21678 
L 652.21323 467.21678 
z
" clip-path="url(#p34f8b8a110)" style="fill: #f19685; opacity: 0.8; stroke: #000000; stroke-width: 0.8; stroke-linejoin: miter"/>
   </g>
   <g id="patch_75">
    <path d="M 747.366914 506.16 
L 757.939546 506.16 
L 757.939546 428.273561 
L 747.366914 428.273561 
z
" clip-path="url(#p34f8b8a110)" style="fill: #f19685; opacity: 0.8; stroke: #000000; stroke-width: 0.8; stroke-linejoin: miter"/>
   </g>
   <g id="patch_76">
    <path d="M 842.520599 506.16 
L 853.09323 506.16 
L 853.09323 389.330341 
L 842.520599 389.330341 
z
" clip-path="url(#p34f8b8a110)" style="fill: #f19685; opacity: 0.8; stroke: #000000; stroke-width: 0.8; stroke-linejoin: miter"/>
   </g>
   <g id="patch_77">
    <path d="M 937.674283 506.16 
L 948.246914 506.16 
L 948.246914 467.21678 
L 937.674283 467.21678 
z
" clip-path="url(#p34f8b8a110)" style="fill: #f19685; opacity: 0.8; stroke: #000000; stroke-width: 0.8; stroke-linejoin: miter"/>
   </g>
   <g id="patch_78">
    <path d="M 1032.827967 506.16 
L 1043.400599 506.16 
L 1043.400599 428.273561 
L 1032.827967 428.273561 
z
" clip-path="url(#p34f8b8a110)" style="fill: #f19685; opacity: 0.8; stroke: #000000; stroke-width: 0.8; stroke-linejoin: miter"/>
   </g>
   <g id="patch_79">
    <path d="M 189.131967 506.16 
L 199.704599 506.16 
L 199.704599 467.21678 
L 189.131967 467.21678 
z
" clip-path="url(#p34f8b8a110)" style="fill: #f6c957; opacity: 0.8; stroke: #000000; stroke-width: 0.8; stroke-linejoin: miter"/>
   </g>
   <g id="patch_80">
    <path d="M 284.285651 506.16 
L 294.858283 506.16 
L 294.858283 311.443902 
L 284.285651 311.443902 
z
" clip-path="url(#p34f8b8a110)" style="fill: #f6c957; opacity: 0.8; stroke: #000000; stroke-width: 0.8; stroke-linejoin: miter"/>
   </g>
   <g id="patch_81">
    <path d="M 379.439336 506.16 
L 390.011967 506.16 
L 390.011967 467.21678 
L 379.439336 467.21678 
z
" clip-path="url(#p34f8b8a110)" style="fill: #f6c957; opacity: 0.8; stroke: #000000; stroke-width: 0.8; stroke-linejoin: miter"/>
   </g>
   <g id="patch_82">
    <path d="M 474.59302 506.16 
L 485.165651 506.16 
L 485.165651 389.330341 
L 474.59302 389.330341 
z
" clip-path="url(#p34f8b8a110)" style="fill: #f6c957; opacity: 0.8; stroke: #000000; stroke-width: 0.8; stroke-linejoin: miter"/>
   </g>
   <g id="patch_83">
    <path d="M 569.746704 506.16 
L 580.319336 506.16 
L 580.319336 467.21678 
L 569.746704 467.21678 
z
" clip-path="url(#p34f8b8a110)" style="fill: #f6c957; opacity: 0.8; stroke: #000000; stroke-width: 0.8; stroke-linejoin: miter"/>
   </g>
   <g id="patch_84">
    <path d="M 664.900388 506.16 
L 675.47302 506.16 
L 675.47302 428.273561 
L 664.900388 428.273561 
z
" clip-path="url(#p34f8b8a110)" style="fill: #f6c957; opacity: 0.8; stroke: #000000; stroke-width: 0.8; stroke-linejoin: miter"/>
   </g>
   <g id="patch_85">
    <path d="M 760.054072 506.16 
L 770.626704 506.16 
L 770.626704 389.330341 
L 760.054072 389.330341 
z
" clip-path="url(#p34f8b8a110)" style="fill: #f6c957; opacity: 0.8; stroke: #000000; stroke-width: 0.8; stroke-linejoin: miter"/>
   </g>
   <g id="patch_86">
    <path d="M 855.207757 506.16 
L 865.780388 506.16 
L 865.780388 389.330341 
L 855.207757 389.330341 
z
" clip-path="url(#p34f8b8a110)" style="fill: #f6c957; opacity: 0.8; stroke: #000000; stroke-width: 0.8; stroke-linejoin: miter"/>
   </g>
   <g id="patch_87">
    <path d="M 950.361441 506.16 
L 960.934072 506.16 
L 960.934072 428.273561 
L 950.361441 428.273561 
z
" clip-path="url(#p34f8b8a110)" style="fill: #f6c957; opacity: 0.8; stroke: #000000; stroke-width: 0.8; stroke-linejoin: miter"/>
   </g>
   <g id="matplotlib.axis_3">
    <g id="xtick_11">
     <g id="line2d_19">
      <g>
       <use xlink:href="#m97250a3865" x="156.356809" y="506.16" style="stroke: #000000; stroke-width: 0.8"/>
      </g>
     </g>
     <g id="text_15">
      <!-- 1 -->
      <g transform="translate(151.351965 526.044063) scale(0.18 -0.18)">
       <use xlink:href="#ArialMT-31"/>
      </g>
     </g>
    </g>
    <g id="xtick_12">
     <g id="line2d_20">
      <g>
       <use xlink:href="#m97250a3865" x="251.510493" y="506.16" style="stroke: #000000; stroke-width: 0.8"/>
      </g>
     </g>
     <g id="text_16">
      <!-- 2 -->
      <g transform="translate(246.50565 526.044063) scale(0.18 -0.18)">
       <use xlink:href="#ArialMT-32"/>
      </g>
     </g>
    </g>
    <g id="xtick_13">
     <g id="line2d_21">
      <g>
       <use xlink:href="#m97250a3865" x="346.664178" y="506.16" style="stroke: #000000; stroke-width: 0.8"/>
      </g>
     </g>
     <g id="text_17">
      <!-- 3 -->
      <g transform="translate(341.659334 526.044063) scale(0.18 -0.18)">
       <use xlink:href="#ArialMT-33"/>
      </g>
     </g>
    </g>
    <g id="xtick_14">
     <g id="line2d_22">
      <g>
       <use xlink:href="#m97250a3865" x="441.817862" y="506.16" style="stroke: #000000; stroke-width: 0.8"/>
      </g>
     </g>
     <g id="text_18">
      <!-- 4 -->
      <g transform="translate(436.813018 526.044063) scale(0.18 -0.18)">
       <use xlink:href="#ArialMT-34"/>
      </g>
     </g>
    </g>
    <g id="xtick_15">
     <g id="line2d_23">
      <g>
       <use xlink:href="#m97250a3865" x="536.971546" y="506.16" style="stroke: #000000; stroke-width: 0.8"/>
      </g>
     </g>
     <g id="text_19">
      <!-- 5 -->
      <g transform="translate(531.966702 526.044063) scale(0.18 -0.18)">
       <use xlink:href="#ArialMT-35"/>
      </g>
     </g>
    </g>
    <g id="xtick_16">
     <g id="line2d_24">
      <g>
       <use xlink:href="#m97250a3865" x="632.12523" y="506.16" style="stroke: #000000; stroke-width: 0.8"/>
      </g>
     </g>
     <g id="text_20">
      <!-- 6 -->
      <g transform="translate(627.120387 526.044063) scale(0.18 -0.18)">
       <use xlink:href="#ArialMT-36"/>
      </g>
     </g>
    </g>
    <g id="xtick_17">
     <g id="line2d_25">
      <g>
       <use xlink:href="#m97250a3865" x="727.278914" y="506.16" style="stroke: #000000; stroke-width: 0.8"/>
      </g>
     </g>
     <g id="text_21">
      <!-- 7 -->
      <g transform="translate(722.274071 526.044063) scale(0.18 -0.18)">
       <use xlink:href="#ArialMT-37"/>
      </g>
     </g>
    </g>
    <g id="xtick_18">
     <g id="line2d_26">
      <g>
       <use xlink:href="#m97250a3865" x="822.432599" y="506.16" style="stroke: #000000; stroke-width: 0.8"/>
      </g>
     </g>
     <g id="text_22">
      <!-- 8 -->
      <g transform="translate(817.427755 526.044063) scale(0.18 -0.18)">
       <use xlink:href="#ArialMT-38"/>
      </g>
     </g>
    </g>
    <g id="xtick_19">
     <g id="line2d_27">
      <g>
       <use xlink:href="#m97250a3865" x="917.586283" y="506.16" style="stroke: #000000; stroke-width: 0.8"/>
      </g>
     </g>
     <g id="text_23">
      <!-- 9 -->
      <g transform="translate(912.581439 526.044063) scale(0.18 -0.18)">
       <use xlink:href="#ArialMT-39"/>
      </g>
     </g>
    </g>
    <g id="xtick_20">
     <g id="line2d_28">
      <g>
       <use xlink:href="#m97250a3865" x="1012.739967" y="506.16" style="stroke: #000000; stroke-width: 0.8"/>
      </g>
     </g>
     <g id="text_24">
      <!-- 10 -->
      <g transform="translate(1002.73028 526.044063) scale(0.18 -0.18)">
       <use xlink:href="#ArialMT-31"/>
       <use xlink:href="#ArialMT-30" x="55.615234"/>
      </g>
     </g>
    </g>
    <g id="text_25">
     <!-- Importation Order -->
     <g transform="translate(508.552656 543.821875) scale(0.14 -0.14)">
      <defs>
       <path id="ArialMT-49" d="M 597 0 
L 597 4581 
L 1203 4581 
L 1203 0 
L 597 0 
z
" transform="scale(0.015625)"/>
       <path id="ArialMT-70" d="M 422 -1272 
L 422 3319 
L 934 3319 
L 934 2888 
Q 1116 3141 1344 3267 
Q 1572 3394 1897 3394 
Q 2322 3394 2647 3175 
Q 2972 2956 3137 2557 
Q 3303 2159 3303 1684 
Q 3303 1175 3120 767 
Q 2938 359 2589 142 
Q 2241 -75 1856 -75 
Q 1575 -75 1351 44 
Q 1128 163 984 344 
L 984 -1272 
L 422 -1272 
z
M 931 1641 
Q 931 1000 1190 694 
Q 1450 388 1819 388 
Q 2194 388 2461 705 
Q 2728 1022 2728 1688 
Q 2728 2322 2467 2637 
Q 2206 2953 1844 2953 
Q 1484 2953 1207 2617 
Q 931 2281 931 1641 
z
" transform="scale(0.015625)"/>
       <path id="ArialMT-6f" d="M 213 1659 
Q 213 2581 725 3025 
Q 1153 3394 1769 3394 
Q 2453 3394 2887 2945 
Q 3322 2497 3322 1706 
Q 3322 1066 3130 698 
Q 2938 331 2570 128 
Q 2203 -75 1769 -75 
Q 1072 -75 642 372 
Q 213 819 213 1659 
z
M 791 1659 
Q 791 1022 1069 705 
Q 1347 388 1769 388 
Q 2188 388 2466 706 
Q 2744 1025 2744 1678 
Q 2744 2294 2464 2611 
Q 2184 2928 1769 2928 
Q 1347 2928 1069 2612 
Q 791 2297 791 1659 
z
" transform="scale(0.015625)"/>
       <path id="ArialMT-69" d="M 425 3934 
L 425 4581 
L 988 4581 
L 988 3934 
L 425 3934 
z
M 425 0 
L 425 3319 
L 988 3319 
L 988 0 
L 425 0 
z
" transform="scale(0.015625)"/>
       <path id="ArialMT-4f" d="M 309 2231 
Q 309 3372 921 4017 
Q 1534 4663 2503 4663 
Q 3138 4663 3647 4359 
Q 4156 4056 4423 3514 
Q 4691 2972 4691 2284 
Q 4691 1588 4409 1038 
Q 4128 488 3612 205 
Q 3097 -78 2500 -78 
Q 1853 -78 1343 234 
Q 834 547 571 1087 
Q 309 1628 309 2231 
z
M 934 2222 
Q 934 1394 1379 917 
Q 1825 441 2497 441 
Q 3181 441 3623 922 
Q 4066 1403 4066 2288 
Q 4066 2847 3877 3264 
Q 3688 3681 3323 3911 
Q 2959 4141 2506 4141 
Q 1863 4141 1398 3698 
Q 934 3256 934 2222 
z
" transform="scale(0.015625)"/>
       <path id="ArialMT-64" d="M 2575 0 
L 2575 419 
Q 2259 -75 1647 -75 
Q 1250 -75 917 144 
Q 584 363 401 755 
Q 219 1147 219 1656 
Q 219 2153 384 2558 
Q 550 2963 881 3178 
Q 1213 3394 1622 3394 
Q 1922 3394 2156 3267 
Q 2391 3141 2538 2938 
L 2538 4581 
L 3097 4581 
L 3097 0 
L 2575 0 
z
M 797 1656 
Q 797 1019 1065 703 
Q 1334 388 1700 388 
Q 2069 388 2326 689 
Q 2584 991 2584 1609 
Q 2584 2291 2321 2609 
Q 2059 2928 1675 2928 
Q 1300 2928 1048 2622 
Q 797 2316 797 1656 
z
" transform="scale(0.015625)"/>
      </defs>
      <use xlink:href="#ArialMT-49"/>
      <use xlink:href="#ArialMT-6d" x="27.783203"/>
      <use xlink:href="#ArialMT-70" x="111.083984"/>
      <use xlink:href="#ArialMT-6f" x="166.699219"/>
      <use xlink:href="#ArialMT-72" x="222.314453"/>
      <use xlink:href="#ArialMT-74" x="255.615234"/>
      <use xlink:href="#ArialMT-61" x="283.398438"/>
      <use xlink:href="#ArialMT-74" x="339.013672"/>
      <use xlink:href="#ArialMT-69" x="366.796875"/>
      <use xlink:href="#ArialMT-6f" x="389.013672"/>
      <use xlink:href="#ArialMT-6e" x="444.628906"/>
      <use xlink:href="#ArialMT-20" x="500.244141"/>
      <use xlink:href="#ArialMT-4f" x="528.027344"/>
      <use xlink:href="#ArialMT-72" x="605.810547"/>
      <use xlink:href="#ArialMT-64" x="639.111328"/>
      <use xlink:href="#ArialMT-65" x="694.726562"/>
      <use xlink:href="#ArialMT-72" x="750.341797"/>
     </g>
    </g>
   </g>
   <g id="matplotlib.axis_4">
    <g id="ytick_7">
     <g id="line2d_29">
      <g>
       <use xlink:href="#md7646f0d70" x="61.203125" y="506.16" style="stroke: #000000; stroke-width: 0.8"/>
      </g>
     </g>
     <g id="text_26">
      <!-- 0 -->
      <g transform="translate(44.193438 512.602031) scale(0.18 -0.18)">
       <use xlink:href="#ArialMT-30"/>
      </g>
     </g>
    </g>
    <g id="ytick_8">
     <g id="line2d_30">
      <g>
       <use xlink:href="#md7646f0d70" x="61.203125" y="467.21678" style="stroke: #000000; stroke-width: 0.8"/>
      </g>
     </g>
     <g id="text_27">
      <!-- 1 -->
      <g transform="translate(44.193438 473.658812) scale(0.18 -0.18)">
       <use xlink:href="#ArialMT-31"/>
      </g>
     </g>
    </g>
    <g id="ytick_9">
     <g id="line2d_31">
      <g>
       <use xlink:href="#md7646f0d70" x="61.203125" y="428.273561" style="stroke: #000000; stroke-width: 0.8"/>
      </g>
     </g>
     <g id="text_28">
      <!-- 2 -->
      <g transform="translate(44.193438 434.715592) scale(0.18 -0.18)">
       <use xlink:href="#ArialMT-32"/>
      </g>
     </g>
    </g>
    <g id="ytick_10">
     <g id="line2d_32">
      <g>
       <use xlink:href="#md7646f0d70" x="61.203125" y="389.330341" style="stroke: #000000; stroke-width: 0.8"/>
      </g>
     </g>
     <g id="text_29">
      <!-- 3 -->
      <g transform="translate(44.193438 395.772373) scale(0.18 -0.18)">
       <use xlink:href="#ArialMT-33"/>
      </g>
     </g>
    </g>
    <g id="ytick_11">
     <g id="line2d_33">
      <g>
       <use xlink:href="#md7646f0d70" x="61.203125" y="350.387122" style="stroke: #000000; stroke-width: 0.8"/>
      </g>
     </g>
     <g id="text_30">
      <!-- 4 -->
      <g transform="translate(44.193438 356.829153) scale(0.18 -0.18)">
       <use xlink:href="#ArialMT-34"/>
      </g>
     </g>
    </g>
    <g id="ytick_12">
     <g id="line2d_34">
      <g>
       <use xlink:href="#md7646f0d70" x="61.203125" y="311.443902" style="stroke: #000000; stroke-width: 0.8"/>
      </g>
     </g>
     <g id="text_31">
      <!-- 5 -->
      <g transform="translate(44.193438 317.885934) scale(0.18 -0.18)">
       <use xlink:href="#ArialMT-35"/>
      </g>
     </g>
    </g>
    <g id="text_32">
     <!-- Sequence Number -->
     <g transform="translate(37.410938 467.166639) rotate(-90) scale(0.14 -0.14)">
      <use xlink:href="#ArialMT-53"/>
      <use xlink:href="#ArialMT-65" x="66.699219"/>
      <use xlink:href="#ArialMT-71" x="122.314453"/>
      <use xlink:href="#ArialMT-75" x="177.929688"/>
      <use xlink:href="#ArialMT-65" x="233.544922"/>
      <use xlink:href="#ArialMT-6e" x="289.160156"/>
      <use xlink:href="#ArialMT-63" x="344.775391"/>
      <use xlink:href="#ArialMT-65" x="394.775391"/>
      <use xlink:href="#ArialMT-20" x="450.390625"/>
      <use xlink:href="#ArialMT-4e" x="478.173828"/>
      <use xlink:href="#ArialMT-75" x="550.390625"/>
      <use xlink:href="#ArialMT-6d" x="606.005859"/>
      <use xlink:href="#ArialMT-62" x="689.306641"/>
      <use xlink:href="#ArialMT-65" x="744.921875"/>
      <use xlink:href="#ArialMT-72" x="800.537109"/>
     </g>
    </g>
   </g>
   <g id="line2d_35">
    <path d="M 56.181125 312.417483 
L 66.225125 310.470322 
" style="fill: none; stroke: #000000; stroke-width: 1.5; stroke-linecap: square"/>
   </g>
   <g id="line2d_36">
    <path d="M 1060.581125 312.417483 
L 1070.625125 310.470322 
" style="fill: none; stroke: #000000; stroke-width: 1.5; stroke-linecap: square"/>
   </g>
   <g id="patch_88">
    <path d="M 61.203125 506.16 
L 61.203125 311.443902 
" style="fill: none; stroke: #000000; stroke-width: 0.8; stroke-linejoin: miter; stroke-linecap: square"/>
   </g>
   <g id="patch_89">
    <path d="M 1065.603125 506.16 
L 1065.603125 311.443902 
" style="fill: none; stroke: #000000; stroke-width: 0.8; stroke-linejoin: miter; stroke-linecap: square"/>
   </g>
   <g id="patch_90">
    <path d="M 61.203125 506.16 
L 1065.603125 506.16 
" style="fill: none; stroke: #000000; stroke-width: 0.8; stroke-linejoin: miter; stroke-linecap: square"/>
   </g>
   <g id="patch_91">
    <path d="M 61.203125 311.443902 
L 1065.603125 311.443902 
" style="fill: none; stroke: #000000; stroke-width: 0.8; stroke-linejoin: miter; stroke-linecap: square"/>
   </g>
  </g>
 </g>
 <defs>
  <clipPath id="p6ea4b63571">
   <rect x="61.203125" y="7.2" width="1004.4" height="292.074146"/>
  </clipPath>
  <clipPath id="p34f8b8a110">
   <rect x="61.203125" y="311.443902" width="1004.4" height="194.716098"/>
  </clipPath>
 </defs>
</svg>
