<?xml version="1.0" encoding="utf-8" standalone="no"?>
<!DOCTYPE svg PUBLIC "-//W3C//DTD SVG 1.1//EN"
  "http://www.w3.org/Graphics/SVG/1.1/DTD/svg11.dtd">
<svg xmlns:xlink="http://www.w3.org/1999/xlink" width="1296pt" height="432pt" viewBox="0 0 1296 432" xmlns="http://www.w3.org/2000/svg" version="1.1">
 <metadata>
  <rdf:RDF xmlns:dc="http://purl.org/dc/elements/1.1/" xmlns:cc="http://creativecommons.org/ns#" xmlns:rdf="http://www.w3.org/1999/02/22-rdf-syntax-ns#">
   <cc:Work>
    <dc:type rdf:resource="http://purl.org/dc/dcmitype/StillImage"/>
    <dc:date>2025-11-19T23:13:00.215173</dc:date>
    <dc:format>image/svg+xml</dc:format>
    <dc:creator>
     <cc:Agent>
      <dc:title>Matplotlib v3.7.5, https://matplotlib.org/</dc:title>
     </cc:Agent>
    </dc:creator>
   </cc:Work>
  </rdf:RDF>
 </metadata>
 <defs>
  <style type="text/css">*{stroke-linejoin: round; stroke-linecap: butt}</style>
 </defs>
 <g id="figure_1">
  <g id="patch_1">
   <path d="M 0 432 
L 1296 432 
L 1296 0 
L 0 0 
z
" style="fill: #ffffff"/>
  </g>
  <g id="axes_1">
   <g id="patch_2">
    <path d="M 162 384.48 
L 1166.4 384.48 
L 1166.4 51.84 
L 162 51.84 
z
" style="fill: #ffffff"/>
   </g>
   <g id="matplotlib.axis_1">
    <g id="xtick_1">
     <g id="line2d_1">
      <path d="M 162 384.48 
L 162 51.84 
" clip-path="url(#p370964daa9)" style="fill: none; stroke: #808080; stroke-opacity: 0.5; stroke-width: 0.8; stroke-linecap: square"/>
     </g>
     <g id="line2d_2">
      <defs>
       <path id="mee7a8aca8b" d="M 0 0 
L 0 3.5 
" style="stroke: #000000; stroke-width: 0.8"/>
      </defs>
      <g>
       <use xlink:href="#mee7a8aca8b" x="162" y="384.48" style="stroke: #000000; stroke-width: 0.8"/>
      </g>
     </g>
     <g id="text_1">
      <!-- Sep. -->
      <g transform="translate(143.486719 404.583438) scale(0.18 -0.18)">
       <defs>
        <path id="ArialMT-53" d="M 288 1472 
L 859 1522 
Q 900 1178 1048 958 
Q 1197 738 1509 602 
Q 1822 466 2213 466 
Q 2559 466 2825 569 
Q 3091 672 3220 851 
Q 3350 1031 3350 1244 
Q 3350 1459 3225 1620 
Q 3100 1781 2813 1891 
Q 2628 1963 1997 2114 
Q 1366 2266 1113 2400 
Q 784 2572 623 2826 
Q 463 3081 463 3397 
Q 463 3744 659 4045 
Q 856 4347 1234 4503 
Q 1613 4659 2075 4659 
Q 2584 4659 2973 4495 
Q 3363 4331 3572 4012 
Q 3781 3694 3797 3291 
L 3216 3247 
Q 3169 3681 2898 3903 
Q 2628 4125 2100 4125 
Q 1550 4125 1298 3923 
Q 1047 3722 1047 3438 
Q 1047 3191 1225 3031 
Q 1400 2872 2139 2705 
Q 2878 2538 3153 2413 
Q 3553 2228 3743 1945 
Q 3934 1663 3934 1294 
Q 3934 928 3725 604 
Q 3516 281 3123 101 
Q 2731 -78 2241 -78 
Q 1619 -78 1198 103 
Q 778 284 539 648 
Q 300 1013 288 1472 
z
" transform="scale(0.015625)"/>
        <path id="ArialMT-65" d="M 2694 1069 
L 3275 997 
Q 3138 488 2766 206 
Q 2394 -75 1816 -75 
Q 1088 -75 661 373 
Q 234 822 234 1631 
Q 234 2469 665 2931 
Q 1097 3394 1784 3394 
Q 2450 3394 2872 2941 
Q 3294 2488 3294 1666 
Q 3294 1616 3291 1516 
L 816 1516 
Q 847 969 1125 678 
Q 1403 388 1819 388 
Q 2128 388 2347 550 
Q 2566 713 2694 1069 
z
M 847 1978 
L 2700 1978 
Q 2663 2397 2488 2606 
Q 2219 2931 1791 2931 
Q 1403 2931 1139 2672 
Q 875 2413 847 1978 
z
" transform="scale(0.015625)"/>
        <path id="ArialMT-70" d="M 422 -1272 
L 422 3319 
L 934 3319 
L 934 2888 
Q 1116 3141 1344 3267 
Q 1572 3394 1897 3394 
Q 2322 3394 2647 3175 
Q 2972 2956 3137 2557 
Q 3303 2159 3303 1684 
Q 3303 1175 3120 767 
Q 2938 359 2589 142 
Q 2241 -75 1856 -75 
Q 1575 -75 1351 44 
Q 1128 163 984 344 
L 984 -1272 
L 422 -1272 
z
M 931 1641 
Q 931 1000 1190 694 
Q 1450 388 1819 388 
Q 2194 388 2461 705 
Q 2728 1022 2728 1688 
Q 2728 2322 2467 2637 
Q 2206 2953 1844 2953 
Q 1484 2953 1207 2617 
Q 931 2281 931 1641 
z
" transform="scale(0.015625)"/>
        <path id="ArialMT-2e" d="M 581 0 
L 581 641 
L 1222 641 
L 1222 0 
L 581 0 
z
" transform="scale(0.015625)"/>
       </defs>
       <use xlink:href="#ArialMT-53"/>
       <use xlink:href="#ArialMT-65" x="66.699219"/>
       <use xlink:href="#ArialMT-70" x="122.314453"/>
       <use xlink:href="#ArialMT-2e" x="177.929688"/>
      </g>
      <!-- 2022 -->
      <g transform="translate(141.980625 423.621813) scale(0.18 -0.18)">
       <defs>
        <path id="ArialMT-32" d="M 3222 541 
L 3222 0 
L 194 0 
Q 188 203 259 391 
Q 375 700 629 1000 
Q 884 1300 1366 1694 
Q 2113 2306 2375 2664 
Q 2638 3022 2638 3341 
Q 2638 3675 2398 3904 
Q 2159 4134 1775 4134 
Q 1369 4134 1125 3890 
Q 881 3647 878 3216 
L 300 3275 
Q 359 3922 746 4261 
Q 1134 4600 1788 4600 
Q 2447 4600 2831 4234 
Q 3216 3869 3216 3328 
Q 3216 3053 3103 2787 
Q 2991 2522 2730 2228 
Q 2469 1934 1863 1422 
Q 1356 997 1212 845 
Q 1069 694 975 541 
L 3222 541 
z
" transform="scale(0.015625)"/>
        <path id="ArialMT-30" d="M 266 2259 
Q 266 3072 433 3567 
Q 600 4063 929 4331 
Q 1259 4600 1759 4600 
Q 2128 4600 2406 4451 
Q 2684 4303 2865 4023 
Q 3047 3744 3150 3342 
Q 3253 2941 3253 2259 
Q 3253 1453 3087 958 
Q 2922 463 2592 192 
Q 2263 -78 1759 -78 
Q 1097 -78 719 397 
Q 266 969 266 2259 
z
M 844 2259 
Q 844 1131 1108 757 
Q 1372 384 1759 384 
Q 2147 384 2411 759 
Q 2675 1134 2675 2259 
Q 2675 3391 2411 3762 
Q 2147 4134 1753 4134 
Q 1366 4134 1134 3806 
Q 844 3388 844 2259 
z
" transform="scale(0.015625)"/>
       </defs>
       <use xlink:href="#ArialMT-32"/>
       <use xlink:href="#ArialMT-30" x="55.615234"/>
       <use xlink:href="#ArialMT-32" x="111.230469"/>
       <use xlink:href="#ArialMT-32" x="166.845703"/>
      </g>
     </g>
    </g>
    <g id="xtick_2">
     <g id="line2d_3">
      <path d="M 412.682196 384.48 
L 412.682196 51.84 
" clip-path="url(#p370964daa9)" style="fill: none; stroke: #808080; stroke-opacity: 0.5; stroke-width: 0.8; stroke-linecap: square"/>
     </g>
     <g id="line2d_4">
      <g>
       <use xlink:href="#mee7a8aca8b" x="412.682196" y="384.48" style="stroke: #000000; stroke-width: 0.8"/>
      </g>
     </g>
     <g id="text_2">
      <!-- Mar. -->
      <g transform="translate(395.178603 404.364062) scale(0.18 -0.18)">
       <defs>
        <path id="ArialMT-4d" d="M 475 0 
L 475 4581 
L 1388 4581 
L 2472 1338 
Q 2622 884 2691 659 
Q 2769 909 2934 1394 
L 4031 4581 
L 4847 4581 
L 4847 0 
L 4263 0 
L 4263 3834 
L 2931 0 
L 2384 0 
L 1059 3900 
L 1059 0 
L 475 0 
z
" transform="scale(0.015625)"/>
        <path id="ArialMT-61" d="M 2588 409 
Q 2275 144 1986 34 
Q 1697 -75 1366 -75 
Q 819 -75 525 192 
Q 231 459 231 875 
Q 231 1119 342 1320 
Q 453 1522 633 1644 
Q 813 1766 1038 1828 
Q 1203 1872 1538 1913 
Q 2219 1994 2541 2106 
Q 2544 2222 2544 2253 
Q 2544 2597 2384 2738 
Q 2169 2928 1744 2928 
Q 1347 2928 1158 2789 
Q 969 2650 878 2297 
L 328 2372 
Q 403 2725 575 2942 
Q 747 3159 1072 3276 
Q 1397 3394 1825 3394 
Q 2250 3394 2515 3294 
Q 2781 3194 2906 3042 
Q 3031 2891 3081 2659 
Q 3109 2516 3109 2141 
L 3109 1391 
Q 3109 606 3145 398 
Q 3181 191 3288 0 
L 2700 0 
Q 2613 175 2588 409 
z
M 2541 1666 
Q 2234 1541 1622 1453 
Q 1275 1403 1131 1340 
Q 988 1278 909 1158 
Q 831 1038 831 891 
Q 831 666 1001 516 
Q 1172 366 1500 366 
Q 1825 366 2078 508 
Q 2331 650 2450 897 
Q 2541 1088 2541 1459 
L 2541 1666 
z
" transform="scale(0.015625)"/>
        <path id="ArialMT-72" d="M 416 0 
L 416 3319 
L 922 3319 
L 922 2816 
Q 1116 3169 1280 3281 
Q 1444 3394 1641 3394 
Q 1925 3394 2219 3213 
L 2025 2691 
Q 1819 2813 1613 2813 
Q 1428 2813 1281 2702 
Q 1134 2591 1072 2394 
Q 978 2094 978 1738 
L 978 0 
L 416 0 
z
" transform="scale(0.015625)"/>
       </defs>
       <use xlink:href="#ArialMT-4d"/>
       <use xlink:href="#ArialMT-61" x="83.300781"/>
       <use xlink:href="#ArialMT-72" x="138.916016"/>
       <use xlink:href="#ArialMT-2e" x="166.716797"/>
      </g>
      <!-- 2023 -->
      <g transform="translate(392.662821 423.402438) scale(0.18 -0.18)">
       <defs>
        <path id="ArialMT-33" d="M 269 1209 
L 831 1284 
Q 928 806 1161 595 
Q 1394 384 1728 384 
Q 2125 384 2398 659 
Q 2672 934 2672 1341 
Q 2672 1728 2419 1979 
Q 2166 2231 1775 2231 
Q 1616 2231 1378 2169 
L 1441 2663 
Q 1497 2656 1531 2656 
Q 1891 2656 2178 2843 
Q 2466 3031 2466 3422 
Q 2466 3731 2256 3934 
Q 2047 4138 1716 4138 
Q 1388 4138 1169 3931 
Q 950 3725 888 3313 
L 325 3413 
Q 428 3978 793 4289 
Q 1159 4600 1703 4600 
Q 2078 4600 2393 4439 
Q 2709 4278 2876 4000 
Q 3044 3722 3044 3409 
Q 3044 3113 2884 2869 
Q 2725 2625 2413 2481 
Q 2819 2388 3044 2092 
Q 3269 1797 3269 1353 
Q 3269 753 2831 336 
Q 2394 -81 1725 -81 
Q 1122 -81 723 278 
Q 325 638 269 1209 
z
" transform="scale(0.015625)"/>
       </defs>
       <use xlink:href="#ArialMT-32"/>
       <use xlink:href="#ArialMT-30" x="55.615234"/>
       <use xlink:href="#ArialMT-32" x="111.230469"/>
       <use xlink:href="#ArialMT-33" x="166.845703"/>
      </g>
     </g>
    </g>
    <g id="xtick_3">
     <g id="line2d_5">
      <path d="M 663.364393 384.48 
L 663.364393 51.84 
" clip-path="url(#p370964daa9)" style="fill: none; stroke: #808080; stroke-opacity: 0.5; stroke-width: 0.8; stroke-linecap: square"/>
     </g>
     <g id="line2d_6">
      <g>
       <use xlink:href="#mee7a8aca8b" x="663.364393" y="384.48" style="stroke: #000000; stroke-width: 0.8"/>
      </g>
     </g>
     <g id="text_3">
      <!-- Sep. -->
      <g transform="translate(644.851111 404.583438) scale(0.18 -0.18)">
       <use xlink:href="#ArialMT-53"/>
       <use xlink:href="#ArialMT-65" x="66.699219"/>
       <use xlink:href="#ArialMT-70" x="122.314453"/>
       <use xlink:href="#ArialMT-2e" x="177.929688"/>
      </g>
      <!-- 2023 -->
      <g transform="translate(643.345018 423.621813) scale(0.18 -0.18)">
       <use xlink:href="#ArialMT-32"/>
       <use xlink:href="#ArialMT-30" x="55.615234"/>
       <use xlink:href="#ArialMT-32" x="111.230469"/>
       <use xlink:href="#ArialMT-33" x="166.845703"/>
      </g>
     </g>
    </g>
    <g id="xtick_4">
     <g id="line2d_7">
      <path d="M 914.046589 384.48 
L 914.046589 51.84 
" clip-path="url(#p370964daa9)" style="fill: none; stroke: #808080; stroke-opacity: 0.5; stroke-width: 0.8; stroke-linecap: square"/>
     </g>
     <g id="line2d_8">
      <g>
       <use xlink:href="#mee7a8aca8b" x="914.046589" y="384.48" style="stroke: #000000; stroke-width: 0.8"/>
      </g>
     </g>
     <g id="text_4">
      <!-- Mar. -->
      <g transform="translate(896.542995 404.364062) scale(0.18 -0.18)">
       <use xlink:href="#ArialMT-4d"/>
       <use xlink:href="#ArialMT-61" x="83.300781"/>
       <use xlink:href="#ArialMT-72" x="138.916016"/>
       <use xlink:href="#ArialMT-2e" x="166.716797"/>
      </g>
      <!-- 2024 -->
      <g transform="translate(894.027214 423.402438) scale(0.18 -0.18)">
       <defs>
        <path id="ArialMT-34" d="M 2069 0 
L 2069 1097 
L 81 1097 
L 81 1613 
L 2172 4581 
L 2631 4581 
L 2631 1613 
L 3250 1613 
L 3250 1097 
L 2631 1097 
L 2631 0 
L 2069 0 
z
M 2069 1613 
L 2069 3678 
L 634 1613 
L 2069 1613 
z
" transform="scale(0.015625)"/>
       </defs>
       <use xlink:href="#ArialMT-32"/>
       <use xlink:href="#ArialMT-30" x="55.615234"/>
       <use xlink:href="#ArialMT-32" x="111.230469"/>
       <use xlink:href="#ArialMT-34" x="166.845703"/>
      </g>
     </g>
    </g>
    <g id="xtick_5">
     <g id="line2d_9">
      <path d="M 1164.728785 384.48 
L 1164.728785 51.84 
" clip-path="url(#p370964daa9)" style="fill: none; stroke: #808080; stroke-opacity: 0.5; stroke-width: 0.8; stroke-linecap: square"/>
     </g>
     <g id="line2d_10">
      <g>
       <use xlink:href="#mee7a8aca8b" x="1164.728785" y="384.48" style="stroke: #000000; stroke-width: 0.8"/>
      </g>
     </g>
     <g id="text_5">
      <!-- Sep. -->
      <g transform="translate(1146.215504 404.583438) scale(0.18 -0.18)">
       <use xlink:href="#ArialMT-53"/>
       <use xlink:href="#ArialMT-65" x="66.699219"/>
       <use xlink:href="#ArialMT-70" x="122.314453"/>
       <use xlink:href="#ArialMT-2e" x="177.929688"/>
      </g>
      <!-- 2024 -->
      <g transform="translate(1144.70941 423.621813) scale(0.18 -0.18)">
       <use xlink:href="#ArialMT-32"/>
       <use xlink:href="#ArialMT-30" x="55.615234"/>
       <use xlink:href="#ArialMT-32" x="111.230469"/>
       <use xlink:href="#ArialMT-34" x="166.845703"/>
      </g>
     </g>
    </g>
   </g>
   <g id="matplotlib.axis_2">
    <g id="ytick_1">
     <g id="line2d_11">
      <defs>
       <path id="md0e6efa0ad" d="M 0 0 
L -3.5 0 
" style="stroke: #000000; stroke-width: 0.8"/>
      </defs>
      <g>
       <use xlink:href="#md0e6efa0ad" x="162" y="384.48" style="stroke: #000000; stroke-width: 0.8"/>
      </g>
     </g>
     <g id="text_6">
      <!-- 0 -->
      <g transform="translate(144.990312 390.922031) scale(0.18 -0.18)">
       <use xlink:href="#ArialMT-30"/>
      </g>
     </g>
    </g>
    <g id="ytick_2">
     <g id="line2d_12">
      <g>
       <use xlink:href="#md0e6efa0ad" x="162" y="233.28" style="stroke: #000000; stroke-width: 0.8"/>
      </g>
     </g>
     <g id="text_7">
      <!-- 5 -->
      <g transform="translate(144.990312 239.722031) scale(0.18 -0.18)">
       <defs>
        <path id="ArialMT-35" d="M 266 1200 
L 856 1250 
Q 922 819 1161 601 
Q 1400 384 1738 384 
Q 2144 384 2425 690 
Q 2706 997 2706 1503 
Q 2706 1984 2436 2262 
Q 2166 2541 1728 2541 
Q 1456 2541 1237 2417 
Q 1019 2294 894 2097 
L 366 2166 
L 809 4519 
L 3088 4519 
L 3088 3981 
L 1259 3981 
L 1013 2750 
Q 1425 3038 1878 3038 
Q 2478 3038 2890 2622 
Q 3303 2206 3303 1553 
Q 3303 931 2941 478 
Q 2500 -78 1738 -78 
Q 1113 -78 717 272 
Q 322 622 266 1200 
z
" transform="scale(0.015625)"/>
       </defs>
       <use xlink:href="#ArialMT-35"/>
      </g>
     </g>
    </g>
    <g id="ytick_3">
     <g id="line2d_13">
      <g>
       <use xlink:href="#md0e6efa0ad" x="162" y="82.08" style="stroke: #000000; stroke-width: 0.8"/>
      </g>
     </g>
     <g id="text_8">
      <!-- 10 -->
      <g transform="translate(134.980625 88.522031) scale(0.18 -0.18)">
       <defs>
        <path id="ArialMT-31" d="M 2384 0 
L 1822 0 
L 1822 3584 
Q 1619 3391 1289 3197 
Q 959 3003 697 2906 
L 697 3450 
Q 1169 3672 1522 3987 
Q 1875 4303 2022 4600 
L 2384 4600 
L 2384 0 
z
" transform="scale(0.015625)"/>
       </defs>
       <use xlink:href="#ArialMT-31"/>
       <use xlink:href="#ArialMT-30" x="55.615234"/>
      </g>
     </g>
    </g>
    <g id="text_9">
     <!-- Introductions -->
     <g transform="translate(127.800625 263.96125) rotate(-90) scale(0.16 -0.16)">
      <defs>
       <path id="ArialMT-49" d="M 597 0 
L 597 4581 
L 1203 4581 
L 1203 0 
L 597 0 
z
" transform="scale(0.015625)"/>
       <path id="ArialMT-6e" d="M 422 0 
L 422 3319 
L 928 3319 
L 928 2847 
Q 1294 3394 1984 3394 
Q 2284 3394 2536 3286 
Q 2788 3178 2913 3003 
Q 3038 2828 3088 2588 
Q 3119 2431 3119 2041 
L 3119 0 
L 2556 0 
L 2556 2019 
Q 2556 2363 2490 2533 
Q 2425 2703 2258 2804 
Q 2091 2906 1866 2906 
Q 1506 2906 1245 2678 
Q 984 2450 984 1813 
L 984 0 
L 422 0 
z
" transform="scale(0.015625)"/>
       <path id="ArialMT-74" d="M 1650 503 
L 1731 6 
Q 1494 -44 1306 -44 
Q 1000 -44 831 53 
Q 663 150 594 308 
Q 525 466 525 972 
L 525 2881 
L 113 2881 
L 113 3319 
L 525 3319 
L 525 4141 
L 1084 4478 
L 1084 3319 
L 1650 3319 
L 1650 2881 
L 1084 2881 
L 1084 941 
Q 1084 700 1114 631 
Q 1144 563 1211 522 
Q 1278 481 1403 481 
Q 1497 481 1650 503 
z
" transform="scale(0.015625)"/>
       <path id="ArialMT-6f" d="M 213 1659 
Q 213 2581 725 3025 
Q 1153 3394 1769 3394 
Q 2453 3394 2887 2945 
Q 3322 2497 3322 1706 
Q 3322 1066 3130 698 
Q 2938 331 2570 128 
Q 2203 -75 1769 -75 
Q 1072 -75 642 372 
Q 213 819 213 1659 
z
M 791 1659 
Q 791 1022 1069 705 
Q 1347 388 1769 388 
Q 2188 388 2466 706 
Q 2744 1025 2744 1678 
Q 2744 2294 2464 2611 
Q 2184 2928 1769 2928 
Q 1347 2928 1069 2612 
Q 791 2297 791 1659 
z
" transform="scale(0.015625)"/>
       <path id="ArialMT-64" d="M 2575 0 
L 2575 419 
Q 2259 -75 1647 -75 
Q 1250 -75 917 144 
Q 584 363 401 755 
Q 219 1147 219 1656 
Q 219 2153 384 2558 
Q 550 2963 881 3178 
Q 1213 3394 1622 3394 
Q 1922 3394 2156 3267 
Q 2391 3141 2538 2938 
L 2538 4581 
L 3097 4581 
L 3097 0 
L 2575 0 
z
M 797 1656 
Q 797 1019 1065 703 
Q 1334 388 1700 388 
Q 2069 388 2326 689 
Q 2584 991 2584 1609 
Q 2584 2291 2321 2609 
Q 2059 2928 1675 2928 
Q 1300 2928 1048 2622 
Q 797 2316 797 1656 
z
" transform="scale(0.015625)"/>
       <path id="ArialMT-75" d="M 2597 0 
L 2597 488 
Q 2209 -75 1544 -75 
Q 1250 -75 995 37 
Q 741 150 617 320 
Q 494 491 444 738 
Q 409 903 409 1263 
L 409 3319 
L 972 3319 
L 972 1478 
Q 972 1038 1006 884 
Q 1059 663 1231 536 
Q 1403 409 1656 409 
Q 1909 409 2131 539 
Q 2353 669 2445 892 
Q 2538 1116 2538 1541 
L 2538 3319 
L 3100 3319 
L 3100 0 
L 2597 0 
z
" transform="scale(0.015625)"/>
       <path id="ArialMT-63" d="M 2588 1216 
L 3141 1144 
Q 3050 572 2676 248 
Q 2303 -75 1759 -75 
Q 1078 -75 664 370 
Q 250 816 250 1647 
Q 250 2184 428 2587 
Q 606 2991 970 3192 
Q 1334 3394 1763 3394 
Q 2303 3394 2647 3120 
Q 2991 2847 3088 2344 
L 2541 2259 
Q 2463 2594 2264 2762 
Q 2066 2931 1784 2931 
Q 1359 2931 1093 2626 
Q 828 2322 828 1663 
Q 828 994 1084 691 
Q 1341 388 1753 388 
Q 2084 388 2306 591 
Q 2528 794 2588 1216 
z
" transform="scale(0.015625)"/>
       <path id="ArialMT-69" d="M 425 3934 
L 425 4581 
L 988 4581 
L 988 3934 
L 425 3934 
z
M 425 0 
L 425 3319 
L 988 3319 
L 988 0 
L 425 0 
z
" transform="scale(0.015625)"/>
       <path id="ArialMT-73" d="M 197 991 
L 753 1078 
Q 800 744 1014 566 
Q 1228 388 1613 388 
Q 2000 388 2187 545 
Q 2375 703 2375 916 
Q 2375 1106 2209 1216 
Q 2094 1291 1634 1406 
Q 1016 1563 777 1677 
Q 538 1791 414 1992 
Q 291 2194 291 2438 
Q 291 2659 392 2848 
Q 494 3038 669 3163 
Q 800 3259 1026 3326 
Q 1253 3394 1513 3394 
Q 1903 3394 2198 3281 
Q 2494 3169 2634 2976 
Q 2775 2784 2828 2463 
L 2278 2388 
Q 2241 2644 2061 2787 
Q 1881 2931 1553 2931 
Q 1166 2931 1000 2803 
Q 834 2675 834 2503 
Q 834 2394 903 2306 
Q 972 2216 1119 2156 
Q 1203 2125 1616 2013 
Q 2213 1853 2448 1751 
Q 2684 1650 2818 1456 
Q 2953 1263 2953 975 
Q 2953 694 2789 445 
Q 2625 197 2315 61 
Q 2006 -75 1616 -75 
Q 969 -75 630 194 
Q 291 463 197 991 
z
" transform="scale(0.015625)"/>
      </defs>
      <use xlink:href="#ArialMT-49"/>
      <use xlink:href="#ArialMT-6e" x="27.783203"/>
      <use xlink:href="#ArialMT-74" x="83.398438"/>
      <use xlink:href="#ArialMT-72" x="111.181641"/>
      <use xlink:href="#ArialMT-6f" x="144.482422"/>
      <use xlink:href="#ArialMT-64" x="200.097656"/>
      <use xlink:href="#ArialMT-75" x="255.712891"/>
      <use xlink:href="#ArialMT-63" x="311.328125"/>
      <use xlink:href="#ArialMT-74" x="361.328125"/>
      <use xlink:href="#ArialMT-69" x="389.111328"/>
      <use xlink:href="#ArialMT-6f" x="411.328125"/>
      <use xlink:href="#ArialMT-6e" x="466.943359"/>
      <use xlink:href="#ArialMT-73" x="522.558594"/>
     </g>
    </g>
   </g>
   <g id="LineCollection_1">
    <path d="M 257.420467 369.36 
L 504.309434 369.36 
" clip-path="url(#p370964daa9)" style="fill: none; stroke: #881400; stroke-opacity: 0.6; stroke-width: 2"/>
   </g>
   <g id="LineCollection_2">
    <path d="M 257.420467 372.384 
L 257.420467 366.336 
" clip-path="url(#p370964daa9)" style="fill: none; stroke: #881400; stroke-width: 2"/>
    <path d="M 504.309434 372.384 
L 504.309434 366.336 
" clip-path="url(#p370964daa9)" style="fill: none; stroke: #881400; stroke-width: 2"/>
   </g>
   <g id="LineCollection_3">
    <path d="M 492.942633 339.12 
L 534.474825 339.12 
" clip-path="url(#p370964daa9)" style="fill: none; stroke: #881400; stroke-opacity: 0.6; stroke-width: 2"/>
   </g>
   <g id="LineCollection_4">
    <path d="M 492.942633 342.144 
L 492.942633 336.096 
" clip-path="url(#p370964daa9)" style="fill: none; stroke: #881400; stroke-width: 2"/>
    <path d="M 534.474825 342.144 
L 534.474825 336.096 
" clip-path="url(#p370964daa9)" style="fill: none; stroke: #881400; stroke-width: 2"/>
   </g>
   <g id="LineCollection_5">
    <path d="M 533.904293 308.88 
L 548.36919 308.88 
" clip-path="url(#p370964daa9)" style="fill: none; stroke: #881400; stroke-opacity: 0.6; stroke-width: 2"/>
   </g>
   <g id="LineCollection_6">
    <path d="M 533.904293 311.904 
L 533.904293 305.856 
" clip-path="url(#p370964daa9)" style="fill: none; stroke: #881400; stroke-width: 2"/>
    <path d="M 548.36919 311.904 
L 548.36919 305.856 
" clip-path="url(#p370964daa9)" style="fill: none; stroke: #881400; stroke-width: 2"/>
   </g>
   <g id="LineCollection_7">
    <path d="M 534.109089 278.64 
L 563.320448 278.64 
" clip-path="url(#p370964daa9)" style="fill: none; stroke: #881400; stroke-opacity: 0.6; stroke-width: 2"/>
   </g>
   <g id="LineCollection_8">
    <path d="M 534.109089 281.664 
L 534.109089 275.616 
" clip-path="url(#p370964daa9)" style="fill: none; stroke: #881400; stroke-width: 2"/>
    <path d="M 563.320448 281.664 
L 563.320448 275.616 
" clip-path="url(#p370964daa9)" style="fill: none; stroke: #881400; stroke-width: 2"/>
   </g>
   <g id="LineCollection_9">
    <path d="M 562.564991 248.4 
L 576.448484 248.4 
" clip-path="url(#p370964daa9)" style="fill: none; stroke: #881400; stroke-opacity: 0.6; stroke-width: 2"/>
   </g>
   <g id="LineCollection_10">
    <path d="M 562.564991 251.424 
L 562.564991 245.376 
" clip-path="url(#p370964daa9)" style="fill: none; stroke: #881400; stroke-width: 2"/>
    <path d="M 576.448484 251.424 
L 576.448484 245.376 
" clip-path="url(#p370964daa9)" style="fill: none; stroke: #881400; stroke-width: 2"/>
   </g>
   <g id="LineCollection_11">
    <path d="M 564.411766 218.16 
L 589.418868 218.16 
" clip-path="url(#p370964daa9)" style="fill: none; stroke: #881400; stroke-opacity: 0.6; stroke-width: 2"/>
   </g>
   <g id="LineCollection_12">
    <path d="M 564.411766 221.184 
L 564.411766 215.136 
" clip-path="url(#p370964daa9)" style="fill: none; stroke: #881400; stroke-width: 2"/>
    <path d="M 589.418868 221.184 
L 589.418868 215.136 
" clip-path="url(#p370964daa9)" style="fill: none; stroke: #881400; stroke-width: 2"/>
   </g>
   <g id="LineCollection_13">
    <path d="M 587.983377 187.92 
L 601.59603 187.92 
" clip-path="url(#p370964daa9)" style="fill: none; stroke: #881400; stroke-opacity: 0.6; stroke-width: 2"/>
   </g>
   <g id="LineCollection_14">
    <path d="M 587.983377 190.944 
L 587.983377 184.896 
" clip-path="url(#p370964daa9)" style="fill: none; stroke: #881400; stroke-width: 2"/>
    <path d="M 601.59603 190.944 
L 601.59603 184.896 
" clip-path="url(#p370964daa9)" style="fill: none; stroke: #881400; stroke-width: 2"/>
   </g>
   <g id="LineCollection_15">
    <path d="M 596.39033 157.68 
L 696.559752 157.68 
" clip-path="url(#p370964daa9)" style="fill: none; stroke: #881400; stroke-opacity: 0.6; stroke-width: 2"/>
   </g>
   <g id="LineCollection_16">
    <path d="M 596.39033 160.704 
L 596.39033 154.656 
" clip-path="url(#p370964daa9)" style="fill: none; stroke: #881400; stroke-width: 2"/>
    <path d="M 696.559752 160.704 
L 696.559752 154.656 
" clip-path="url(#p370964daa9)" style="fill: none; stroke: #881400; stroke-width: 2"/>
   </g>
   <g id="LineCollection_17">
    <path d="M 691.386507 127.44 
L 943.777825 127.44 
" clip-path="url(#p370964daa9)" style="fill: none; stroke: #881400; stroke-opacity: 0.6; stroke-width: 2"/>
   </g>
   <g id="LineCollection_18">
    <path d="M 691.386507 130.464 
L 691.386507 124.416 
" clip-path="url(#p370964daa9)" style="fill: none; stroke: #881400; stroke-width: 2"/>
    <path d="M 943.777825 130.464 
L 943.777825 124.416 
" clip-path="url(#p370964daa9)" style="fill: none; stroke: #881400; stroke-width: 2"/>
   </g>
   <g id="LineCollection_19">
    <path d="M 934.936773 97.2 
L 943.941411 97.2 
" clip-path="url(#p370964daa9)" style="fill: none; stroke: #881400; stroke-opacity: 0.6; stroke-width: 2"/>
   </g>
   <g id="LineCollection_20">
    <path d="M 934.936773 100.224 
L 934.936773 94.176 
" clip-path="url(#p370964daa9)" style="fill: none; stroke: #881400; stroke-width: 2"/>
    <path d="M 943.941411 100.224 
L 943.941411 94.176 
" clip-path="url(#p370964daa9)" style="fill: none; stroke: #881400; stroke-width: 2"/>
   </g>
   <g id="line2d_14">
    <path d="M 401.235521 384.48 
L 401.235521 354.24 
L 504.259034 354.24 
L 504.259034 324 
L 534.468214 324 
L 534.468214 293.76 
L 548.276098 293.76 
L 548.276098 263.52 
L 563.320448 263.52 
L 563.320448 233.28 
L 576.032599 233.28 
L 576.032599 203.04 
L 589.418868 203.04 
L 589.418868 172.8 
L 601.581086 172.8 
L 601.581086 142.56 
L 696.559752 142.56 
L 696.559752 112.32 
L 940.758626 112.32 
" clip-path="url(#p370964daa9)" style="fill: none; stroke: #881400; stroke-opacity: 0.8; stroke-width: 2; stroke-linecap: square"/>
   </g>
   <g id="line2d_15">
    <path d="M 940.758626 112.32 
L 940.758626 82.08 
" clip-path="url(#p370964daa9)" style="fill: none; stroke: #881400; stroke-opacity: 0.8; stroke-width: 2; stroke-linecap: square"/>
   </g>
   <g id="line2d_16">
    <path d="M 551.644839 382.968 
L 551.644839 352.728 
L 577.743259 352.728 
L 577.743259 322.488 
L 587.358466 322.488 
L 587.358466 292.248 
L 587.358466 292.248 
L 587.358466 262.008 
L 596.973674 262.008 
L 596.973674 231.768 
L 617.57769 231.768 
L 617.57769 201.528 
L 625.819297 201.528 
L 625.819297 171.288 
L 628.566499 171.288 
L 628.566499 141.048 
L 673.895334 141.048 
L 673.895334 110.808 
L 750.816995 110.808 
L 750.816995 80.568 
L 981.169144 80.568 
" clip-path="url(#p370964daa9)" style="fill: none; stroke: #074166; stroke-opacity: 0.7; stroke-width: 2; stroke-linecap: square"/>
   </g>
   <g id="line2d_17">
    <path d="M 548.897636 381.456 
L 548.897636 351.216 
L 564.007248 351.216 
L 564.007248 320.976 
L 572.248855 320.976 
L 572.248855 290.736 
L 573.622456 290.736 
L 573.622456 260.496 
L 577.743259 260.496 
L 577.743259 230.256 
L 605.21528 230.256 
L 605.21528 200.016 
L 609.336084 200.016 
L 609.336084 169.776 
L 621.698493 169.776 
L 621.698493 139.536 
L 671.148132 139.536 
L 671.148132 109.296 
L 746.696191 109.296 
L 746.696191 79.056 
L 974.319904 79.056 
" clip-path="url(#p370964daa9)" style="fill: none; stroke: #59b78f; stroke-opacity: 0.7; stroke-width: 2; stroke-linecap: square"/>
   </g>
   <g id="patch_3">
    <path d="M 162 384.48 
L 162 51.84 
" style="fill: none; stroke: #000000; stroke-width: 0.8; stroke-linejoin: miter; stroke-linecap: square"/>
   </g>
   <g id="patch_4">
    <path d="M 162 384.48 
L 1166.4 384.48 
" style="fill: none; stroke: #000000; stroke-width: 0.8; stroke-linejoin: miter; stroke-linecap: square"/>
   </g>
   <g id="patch_5">
    <path d="M 162 51.84 
L 1166.4 51.84 
" style="fill: none; stroke: #000000; stroke-width: 0.8; stroke-linejoin: miter; stroke-linecap: square"/>
   </g>
   <g id="PathCollection_1">
    <defs>
     <path id="mff4dba353a" d="M 0 2.236068 
C 0.593012 2.236068 1.161816 2.000462 1.581139 1.581139 
C 2.000462 1.161816 2.236068 0.593012 2.236068 0 
C 2.236068 -0.593012 2.000462 -1.161816 1.581139 -1.581139 
C 1.161816 -2.000462 0.593012 -2.236068 0 -2.236068 
C -0.593012 -2.236068 -1.161816 -2.000462 -1.581139 -1.581139 
C -2.000462 -1.161816 -2.236068 -0.593012 -2.236068 0 
C -2.236068 0.593012 -2.000462 1.161816 -1.581139 1.581139 
C -1.161816 2.000462 -0.593012 2.236068 0 2.236068 
z
" style="stroke: #881400"/>
    </defs>
    <g clip-path="url(#p370964daa9)">
     <use xlink:href="#mff4dba353a" x="401.235521" y="369.36" style="fill: #881400; stroke: #881400"/>
    </g>
   </g>
   <g id="PathCollection_2">
    <g clip-path="url(#p370964daa9)">
     <use xlink:href="#mff4dba353a" x="504.259034" y="339.12" style="fill: #881400; stroke: #881400"/>
    </g>
   </g>
   <g id="PathCollection_3">
    <g clip-path="url(#p370964daa9)">
     <use xlink:href="#mff4dba353a" x="534.468214" y="308.88" style="fill: #881400; stroke: #881400"/>
    </g>
   </g>
   <g id="PathCollection_4">
    <g clip-path="url(#p370964daa9)">
     <use xlink:href="#mff4dba353a" x="548.276098" y="278.64" style="fill: #881400; stroke: #881400"/>
    </g>
   </g>
   <g id="PathCollection_5">
    <g clip-path="url(#p370964daa9)">
     <use xlink:href="#mff4dba353a" x="563.320448" y="248.4" style="fill: #881400; stroke: #881400"/>
    </g>
   </g>
   <g id="PathCollection_6">
    <g clip-path="url(#p370964daa9)">
     <use xlink:href="#mff4dba353a" x="576.032599" y="218.16" style="fill: #881400; stroke: #881400"/>
    </g>
   </g>
   <g id="PathCollection_7">
    <g clip-path="url(#p370964daa9)">
     <use xlink:href="#mff4dba353a" x="589.418868" y="187.92" style="fill: #881400; stroke: #881400"/>
    </g>
   </g>
   <g id="PathCollection_8">
    <g clip-path="url(#p370964daa9)">
     <use xlink:href="#mff4dba353a" x="601.581086" y="157.68" style="fill: #881400; stroke: #881400"/>
    </g>
   </g>
   <g id="PathCollection_9">
    <g clip-path="url(#p370964daa9)">
     <use xlink:href="#mff4dba353a" x="696.559752" y="127.44" style="fill: #881400; stroke: #881400"/>
    </g>
   </g>
   <g id="PathCollection_10">
    <g clip-path="url(#p370964daa9)">
     <use xlink:href="#mff4dba353a" x="940.758626" y="97.2" style="fill: #881400; stroke: #881400"/>
    </g>
   </g>
   <g id="legend_1">
    <g id="patch_6">
     <path d="M 973.150313 375.48 
L 1153.8 375.48 
Q 1157.4 375.48 1157.4 371.88 
L 1157.4 297.295313 
Q 1157.4 293.695312 1153.8 293.695312 
L 973.150313 293.695312 
Q 969.550313 293.695312 969.550313 297.295313 
L 969.550313 371.88 
Q 969.550313 375.48 973.150313 375.48 
z
" style="fill: #ffffff; opacity: 0.8; stroke: #cccccc; stroke-linejoin: miter"/>
    </g>
    <g id="line2d_18">
     <path d="M 976.750313 307.479375 
L 994.750313 307.479375 
L 1012.750313 307.479375 
" style="fill: none; stroke: #074166; stroke-opacity: 0.7; stroke-width: 2; stroke-linecap: square"/>
    </g>
    <g id="text_10">
     <!-- Collection Date -->
     <g transform="translate(1027.150313 313.779375) scale(0.18 -0.18)">
      <defs>
       <path id="ArialMT-43" d="M 3763 1606 
L 4369 1453 
Q 4178 706 3683 314 
Q 3188 -78 2472 -78 
Q 1731 -78 1267 223 
Q 803 525 561 1097 
Q 319 1669 319 2325 
Q 319 3041 592 3573 
Q 866 4106 1370 4382 
Q 1875 4659 2481 4659 
Q 3169 4659 3637 4309 
Q 4106 3959 4291 3325 
L 3694 3184 
Q 3534 3684 3231 3912 
Q 2928 4141 2469 4141 
Q 1941 4141 1586 3887 
Q 1231 3634 1087 3207 
Q 944 2781 944 2328 
Q 944 1744 1114 1308 
Q 1284 872 1643 656 
Q 2003 441 2422 441 
Q 2931 441 3284 734 
Q 3638 1028 3763 1606 
z
" transform="scale(0.015625)"/>
       <path id="ArialMT-6c" d="M 409 0 
L 409 4581 
L 972 4581 
L 972 0 
L 409 0 
z
" transform="scale(0.015625)"/>
       <path id="ArialMT-20" transform="scale(0.015625)"/>
       <path id="ArialMT-44" d="M 494 0 
L 494 4581 
L 2072 4581 
Q 2606 4581 2888 4516 
Q 3281 4425 3559 4188 
Q 3922 3881 4101 3404 
Q 4281 2928 4281 2316 
Q 4281 1794 4159 1391 
Q 4038 988 3847 723 
Q 3656 459 3429 307 
Q 3203 156 2883 78 
Q 2563 0 2147 0 
L 494 0 
z
M 1100 541 
L 2078 541 
Q 2531 541 2789 625 
Q 3047 709 3200 863 
Q 3416 1078 3536 1442 
Q 3656 1806 3656 2325 
Q 3656 3044 3420 3430 
Q 3184 3816 2847 3947 
Q 2603 4041 2063 4041 
L 1100 4041 
L 1100 541 
z
" transform="scale(0.015625)"/>
      </defs>
      <use xlink:href="#ArialMT-43"/>
      <use xlink:href="#ArialMT-6f" x="72.216797"/>
      <use xlink:href="#ArialMT-6c" x="127.832031"/>
      <use xlink:href="#ArialMT-6c" x="150.048828"/>
      <use xlink:href="#ArialMT-65" x="172.265625"/>
      <use xlink:href="#ArialMT-63" x="227.880859"/>
      <use xlink:href="#ArialMT-74" x="277.880859"/>
      <use xlink:href="#ArialMT-69" x="305.664062"/>
      <use xlink:href="#ArialMT-6f" x="327.880859"/>
      <use xlink:href="#ArialMT-6e" x="383.496094"/>
      <use xlink:href="#ArialMT-20" x="439.111328"/>
      <use xlink:href="#ArialMT-44" x="466.894531"/>
      <use xlink:href="#ArialMT-61" x="539.111328"/>
      <use xlink:href="#ArialMT-74" x="594.726562"/>
      <use xlink:href="#ArialMT-65" x="622.509766"/>
     </g>
    </g>
    <g id="line2d_19">
     <path d="M 976.750313 332.940937 
L 994.750313 332.940937 
L 1012.750313 332.940937 
" style="fill: none; stroke: #59b78f; stroke-opacity: 0.7; stroke-width: 2; stroke-linecap: square"/>
    </g>
    <g id="text_11">
     <!-- Onset Date -->
     <g transform="translate(1027.150313 339.240937) scale(0.18 -0.18)">
      <defs>
       <path id="ArialMT-4f" d="M 309 2231 
Q 309 3372 921 4017 
Q 1534 4663 2503 4663 
Q 3138 4663 3647 4359 
Q 4156 4056 4423 3514 
Q 4691 2972 4691 2284 
Q 4691 1588 4409 1038 
Q 4128 488 3612 205 
Q 3097 -78 2500 -78 
Q 1853 -78 1343 234 
Q 834 547 571 1087 
Q 309 1628 309 2231 
z
M 934 2222 
Q 934 1394 1379 917 
Q 1825 441 2497 441 
Q 3181 441 3623 922 
Q 4066 1403 4066 2288 
Q 4066 2847 3877 3264 
Q 3688 3681 3323 3911 
Q 2959 4141 2506 4141 
Q 1863 4141 1398 3698 
Q 934 3256 934 2222 
z
" transform="scale(0.015625)"/>
      </defs>
      <use xlink:href="#ArialMT-4f"/>
      <use xlink:href="#ArialMT-6e" x="77.783203"/>
      <use xlink:href="#ArialMT-73" x="133.398438"/>
      <use xlink:href="#ArialMT-65" x="183.398438"/>
      <use xlink:href="#ArialMT-74" x="239.013672"/>
      <use xlink:href="#ArialMT-20" x="266.796875"/>
      <use xlink:href="#ArialMT-44" x="294.580078"/>
      <use xlink:href="#ArialMT-61" x="366.796875"/>
      <use xlink:href="#ArialMT-74" x="422.412109"/>
      <use xlink:href="#ArialMT-65" x="450.195312"/>
     </g>
    </g>
    <g id="line2d_20">
     <path d="M 976.750313 358.4025 
L 994.750313 358.4025 
L 1012.750313 358.4025 
" style="fill: none; stroke: #881400; stroke-opacity: 0.8; stroke-width: 2; stroke-linecap: square"/>
     <defs>
      <path id="mcb1fc1c4e7" d="M 0 5 
L 0 -5 
" style="stroke: #881400; stroke-opacity: 0.8; stroke-width: 2"/>
     </defs>
     <g>
      <use xlink:href="#mcb1fc1c4e7" x="994.750313" y="358.4025" style="fill: #881400; fill-opacity: 0.8; stroke: #881400; stroke-opacity: 0.8; stroke-width: 2"/>
     </g>
    </g>
    <g id="text_12">
     <!-- Estimated Date -->
     <g transform="translate(1027.150313 364.7025) scale(0.18 -0.18)">
      <defs>
       <path id="ArialMT-45" d="M 506 0 
L 506 4581 
L 3819 4581 
L 3819 4041 
L 1113 4041 
L 1113 2638 
L 3647 2638 
L 3647 2100 
L 1113 2100 
L 1113 541 
L 3925 541 
L 3925 0 
L 506 0 
z
" transform="scale(0.015625)"/>
       <path id="ArialMT-6d" d="M 422 0 
L 422 3319 
L 925 3319 
L 925 2853 
Q 1081 3097 1340 3245 
Q 1600 3394 1931 3394 
Q 2300 3394 2536 3241 
Q 2772 3088 2869 2813 
Q 3263 3394 3894 3394 
Q 4388 3394 4653 3120 
Q 4919 2847 4919 2278 
L 4919 0 
L 4359 0 
L 4359 2091 
Q 4359 2428 4304 2576 
Q 4250 2725 4106 2815 
Q 3963 2906 3769 2906 
Q 3419 2906 3187 2673 
Q 2956 2441 2956 1928 
L 2956 0 
L 2394 0 
L 2394 2156 
Q 2394 2531 2256 2718 
Q 2119 2906 1806 2906 
Q 1569 2906 1367 2781 
Q 1166 2656 1075 2415 
Q 984 2175 984 1722 
L 984 0 
L 422 0 
z
" transform="scale(0.015625)"/>
      </defs>
      <use xlink:href="#ArialMT-45"/>
      <use xlink:href="#ArialMT-73" x="66.699219"/>
      <use xlink:href="#ArialMT-74" x="116.699219"/>
      <use xlink:href="#ArialMT-69" x="144.482422"/>
      <use xlink:href="#ArialMT-6d" x="166.699219"/>
      <use xlink:href="#ArialMT-61" x="250"/>
      <use xlink:href="#ArialMT-74" x="305.615234"/>
      <use xlink:href="#ArialMT-65" x="333.398438"/>
      <use xlink:href="#ArialMT-64" x="389.013672"/>
      <use xlink:href="#ArialMT-20" x="444.628906"/>
      <use xlink:href="#ArialMT-44" x="472.412109"/>
      <use xlink:href="#ArialMT-61" x="544.628906"/>
      <use xlink:href="#ArialMT-74" x="600.244141"/>
      <use xlink:href="#ArialMT-65" x="628.027344"/>
     </g>
    </g>
   </g>
  </g>
 </g>
 <defs>
  <clipPath id="p370964daa9">
   <rect x="162" y="51.84" width="1004.4" height="332.64"/>
  </clipPath>
 </defs>
</svg>
