<?xml version="1.0" encoding="utf-8" standalone="no"?>
<!DOCTYPE svg PUBLIC "-//W3C//DTD SVG 1.1//EN"
  "http://www.w3.org/Graphics/SVG/1.1/DTD/svg11.dtd">
<svg xmlns:xlink="http://www.w3.org/1999/xlink" width="853.464139pt" height="712.357052pt" viewBox="0 0 853.464139 712.357052" xmlns="http://www.w3.org/2000/svg" version="1.1">
 <metadata>
  <rdf:RDF xmlns:dc="http://purl.org/dc/elements/1.1/" xmlns:cc="http://creativecommons.org/ns#" xmlns:rdf="http://www.w3.org/1999/02/22-rdf-syntax-ns#">
   <cc:Work>
    <dc:type rdf:resource="http://purl.org/dc/dcmitype/StillImage"/>
    <dc:date>2025-07-18T14:53:13.034022</dc:date>
    <dc:format>image/svg+xml</dc:format>
    <dc:creator>
     <cc:Agent>
      <dc:title>Matplotlib v3.7.3, https://matplotlib.org/</dc:title>
     </cc:Agent>
    </dc:creator>
   </cc:Work>
  </rdf:RDF>
 </metadata>
 <defs>
  <style type="text/css">*{stroke-linejoin: round; stroke-linecap: butt}</style>
 </defs>
 <g id="figure_1">
  <g id="patch_1">
   <path d="M 0 712.357052 
L 853.464139 712.357052 
L 853.464139 0 
L 0 0 
z
" style="fill: #ffffff"/>
  </g>
  <g id="axes_1">
   <g id="patch_2">
    <path d="M 67.415 375.673094 
L 831.034979 375.673094 
L 831.034979 41.107052 
L 67.415 41.107052 
z
" style="fill: #ffffff"/>
   </g>
   <g id="patch_3">
    <path d="M 73.392456 375.673094 
L 82.35864 375.673094 
L 82.35864 124.748563 
L 73.392456 124.748563 
z
" clip-path="url(#p6fbbd34f7a)" style="fill: #b02425; opacity: 0.6"/>
   </g>
   <g id="patch_4">
    <path d="M 83.853003 375.673094 
L 92.819187 375.673094 
L 92.819187 261.36303 
L 83.853003 261.36303 
z
" clip-path="url(#p6fbbd34f7a)" style="fill: #b02425; opacity: 0.6"/>
   </g>
   <g id="patch_5">
    <path d="M 94.313551 375.673094 
L 103.279735 375.673094 
L 103.279735 264.15108 
L 94.313551 264.15108 
z
" clip-path="url(#p6fbbd34f7a)" style="fill: #b02425; opacity: 0.6"/>
   </g>
   <g id="patch_6">
    <path d="M 104.774099 375.673094 
L 113.740282 375.673094 
L 113.740282 244.236435 
L 104.774099 244.236435 
z
" clip-path="url(#p6fbbd34f7a)" style="fill: #b02425; opacity: 0.6"/>
   </g>
   <g id="patch_7">
    <path d="M 115.234646 375.673094 
L 124.20083 375.673094 
L 124.20083 200.955272 
L 115.234646 200.955272 
z
" clip-path="url(#p6fbbd34f7a)" style="fill: #b02425; opacity: 0.6"/>
   </g>
   <g id="patch_8">
    <path d="M 125.695194 375.673094 
L 134.661378 375.673094 
L 134.661378 141.476865 
L 125.695194 141.476865 
z
" clip-path="url(#p6fbbd34f7a)" style="fill: #b02425; opacity: 0.6"/>
   </g>
   <g id="patch_9">
    <path d="M 136.155742 375.673094 
L 145.121925 375.673094 
L 145.121925 196.752993 
L 136.155742 196.752993 
z
" clip-path="url(#p6fbbd34f7a)" style="fill: #b02425; opacity: 0.6"/>
   </g>
   <g id="patch_10">
    <path d="M 146.616289 375.673094 
L 155.582473 375.673094 
L 155.582473 161.39151 
L 146.616289 161.39151 
z
" clip-path="url(#p6fbbd34f7a)" style="fill: #b02425; opacity: 0.6"/>
   </g>
   <g id="patch_11">
    <path d="M 157.076837 375.673094 
L 166.043021 375.673094 
L 166.043021 271.957621 
L 157.076837 271.957621 
z
" clip-path="url(#p6fbbd34f7a)" style="fill: #b02425; opacity: 0.6"/>
   </g>
   <g id="patch_12">
    <path d="M 167.537385 375.673094 
L 176.503568 375.673094 
L 176.503568 207.693061 
L 167.537385 207.693061 
z
" clip-path="url(#p6fbbd34f7a)" style="fill: #b02425; opacity: 0.6"/>
   </g>
   <g id="patch_13">
    <path d="M 177.997932 375.673094 
L 186.964116 375.673094 
L 186.964116 319.912087 
L 177.997932 319.912087 
z
" clip-path="url(#p6fbbd34f7a)" style="fill: #b02425; opacity: 0.6"/>
   </g>
   <g id="patch_14">
    <path d="M 188.45848 375.673094 
L 197.424664 375.673094 
L 197.424664 280.321772 
L 188.45848 280.321772 
z
" clip-path="url(#p6fbbd34f7a)" style="fill: #b02425; opacity: 0.6"/>
   </g>
   <g id="patch_15">
    <path d="M 198.919028 375.673094 
L 207.885211 375.673094 
L 207.885211 280.450451 
L 198.919028 280.450451 
z
" clip-path="url(#p6fbbd34f7a)" style="fill: #b02425; opacity: 0.6"/>
   </g>
   <g id="patch_16">
    <path d="M 209.379575 375.673094 
L 218.345759 375.673094 
L 218.345759 302.068565 
L 209.379575 302.068565 
z
" clip-path="url(#p6fbbd34f7a)" style="fill: #b02425; opacity: 0.6"/>
   </g>
   <g id="patch_17">
    <path d="M 219.840123 375.673094 
L 228.806307 375.673094 
L 228.806307 216.754224 
L 219.840123 216.754224 
z
" clip-path="url(#p6fbbd34f7a)" style="fill: #b02425; opacity: 0.6"/>
   </g>
   <g id="patch_18">
    <path d="M 230.300671 375.673094 
L 239.266854 375.673094 
L 239.266854 300.395735 
L 230.300671 300.395735 
z
" clip-path="url(#p6fbbd34f7a)" style="fill: #b02425; opacity: 0.6"/>
   </g>
   <g id="patch_19">
    <path d="M 240.761218 375.673094 
L 249.727402 375.673094 
L 249.727402 292.031584 
L 240.761218 292.031584 
z
" clip-path="url(#p6fbbd34f7a)" style="fill: #b02425; opacity: 0.6"/>
   </g>
   <g id="patch_20">
    <path d="M 251.221766 375.673094 
L 260.18795 375.673094 
L 260.18795 158.205167 
L 251.221766 158.205167 
z
" clip-path="url(#p6fbbd34f7a)" style="fill: #b02425; opacity: 0.6"/>
   </g>
   <g id="patch_21">
    <path d="M 261.682314 375.673094 
L 270.648497 375.673094 
L 270.648497 333.852339 
L 261.682314 333.852339 
z
" clip-path="url(#p6fbbd34f7a)" style="fill: #b02425; opacity: 0.6"/>
   </g>
   <g id="patch_22">
    <path d="M 282.603409 375.673094 
L 291.569593 375.673094 
L 291.569593 358.944792 
L 282.603409 358.944792 
z
" clip-path="url(#p6fbbd34f7a)" style="fill: #b02425; opacity: 0.6"/>
   </g>
   <g id="patch_23">
    <path d="M 293.063957 375.673094 
L 302.03014 375.673094 
L 302.03014 325.488188 
L 293.063957 325.488188 
z
" clip-path="url(#p6fbbd34f7a)" style="fill: #b02425; opacity: 0.6"/>
   </g>
   <g id="patch_24">
    <path d="M 303.524504 375.673094 
L 312.490688 375.673094 
L 312.490688 258.574979 
L 303.524504 258.574979 
z
" clip-path="url(#p6fbbd34f7a)" style="fill: #b02425; opacity: 0.6"/>
   </g>
   <g id="patch_25">
    <path d="M 313.985052 375.673094 
L 322.951236 375.673094 
L 322.951236 275.303281 
L 313.985052 275.303281 
z
" clip-path="url(#p6fbbd34f7a)" style="fill: #b02425; opacity: 0.6"/>
   </g>
   <g id="patch_26">
    <path d="M 334.906147 375.673094 
L 343.872331 375.673094 
L 343.872331 292.031584 
L 334.906147 292.031584 
z
" clip-path="url(#p6fbbd34f7a)" style="fill: #b02425; opacity: 0.6"/>
   </g>
   <g id="patch_27">
    <path d="M 345.366695 375.673094 
L 354.332879 375.673094 
L 354.332879 308.759886 
L 345.366695 308.759886 
z
" clip-path="url(#p6fbbd34f7a)" style="fill: #b02425; opacity: 0.6"/>
   </g>
   <g id="patch_28">
    <path d="M 355.827242 375.673094 
L 364.793426 375.673094 
L 364.793426 288.685923 
L 355.827242 288.685923 
z
" clip-path="url(#p6fbbd34f7a)" style="fill: #b02425; opacity: 0.6"/>
   </g>
   <g id="patch_29">
    <path d="M 376.748338 375.673094 
L 385.714522 375.673094 
L 385.714522 317.124037 
L 376.748338 317.124037 
z
" clip-path="url(#p6fbbd34f7a)" style="fill: #b02425; opacity: 0.6"/>
   </g>
   <g id="patch_30">
    <path d="M 388.703249 375.673094 
L 397.669433 375.673094 
L 397.669433 216.754224 
L 388.703249 216.754224 
z
" clip-path="url(#p6fbbd34f7a)" style="fill: #b02425; opacity: 0.6"/>
   </g>
   <g id="patch_31">
    <path d="M 399.163797 375.673094 
L 408.129981 375.673094 
L 408.129981 191.661771 
L 399.163797 191.661771 
z
" clip-path="url(#p6fbbd34f7a)" style="fill: #b02425; opacity: 0.6"/>
   </g>
   <g id="patch_32">
    <path d="M 430.54544 375.673094 
L 439.511624 375.673094 
L 439.511624 292.031584 
L 430.54544 292.031584 
z
" clip-path="url(#p6fbbd34f7a)" style="fill: #b02425; opacity: 0.6"/>
   </g>
   <g id="patch_33">
    <path d="M 441.005988 375.673094 
L 449.972171 375.673094 
L 449.972171 292.031584 
L 441.005988 292.031584 
z
" clip-path="url(#p6fbbd34f7a)" style="fill: #b02425; opacity: 0.6"/>
   </g>
   <g id="patch_34">
    <path d="M 451.466535 375.673094 
L 460.432719 375.673094 
L 460.432719 216.754224 
L 451.466535 216.754224 
z
" clip-path="url(#p6fbbd34f7a)" style="fill: #b02425; opacity: 0.6"/>
   </g>
   <g id="patch_35">
    <path d="M 461.927083 375.673094 
L 470.893267 375.673094 
L 470.893267 292.031584 
L 461.927083 292.031584 
z
" clip-path="url(#p6fbbd34f7a)" style="fill: #b02425; opacity: 0.6"/>
   </g>
   <g id="patch_36">
    <path d="M 482.848178 375.673094 
L 491.814362 375.673094 
L 491.814362 358.944792 
L 482.848178 358.944792 
z
" clip-path="url(#p6fbbd34f7a)" style="fill: #b02425; opacity: 0.6"/>
   </g>
   <g id="patch_37">
    <path d="M 503.769274 375.673094 
L 512.735457 375.673094 
L 512.735457 342.21649 
L 503.769274 342.21649 
z
" clip-path="url(#p6fbbd34f7a)" style="fill: #b02425; opacity: 0.6"/>
   </g>
   <g id="patch_38">
    <path d="M 524.690369 375.673094 
L 533.656553 375.673094 
L 533.656553 191.661771 
L 524.690369 191.661771 
z
" clip-path="url(#p6fbbd34f7a)" style="fill: #b02425; opacity: 0.6"/>
   </g>
   <g id="patch_39">
    <path d="M 545.611464 375.673094 
L 554.577648 375.673094 
L 554.577648 275.303281 
L 545.611464 275.303281 
z
" clip-path="url(#p6fbbd34f7a)" style="fill: #b02425; opacity: 0.6"/>
   </g>
   <g id="patch_40">
    <path d="M 556.072012 375.673094 
L 565.038196 375.673094 
L 565.038196 342.21649 
L 556.072012 342.21649 
z
" clip-path="url(#p6fbbd34f7a)" style="fill: #b02425; opacity: 0.6"/>
   </g>
   <g id="patch_41">
    <path d="M 576.993107 375.673094 
L 585.959291 375.673094 
L 585.959291 225.118375 
L 576.993107 225.118375 
z
" clip-path="url(#p6fbbd34f7a)" style="fill: #b02425; opacity: 0.6"/>
   </g>
   <g id="patch_42">
    <path d="M 597.914203 375.673094 
L 606.880386 375.673094 
L 606.880386 308.759886 
L 597.914203 308.759886 
z
" clip-path="url(#p6fbbd34f7a)" style="fill: #b02425; opacity: 0.6"/>
   </g>
   <g id="patch_43">
    <path d="M 608.37475 375.673094 
L 617.340934 375.673094 
L 617.340934 231.809696 
L 608.37475 231.809696 
z
" clip-path="url(#p6fbbd34f7a)" style="fill: #b02425; opacity: 0.6"/>
   </g>
   <g id="patch_44">
    <path d="M 618.835298 375.673094 
L 627.801482 375.673094 
L 627.801482 174.933469 
L 618.835298 174.933469 
z
" clip-path="url(#p6fbbd34f7a)" style="fill: #b02425; opacity: 0.6"/>
   </g>
   <g id="patch_45">
    <path d="M 629.295845 375.673094 
L 638.262029 375.673094 
L 638.262029 250.210828 
L 629.295845 250.210828 
z
" clip-path="url(#p6fbbd34f7a)" style="fill: #b02425; opacity: 0.6"/>
   </g>
   <g id="patch_46">
    <path d="M 639.756393 375.673094 
L 648.722577 375.673094 
L 648.722577 258.574979 
L 639.756393 258.574979 
z
" clip-path="url(#p6fbbd34f7a)" style="fill: #b02425; opacity: 0.6"/>
   </g>
   <g id="patch_47">
    <path d="M 650.216941 375.673094 
L 659.183125 375.673094 
L 659.183125 271.121206 
L 650.216941 271.121206 
z
" clip-path="url(#p6fbbd34f7a)" style="fill: #b02425; opacity: 0.6"/>
   </g>
   <g id="patch_48">
    <path d="M 660.677488 375.673094 
L 669.643672 375.673094 
L 669.643672 350.580641 
L 660.677488 350.580641 
z
" clip-path="url(#p6fbbd34f7a)" style="fill: #b02425; opacity: 0.6"/>
   </g>
   <g id="patch_49">
    <path d="M 671.138036 375.673094 
L 680.10422 375.673094 
L 680.10422 275.303281 
L 671.138036 275.303281 
z
" clip-path="url(#p6fbbd34f7a)" style="fill: #b02425; opacity: 0.6"/>
   </g>
   <g id="patch_50">
    <path d="M 702.519679 375.673094 
L 711.485863 375.673094 
L 711.485863 292.031584 
L 702.519679 292.031584 
z
" clip-path="url(#p6fbbd34f7a)" style="fill: #b02425; opacity: 0.6"/>
   </g>
   <g id="patch_51">
    <path d="M 712.980227 375.673094 
L 721.94641 375.673094 
L 721.94641 325.488188 
L 712.980227 325.488188 
z
" clip-path="url(#p6fbbd34f7a)" style="fill: #b02425; opacity: 0.6"/>
   </g>
   <g id="patch_52">
    <path d="M 723.440774 375.673094 
L 732.406958 375.673094 
L 732.406958 292.031584 
L 723.440774 292.031584 
z
" clip-path="url(#p6fbbd34f7a)" style="fill: #b02425; opacity: 0.6"/>
   </g>
   <g id="patch_53">
    <path d="M 733.901322 375.673094 
L 742.867506 375.673094 
L 742.867506 277.693039 
L 733.901322 277.693039 
z
" clip-path="url(#p6fbbd34f7a)" style="fill: #b02425; opacity: 0.6"/>
   </g>
   <g id="patch_54">
    <path d="M 744.36187 375.673094 
L 753.328053 375.673094 
L 753.328053 258.574979 
L 744.36187 258.574979 
z
" clip-path="url(#p6fbbd34f7a)" style="fill: #b02425; opacity: 0.6"/>
   </g>
   <g id="patch_55">
    <path d="M 754.822417 375.673094 
L 763.788601 375.673094 
L 763.788601 317.124037 
L 754.822417 317.124037 
z
" clip-path="url(#p6fbbd34f7a)" style="fill: #b02425; opacity: 0.6"/>
   </g>
   <g id="patch_56">
    <path d="M 765.282965 375.673094 
L 774.249149 375.673094 
L 774.249149 342.21649 
L 765.282965 342.21649 
z
" clip-path="url(#p6fbbd34f7a)" style="fill: #b02425; opacity: 0.6"/>
   </g>
   <g id="patch_57">
    <path d="M 796.664608 375.673094 
L 805.630792 375.673094 
L 805.630792 252.998879 
L 796.664608 252.998879 
z
" clip-path="url(#p6fbbd34f7a)" style="fill: #b02425; opacity: 0.6"/>
   </g>
   <g id="patch_58">
    <path d="M 807.125156 375.673094 
L 816.091339 375.673094 
L 816.091339 325.488188 
L 807.125156 325.488188 
z
" clip-path="url(#p6fbbd34f7a)" style="fill: #b02425; opacity: 0.6"/>
   </g>
   <g id="patch_59">
    <path d="M 817.585703 375.673094 
L 826.551887 375.673094 
L 826.551887 292.031584 
L 817.585703 292.031584 
z
" clip-path="url(#p6fbbd34f7a)" style="fill: #b02425; opacity: 0.6"/>
   </g>
   <g id="matplotlib.axis_1">
    <g id="xtick_1">
     <g id="line2d_1">
      <defs>
       <path id="m93a733b834" d="M 0 0 
L 0 3.5 
" style="stroke: #000000; stroke-width: 0.8"/>
      </defs>
      <g>
       <use xlink:href="#m93a733b834" x="73.392456" y="375.673094" style="stroke: #000000; stroke-width: 0.8"/>
      </g>
     </g>
     <g id="text_1">
      <!-- 2023-06 -->
      <g transform="translate(38.359756 441.584703) rotate(-30) scale(0.24 -0.24)">
       <defs>
        <path id="ArialMT-32" d="M 3222 541 
L 3222 0 
L 194 0 
Q 188 203 259 391 
Q 375 700 629 1000 
Q 884 1300 1366 1694 
Q 2113 2306 2375 2664 
Q 2638 3022 2638 3341 
Q 2638 3675 2398 3904 
Q 2159 4134 1775 4134 
Q 1369 4134 1125 3890 
Q 881 3647 878 3216 
L 300 3275 
Q 359 3922 746 4261 
Q 1134 4600 1788 4600 
Q 2447 4600 2831 4234 
Q 3216 3869 3216 3328 
Q 3216 3053 3103 2787 
Q 2991 2522 2730 2228 
Q 2469 1934 1863 1422 
Q 1356 997 1212 845 
Q 1069 694 975 541 
L 3222 541 
z
" transform="scale(0.015625)"/>
        <path id="ArialMT-30" d="M 266 2259 
Q 266 3072 433 3567 
Q 600 4063 929 4331 
Q 1259 4600 1759 4600 
Q 2128 4600 2406 4451 
Q 2684 4303 2865 4023 
Q 3047 3744 3150 3342 
Q 3253 2941 3253 2259 
Q 3253 1453 3087 958 
Q 2922 463 2592 192 
Q 2263 -78 1759 -78 
Q 1097 -78 719 397 
Q 266 969 266 2259 
z
M 844 2259 
Q 844 1131 1108 757 
Q 1372 384 1759 384 
Q 2147 384 2411 759 
Q 2675 1134 2675 2259 
Q 2675 3391 2411 3762 
Q 2147 4134 1753 4134 
Q 1366 4134 1134 3806 
Q 844 3388 844 2259 
z
" transform="scale(0.015625)"/>
        <path id="ArialMT-33" d="M 269 1209 
L 831 1284 
Q 928 806 1161 595 
Q 1394 384 1728 384 
Q 2125 384 2398 659 
Q 2672 934 2672 1341 
Q 2672 1728 2419 1979 
Q 2166 2231 1775 2231 
Q 1616 2231 1378 2169 
L 1441 2663 
Q 1497 2656 1531 2656 
Q 1891 2656 2178 2843 
Q 2466 3031 2466 3422 
Q 2466 3731 2256 3934 
Q 2047 4138 1716 4138 
Q 1388 4138 1169 3931 
Q 950 3725 888 3313 
L 325 3413 
Q 428 3978 793 4289 
Q 1159 4600 1703 4600 
Q 2078 4600 2393 4439 
Q 2709 4278 2876 4000 
Q 3044 3722 3044 3409 
Q 3044 3113 2884 2869 
Q 2725 2625 2413 2481 
Q 2819 2388 3044 2092 
Q 3269 1797 3269 1353 
Q 3269 753 2831 336 
Q 2394 -81 1725 -81 
Q 1122 -81 723 278 
Q 325 638 269 1209 
z
" transform="scale(0.015625)"/>
        <path id="ArialMT-2d" d="M 203 1375 
L 203 1941 
L 1931 1941 
L 1931 1375 
L 203 1375 
z
" transform="scale(0.015625)"/>
        <path id="ArialMT-36" d="M 3184 3459 
L 2625 3416 
Q 2550 3747 2413 3897 
Q 2184 4138 1850 4138 
Q 1581 4138 1378 3988 
Q 1113 3794 959 3422 
Q 806 3050 800 2363 
Q 1003 2672 1297 2822 
Q 1591 2972 1913 2972 
Q 2475 2972 2870 2558 
Q 3266 2144 3266 1488 
Q 3266 1056 3080 686 
Q 2894 316 2569 119 
Q 2244 -78 1831 -78 
Q 1128 -78 684 439 
Q 241 956 241 2144 
Q 241 3472 731 4075 
Q 1159 4600 1884 4600 
Q 2425 4600 2770 4297 
Q 3116 3994 3184 3459 
z
M 888 1484 
Q 888 1194 1011 928 
Q 1134 663 1356 523 
Q 1578 384 1822 384 
Q 2178 384 2434 671 
Q 2691 959 2691 1453 
Q 2691 1928 2437 2201 
Q 2184 2475 1800 2475 
Q 1419 2475 1153 2201 
Q 888 1928 888 1484 
z
" transform="scale(0.015625)"/>
       </defs>
       <use xlink:href="#ArialMT-32"/>
       <use xlink:href="#ArialMT-30" x="55.615234"/>
       <use xlink:href="#ArialMT-32" x="111.230469"/>
       <use xlink:href="#ArialMT-33" x="166.845703"/>
       <use xlink:href="#ArialMT-2d" x="222.460938"/>
       <use xlink:href="#ArialMT-30" x="255.761719"/>
       <use xlink:href="#ArialMT-36" x="311.376953"/>
      </g>
     </g>
    </g>
    <g id="xtick_2">
     <g id="line2d_2">
      <g>
       <use xlink:href="#m93a733b834" x="118.223374" y="375.673094" style="stroke: #000000; stroke-width: 0.8"/>
      </g>
     </g>
     <g id="text_2">
      <!-- 2023-07 -->
      <g transform="translate(83.190674 441.584703) rotate(-30) scale(0.24 -0.24)">
       <defs>
        <path id="ArialMT-37" d="M 303 3981 
L 303 4522 
L 3269 4522 
L 3269 4084 
Q 2831 3619 2401 2847 
Q 1972 2075 1738 1259 
Q 1569 684 1522 0 
L 944 0 
Q 953 541 1156 1306 
Q 1359 2072 1739 2783 
Q 2119 3494 2547 3981 
L 303 3981 
z
" transform="scale(0.015625)"/>
       </defs>
       <use xlink:href="#ArialMT-32"/>
       <use xlink:href="#ArialMT-30" x="55.615234"/>
       <use xlink:href="#ArialMT-32" x="111.230469"/>
       <use xlink:href="#ArialMT-33" x="166.845703"/>
       <use xlink:href="#ArialMT-2d" x="222.460938"/>
       <use xlink:href="#ArialMT-30" x="255.761719"/>
       <use xlink:href="#ArialMT-37" x="311.376953"/>
      </g>
     </g>
    </g>
    <g id="xtick_3">
     <g id="line2d_3">
      <g>
       <use xlink:href="#m93a733b834" x="164.548657" y="375.673094" style="stroke: #000000; stroke-width: 0.8"/>
      </g>
     </g>
     <g id="text_3">
      <!-- 2023-08 -->
      <g transform="translate(129.515957 441.584703) rotate(-30) scale(0.24 -0.24)">
       <defs>
        <path id="ArialMT-38" d="M 1131 2484 
Q 781 2613 612 2850 
Q 444 3088 444 3419 
Q 444 3919 803 4259 
Q 1163 4600 1759 4600 
Q 2359 4600 2725 4251 
Q 3091 3903 3091 3403 
Q 3091 3084 2923 2848 
Q 2756 2613 2416 2484 
Q 2838 2347 3058 2040 
Q 3278 1734 3278 1309 
Q 3278 722 2862 322 
Q 2447 -78 1769 -78 
Q 1091 -78 675 323 
Q 259 725 259 1325 
Q 259 1772 486 2073 
Q 713 2375 1131 2484 
z
M 1019 3438 
Q 1019 3113 1228 2906 
Q 1438 2700 1772 2700 
Q 2097 2700 2305 2904 
Q 2513 3109 2513 3406 
Q 2513 3716 2298 3927 
Q 2084 4138 1766 4138 
Q 1444 4138 1231 3931 
Q 1019 3725 1019 3438 
z
M 838 1322 
Q 838 1081 952 856 
Q 1066 631 1291 507 
Q 1516 384 1775 384 
Q 2178 384 2440 643 
Q 2703 903 2703 1303 
Q 2703 1709 2433 1975 
Q 2163 2241 1756 2241 
Q 1359 2241 1098 1978 
Q 838 1716 838 1322 
z
" transform="scale(0.015625)"/>
       </defs>
       <use xlink:href="#ArialMT-32"/>
       <use xlink:href="#ArialMT-30" x="55.615234"/>
       <use xlink:href="#ArialMT-32" x="111.230469"/>
       <use xlink:href="#ArialMT-33" x="166.845703"/>
       <use xlink:href="#ArialMT-2d" x="222.460938"/>
       <use xlink:href="#ArialMT-30" x="255.761719"/>
       <use xlink:href="#ArialMT-38" x="311.376953"/>
      </g>
     </g>
    </g>
    <g id="xtick_4">
     <g id="line2d_4">
      <g>
       <use xlink:href="#m93a733b834" x="210.873939" y="375.673094" style="stroke: #000000; stroke-width: 0.8"/>
      </g>
     </g>
     <g id="text_4">
      <!-- 2023-09 -->
      <g transform="translate(175.841239 441.584703) rotate(-30) scale(0.24 -0.24)">
       <defs>
        <path id="ArialMT-39" d="M 350 1059 
L 891 1109 
Q 959 728 1153 556 
Q 1347 384 1650 384 
Q 1909 384 2104 503 
Q 2300 622 2425 820 
Q 2550 1019 2634 1356 
Q 2719 1694 2719 2044 
Q 2719 2081 2716 2156 
Q 2547 1888 2255 1720 
Q 1963 1553 1622 1553 
Q 1053 1553 659 1965 
Q 266 2378 266 3053 
Q 266 3750 677 4175 
Q 1088 4600 1706 4600 
Q 2153 4600 2523 4359 
Q 2894 4119 3086 3673 
Q 3278 3228 3278 2384 
Q 3278 1506 3087 986 
Q 2897 466 2520 194 
Q 2144 -78 1638 -78 
Q 1100 -78 759 220 
Q 419 519 350 1059 
z
M 2653 3081 
Q 2653 3566 2395 3850 
Q 2138 4134 1775 4134 
Q 1400 4134 1122 3828 
Q 844 3522 844 3034 
Q 844 2597 1108 2323 
Q 1372 2050 1759 2050 
Q 2150 2050 2401 2323 
Q 2653 2597 2653 3081 
z
" transform="scale(0.015625)"/>
       </defs>
       <use xlink:href="#ArialMT-32"/>
       <use xlink:href="#ArialMT-30" x="55.615234"/>
       <use xlink:href="#ArialMT-32" x="111.230469"/>
       <use xlink:href="#ArialMT-33" x="166.845703"/>
       <use xlink:href="#ArialMT-2d" x="222.460938"/>
       <use xlink:href="#ArialMT-30" x="255.761719"/>
       <use xlink:href="#ArialMT-39" x="311.376953"/>
      </g>
     </g>
    </g>
    <g id="xtick_5">
     <g id="line2d_5">
      <g>
       <use xlink:href="#m93a733b834" x="255.704858" y="375.673094" style="stroke: #000000; stroke-width: 0.8"/>
      </g>
     </g>
     <g id="text_5">
      <!-- 2023-10 -->
      <g transform="translate(220.672158 441.584703) rotate(-30) scale(0.24 -0.24)">
       <defs>
        <path id="ArialMT-31" d="M 2384 0 
L 1822 0 
L 1822 3584 
Q 1619 3391 1289 3197 
Q 959 3003 697 2906 
L 697 3450 
Q 1169 3672 1522 3987 
Q 1875 4303 2022 4600 
L 2384 4600 
L 2384 0 
z
" transform="scale(0.015625)"/>
       </defs>
       <use xlink:href="#ArialMT-32"/>
       <use xlink:href="#ArialMT-30" x="55.615234"/>
       <use xlink:href="#ArialMT-32" x="111.230469"/>
       <use xlink:href="#ArialMT-33" x="166.845703"/>
       <use xlink:href="#ArialMT-2d" x="222.460938"/>
       <use xlink:href="#ArialMT-31" x="255.761719"/>
       <use xlink:href="#ArialMT-30" x="311.376953"/>
      </g>
     </g>
    </g>
    <g id="xtick_6">
     <g id="line2d_6">
      <g>
       <use xlink:href="#m93a733b834" x="302.03014" y="375.673094" style="stroke: #000000; stroke-width: 0.8"/>
      </g>
     </g>
     <g id="text_6">
      <!-- 2023-11 -->
      <g transform="translate(267.763873 440.699703) rotate(-30) scale(0.24 -0.24)">
       <use xlink:href="#ArialMT-32"/>
       <use xlink:href="#ArialMT-30" x="55.615234"/>
       <use xlink:href="#ArialMT-32" x="111.230469"/>
       <use xlink:href="#ArialMT-33" x="166.845703"/>
       <use xlink:href="#ArialMT-2d" x="222.460938"/>
       <use xlink:href="#ArialMT-31" x="255.761719"/>
       <use xlink:href="#ArialMT-31" x="304.001953"/>
      </g>
     </g>
    </g>
    <g id="xtick_7">
     <g id="line2d_7">
      <g>
       <use xlink:href="#m93a733b834" x="346.861059" y="375.673094" style="stroke: #000000; stroke-width: 0.8"/>
      </g>
     </g>
     <g id="text_7">
      <!-- 2023-12 -->
      <g transform="translate(311.828359 441.584703) rotate(-30) scale(0.24 -0.24)">
       <use xlink:href="#ArialMT-32"/>
       <use xlink:href="#ArialMT-30" x="55.615234"/>
       <use xlink:href="#ArialMT-32" x="111.230469"/>
       <use xlink:href="#ArialMT-33" x="166.845703"/>
       <use xlink:href="#ArialMT-2d" x="222.460938"/>
       <use xlink:href="#ArialMT-31" x="255.761719"/>
       <use xlink:href="#ArialMT-32" x="311.376953"/>
      </g>
     </g>
    </g>
    <g id="xtick_8">
     <g id="line2d_8">
      <g>
       <use xlink:href="#m93a733b834" x="393.186341" y="375.673094" style="stroke: #000000; stroke-width: 0.8"/>
      </g>
     </g>
     <g id="text_8">
      <!-- 2024-01 -->
      <g transform="translate(358.153641 441.584703) rotate(-30) scale(0.24 -0.24)">
       <defs>
        <path id="ArialMT-34" d="M 2069 0 
L 2069 1097 
L 81 1097 
L 81 1613 
L 2172 4581 
L 2631 4581 
L 2631 1613 
L 3250 1613 
L 3250 1097 
L 2631 1097 
L 2631 0 
L 2069 0 
z
M 2069 1613 
L 2069 3678 
L 634 1613 
L 2069 1613 
z
" transform="scale(0.015625)"/>
       </defs>
       <use xlink:href="#ArialMT-32"/>
       <use xlink:href="#ArialMT-30" x="55.615234"/>
       <use xlink:href="#ArialMT-32" x="111.230469"/>
       <use xlink:href="#ArialMT-34" x="166.845703"/>
       <use xlink:href="#ArialMT-2d" x="222.460938"/>
       <use xlink:href="#ArialMT-30" x="255.761719"/>
       <use xlink:href="#ArialMT-31" x="311.376953"/>
      </g>
     </g>
    </g>
    <g id="xtick_9">
     <g id="line2d_9">
      <g>
       <use xlink:href="#m93a733b834" x="439.511624" y="375.673094" style="stroke: #000000; stroke-width: 0.8"/>
      </g>
     </g>
     <g id="text_9">
      <!-- 2024-02 -->
      <g transform="translate(404.478924 441.584703) rotate(-30) scale(0.24 -0.24)">
       <use xlink:href="#ArialMT-32"/>
       <use xlink:href="#ArialMT-30" x="55.615234"/>
       <use xlink:href="#ArialMT-32" x="111.230469"/>
       <use xlink:href="#ArialMT-34" x="166.845703"/>
       <use xlink:href="#ArialMT-2d" x="222.460938"/>
       <use xlink:href="#ArialMT-30" x="255.761719"/>
       <use xlink:href="#ArialMT-32" x="311.376953"/>
      </g>
     </g>
    </g>
    <g id="xtick_10">
     <g id="line2d_10">
      <g>
       <use xlink:href="#m93a733b834" x="482.848178" y="375.673094" style="stroke: #000000; stroke-width: 0.8"/>
      </g>
     </g>
     <g id="text_10">
      <!-- 2024-03 -->
      <g transform="translate(447.815478 441.584703) rotate(-30) scale(0.24 -0.24)">
       <use xlink:href="#ArialMT-32"/>
       <use xlink:href="#ArialMT-30" x="55.615234"/>
       <use xlink:href="#ArialMT-32" x="111.230469"/>
       <use xlink:href="#ArialMT-34" x="166.845703"/>
       <use xlink:href="#ArialMT-2d" x="222.460938"/>
       <use xlink:href="#ArialMT-30" x="255.761719"/>
       <use xlink:href="#ArialMT-33" x="311.376953"/>
      </g>
     </g>
    </g>
    <g id="xtick_11">
     <g id="line2d_11">
      <g>
       <use xlink:href="#m93a733b834" x="529.173461" y="375.673094" style="stroke: #000000; stroke-width: 0.8"/>
      </g>
     </g>
     <g id="text_11">
      <!-- 2024-04 -->
      <g transform="translate(494.140761 441.584703) rotate(-30) scale(0.24 -0.24)">
       <use xlink:href="#ArialMT-32"/>
       <use xlink:href="#ArialMT-30" x="55.615234"/>
       <use xlink:href="#ArialMT-32" x="111.230469"/>
       <use xlink:href="#ArialMT-34" x="166.845703"/>
       <use xlink:href="#ArialMT-2d" x="222.460938"/>
       <use xlink:href="#ArialMT-30" x="255.761719"/>
       <use xlink:href="#ArialMT-34" x="311.376953"/>
      </g>
     </g>
    </g>
    <g id="xtick_12">
     <g id="line2d_12">
      <g>
       <use xlink:href="#m93a733b834" x="574.004379" y="375.673094" style="stroke: #000000; stroke-width: 0.8"/>
      </g>
     </g>
     <g id="text_12">
      <!-- 2024-05 -->
      <g transform="translate(538.971679 441.584703) rotate(-30) scale(0.24 -0.24)">
       <defs>
        <path id="ArialMT-35" d="M 266 1200 
L 856 1250 
Q 922 819 1161 601 
Q 1400 384 1738 384 
Q 2144 384 2425 690 
Q 2706 997 2706 1503 
Q 2706 1984 2436 2262 
Q 2166 2541 1728 2541 
Q 1456 2541 1237 2417 
Q 1019 2294 894 2097 
L 366 2166 
L 809 4519 
L 3088 4519 
L 3088 3981 
L 1259 3981 
L 1013 2750 
Q 1425 3038 1878 3038 
Q 2478 3038 2890 2622 
Q 3303 2206 3303 1553 
Q 3303 931 2941 478 
Q 2500 -78 1738 -78 
Q 1113 -78 717 272 
Q 322 622 266 1200 
z
" transform="scale(0.015625)"/>
       </defs>
       <use xlink:href="#ArialMT-32"/>
       <use xlink:href="#ArialMT-30" x="55.615234"/>
       <use xlink:href="#ArialMT-32" x="111.230469"/>
       <use xlink:href="#ArialMT-34" x="166.845703"/>
       <use xlink:href="#ArialMT-2d" x="222.460938"/>
       <use xlink:href="#ArialMT-30" x="255.761719"/>
       <use xlink:href="#ArialMT-35" x="311.376953"/>
      </g>
     </g>
    </g>
    <g id="xtick_13">
     <g id="line2d_13">
      <g>
       <use xlink:href="#m93a733b834" x="620.329662" y="375.673094" style="stroke: #000000; stroke-width: 0.8"/>
      </g>
     </g>
     <g id="text_13">
      <!-- 2024-06 -->
      <g transform="translate(585.296962 441.584703) rotate(-30) scale(0.24 -0.24)">
       <use xlink:href="#ArialMT-32"/>
       <use xlink:href="#ArialMT-30" x="55.615234"/>
       <use xlink:href="#ArialMT-32" x="111.230469"/>
       <use xlink:href="#ArialMT-34" x="166.845703"/>
       <use xlink:href="#ArialMT-2d" x="222.460938"/>
       <use xlink:href="#ArialMT-30" x="255.761719"/>
       <use xlink:href="#ArialMT-36" x="311.376953"/>
      </g>
     </g>
    </g>
    <g id="xtick_14">
     <g id="line2d_14">
      <g>
       <use xlink:href="#m93a733b834" x="665.16058" y="375.673094" style="stroke: #000000; stroke-width: 0.8"/>
      </g>
     </g>
     <g id="text_14">
      <!-- 2024-07 -->
      <g transform="translate(630.12788 441.584703) rotate(-30) scale(0.24 -0.24)">
       <use xlink:href="#ArialMT-32"/>
       <use xlink:href="#ArialMT-30" x="55.615234"/>
       <use xlink:href="#ArialMT-32" x="111.230469"/>
       <use xlink:href="#ArialMT-34" x="166.845703"/>
       <use xlink:href="#ArialMT-2d" x="222.460938"/>
       <use xlink:href="#ArialMT-30" x="255.761719"/>
       <use xlink:href="#ArialMT-37" x="311.376953"/>
      </g>
     </g>
    </g>
    <g id="xtick_15">
     <g id="line2d_15">
      <g>
       <use xlink:href="#m93a733b834" x="711.485863" y="375.673094" style="stroke: #000000; stroke-width: 0.8"/>
      </g>
     </g>
     <g id="text_15">
      <!-- 2024-08 -->
      <g transform="translate(676.453163 441.584703) rotate(-30) scale(0.24 -0.24)">
       <use xlink:href="#ArialMT-32"/>
       <use xlink:href="#ArialMT-30" x="55.615234"/>
       <use xlink:href="#ArialMT-32" x="111.230469"/>
       <use xlink:href="#ArialMT-34" x="166.845703"/>
       <use xlink:href="#ArialMT-2d" x="222.460938"/>
       <use xlink:href="#ArialMT-30" x="255.761719"/>
       <use xlink:href="#ArialMT-38" x="311.376953"/>
      </g>
     </g>
    </g>
    <g id="xtick_16">
     <g id="line2d_16">
      <g>
       <use xlink:href="#m93a733b834" x="757.811145" y="375.673094" style="stroke: #000000; stroke-width: 0.8"/>
      </g>
     </g>
     <g id="text_16">
      <!-- 2024-09 -->
      <g transform="translate(722.778445 441.584703) rotate(-30) scale(0.24 -0.24)">
       <use xlink:href="#ArialMT-32"/>
       <use xlink:href="#ArialMT-30" x="55.615234"/>
       <use xlink:href="#ArialMT-32" x="111.230469"/>
       <use xlink:href="#ArialMT-34" x="166.845703"/>
       <use xlink:href="#ArialMT-2d" x="222.460938"/>
       <use xlink:href="#ArialMT-30" x="255.761719"/>
       <use xlink:href="#ArialMT-39" x="311.376953"/>
      </g>
     </g>
    </g>
    <g id="xtick_17">
     <g id="line2d_17">
      <g>
       <use xlink:href="#m93a733b834" x="802.642064" y="375.673094" style="stroke: #000000; stroke-width: 0.8"/>
      </g>
     </g>
     <g id="text_17">
      <!-- 2024-10 -->
      <g transform="translate(767.609364 441.584703) rotate(-30) scale(0.24 -0.24)">
       <use xlink:href="#ArialMT-32"/>
       <use xlink:href="#ArialMT-30" x="55.615234"/>
       <use xlink:href="#ArialMT-32" x="111.230469"/>
       <use xlink:href="#ArialMT-34" x="166.845703"/>
       <use xlink:href="#ArialMT-2d" x="222.460938"/>
       <use xlink:href="#ArialMT-31" x="255.761719"/>
       <use xlink:href="#ArialMT-30" x="311.376953"/>
      </g>
     </g>
    </g>
   </g>
   <g id="matplotlib.axis_2">
    <g id="ytick_1">
     <g id="line2d_18">
      <defs>
       <path id="mcddce33bd2" d="M 0 0 
L -3.5 0 
" style="stroke: #000000; stroke-width: 0.8"/>
      </defs>
      <g>
       <use xlink:href="#mcddce33bd2" x="67.415" y="375.673094" style="stroke: #000000; stroke-width: 0.8"/>
      </g>
     </g>
     <g id="text_18">
      <!-- 0 -->
      <g transform="translate(47.06875 384.262469) scale(0.24 -0.24)">
       <use xlink:href="#ArialMT-30"/>
      </g>
     </g>
    </g>
    <g id="ytick_2">
     <g id="line2d_19">
      <g>
       <use xlink:href="#mcddce33bd2" x="67.415" y="292.031584" style="stroke: #000000; stroke-width: 0.8"/>
      </g>
     </g>
     <g id="text_19">
      <!-- 5 -->
      <g transform="translate(47.06875 300.620959) scale(0.24 -0.24)">
       <use xlink:href="#ArialMT-35"/>
      </g>
     </g>
    </g>
    <g id="ytick_3">
     <g id="line2d_20">
      <g>
       <use xlink:href="#mcddce33bd2" x="67.415" y="208.390073" style="stroke: #000000; stroke-width: 0.8"/>
      </g>
     </g>
     <g id="text_20">
      <!-- 10 -->
      <g transform="translate(33.7225 216.979448) scale(0.24 -0.24)">
       <use xlink:href="#ArialMT-31"/>
       <use xlink:href="#ArialMT-30" x="55.615234"/>
      </g>
     </g>
    </g>
    <g id="ytick_4">
     <g id="line2d_21">
      <g>
       <use xlink:href="#mcddce33bd2" x="67.415" y="124.748563" style="stroke: #000000; stroke-width: 0.8"/>
      </g>
     </g>
     <g id="text_21">
      <!-- 15 -->
      <g transform="translate(33.7225 133.337938) scale(0.24 -0.24)">
       <use xlink:href="#ArialMT-31"/>
       <use xlink:href="#ArialMT-35" x="55.615234"/>
      </g>
     </g>
    </g>
    <g id="ytick_5">
     <g id="line2d_22">
      <g>
       <use xlink:href="#mcddce33bd2" x="67.415" y="41.107052" style="stroke: #000000; stroke-width: 0.8"/>
      </g>
     </g>
     <g id="text_22">
      <!-- 20 -->
      <g transform="translate(33.7225 49.696427) scale(0.24 -0.24)">
       <use xlink:href="#ArialMT-32"/>
       <use xlink:href="#ArialMT-30" x="55.615234"/>
      </g>
     </g>
    </g>
    <g id="text_23">
     <!-- Detection lag (days) -->
     <g transform="translate(24.67125 315.100073) rotate(-90) scale(0.24 -0.24)">
      <defs>
       <path id="ArialMT-44" d="M 494 0 
L 494 4581 
L 2072 4581 
Q 2606 4581 2888 4516 
Q 3281 4425 3559 4188 
Q 3922 3881 4101 3404 
Q 4281 2928 4281 2316 
Q 4281 1794 4159 1391 
Q 4038 988 3847 723 
Q 3656 459 3429 307 
Q 3203 156 2883 78 
Q 2563 0 2147 0 
L 494 0 
z
M 1100 541 
L 2078 541 
Q 2531 541 2789 625 
Q 3047 709 3200 863 
Q 3416 1078 3536 1442 
Q 3656 1806 3656 2325 
Q 3656 3044 3420 3430 
Q 3184 3816 2847 3947 
Q 2603 4041 2063 4041 
L 1100 4041 
L 1100 541 
z
" transform="scale(0.015625)"/>
       <path id="ArialMT-65" d="M 2694 1069 
L 3275 997 
Q 3138 488 2766 206 
Q 2394 -75 1816 -75 
Q 1088 -75 661 373 
Q 234 822 234 1631 
Q 234 2469 665 2931 
Q 1097 3394 1784 3394 
Q 2450 3394 2872 2941 
Q 3294 2488 3294 1666 
Q 3294 1616 3291 1516 
L 816 1516 
Q 847 969 1125 678 
Q 1403 388 1819 388 
Q 2128 388 2347 550 
Q 2566 713 2694 1069 
z
M 847 1978 
L 2700 1978 
Q 2663 2397 2488 2606 
Q 2219 2931 1791 2931 
Q 1403 2931 1139 2672 
Q 875 2413 847 1978 
z
" transform="scale(0.015625)"/>
       <path id="ArialMT-74" d="M 1650 503 
L 1731 6 
Q 1494 -44 1306 -44 
Q 1000 -44 831 53 
Q 663 150 594 308 
Q 525 466 525 972 
L 525 2881 
L 113 2881 
L 113 3319 
L 525 3319 
L 525 4141 
L 1084 4478 
L 1084 3319 
L 1650 3319 
L 1650 2881 
L 1084 2881 
L 1084 941 
Q 1084 700 1114 631 
Q 1144 563 1211 522 
Q 1278 481 1403 481 
Q 1497 481 1650 503 
z
" transform="scale(0.015625)"/>
       <path id="ArialMT-63" d="M 2588 1216 
L 3141 1144 
Q 3050 572 2676 248 
Q 2303 -75 1759 -75 
Q 1078 -75 664 370 
Q 250 816 250 1647 
Q 250 2184 428 2587 
Q 606 2991 970 3192 
Q 1334 3394 1763 3394 
Q 2303 3394 2647 3120 
Q 2991 2847 3088 2344 
L 2541 2259 
Q 2463 2594 2264 2762 
Q 2066 2931 1784 2931 
Q 1359 2931 1093 2626 
Q 828 2322 828 1663 
Q 828 994 1084 691 
Q 1341 388 1753 388 
Q 2084 388 2306 591 
Q 2528 794 2588 1216 
z
" transform="scale(0.015625)"/>
       <path id="ArialMT-69" d="M 425 3934 
L 425 4581 
L 988 4581 
L 988 3934 
L 425 3934 
z
M 425 0 
L 425 3319 
L 988 3319 
L 988 0 
L 425 0 
z
" transform="scale(0.015625)"/>
       <path id="ArialMT-6f" d="M 213 1659 
Q 213 2581 725 3025 
Q 1153 3394 1769 3394 
Q 2453 3394 2887 2945 
Q 3322 2497 3322 1706 
Q 3322 1066 3130 698 
Q 2938 331 2570 128 
Q 2203 -75 1769 -75 
Q 1072 -75 642 372 
Q 213 819 213 1659 
z
M 791 1659 
Q 791 1022 1069 705 
Q 1347 388 1769 388 
Q 2188 388 2466 706 
Q 2744 1025 2744 1678 
Q 2744 2294 2464 2611 
Q 2184 2928 1769 2928 
Q 1347 2928 1069 2612 
Q 791 2297 791 1659 
z
" transform="scale(0.015625)"/>
       <path id="ArialMT-6e" d="M 422 0 
L 422 3319 
L 928 3319 
L 928 2847 
Q 1294 3394 1984 3394 
Q 2284 3394 2536 3286 
Q 2788 3178 2913 3003 
Q 3038 2828 3088 2588 
Q 3119 2431 3119 2041 
L 3119 0 
L 2556 0 
L 2556 2019 
Q 2556 2363 2490 2533 
Q 2425 2703 2258 2804 
Q 2091 2906 1866 2906 
Q 1506 2906 1245 2678 
Q 984 2450 984 1813 
L 984 0 
L 422 0 
z
" transform="scale(0.015625)"/>
       <path id="ArialMT-20" transform="scale(0.015625)"/>
       <path id="ArialMT-6c" d="M 409 0 
L 409 4581 
L 972 4581 
L 972 0 
L 409 0 
z
" transform="scale(0.015625)"/>
       <path id="ArialMT-61" d="M 2588 409 
Q 2275 144 1986 34 
Q 1697 -75 1366 -75 
Q 819 -75 525 192 
Q 231 459 231 875 
Q 231 1119 342 1320 
Q 453 1522 633 1644 
Q 813 1766 1038 1828 
Q 1203 1872 1538 1913 
Q 2219 1994 2541 2106 
Q 2544 2222 2544 2253 
Q 2544 2597 2384 2738 
Q 2169 2928 1744 2928 
Q 1347 2928 1158 2789 
Q 969 2650 878 2297 
L 328 2372 
Q 403 2725 575 2942 
Q 747 3159 1072 3276 
Q 1397 3394 1825 3394 
Q 2250 3394 2515 3294 
Q 2781 3194 2906 3042 
Q 3031 2891 3081 2659 
Q 3109 2516 3109 2141 
L 3109 1391 
Q 3109 606 3145 398 
Q 3181 191 3288 0 
L 2700 0 
Q 2613 175 2588 409 
z
M 2541 1666 
Q 2234 1541 1622 1453 
Q 1275 1403 1131 1340 
Q 988 1278 909 1158 
Q 831 1038 831 891 
Q 831 666 1001 516 
Q 1172 366 1500 366 
Q 1825 366 2078 508 
Q 2331 650 2450 897 
Q 2541 1088 2541 1459 
L 2541 1666 
z
" transform="scale(0.015625)"/>
       <path id="ArialMT-67" d="M 319 -275 
L 866 -356 
Q 900 -609 1056 -725 
Q 1266 -881 1628 -881 
Q 2019 -881 2231 -725 
Q 2444 -569 2519 -288 
Q 2563 -116 2559 434 
Q 2191 0 1641 0 
Q 956 0 581 494 
Q 206 988 206 1678 
Q 206 2153 378 2554 
Q 550 2956 876 3175 
Q 1203 3394 1644 3394 
Q 2231 3394 2613 2919 
L 2613 3319 
L 3131 3319 
L 3131 450 
Q 3131 -325 2973 -648 
Q 2816 -972 2473 -1159 
Q 2131 -1347 1631 -1347 
Q 1038 -1347 672 -1080 
Q 306 -813 319 -275 
z
M 784 1719 
Q 784 1066 1043 766 
Q 1303 466 1694 466 
Q 2081 466 2343 764 
Q 2606 1063 2606 1700 
Q 2606 2309 2336 2618 
Q 2066 2928 1684 2928 
Q 1309 2928 1046 2623 
Q 784 2319 784 1719 
z
" transform="scale(0.015625)"/>
       <path id="ArialMT-28" d="M 1497 -1347 
Q 1031 -759 709 28 
Q 388 816 388 1659 
Q 388 2403 628 3084 
Q 909 3875 1497 4659 
L 1900 4659 
Q 1522 4009 1400 3731 
Q 1209 3300 1100 2831 
Q 966 2247 966 1656 
Q 966 153 1900 -1347 
L 1497 -1347 
z
" transform="scale(0.015625)"/>
       <path id="ArialMT-64" d="M 2575 0 
L 2575 419 
Q 2259 -75 1647 -75 
Q 1250 -75 917 144 
Q 584 363 401 755 
Q 219 1147 219 1656 
Q 219 2153 384 2558 
Q 550 2963 881 3178 
Q 1213 3394 1622 3394 
Q 1922 3394 2156 3267 
Q 2391 3141 2538 2938 
L 2538 4581 
L 3097 4581 
L 3097 0 
L 2575 0 
z
M 797 1656 
Q 797 1019 1065 703 
Q 1334 388 1700 388 
Q 2069 388 2326 689 
Q 2584 991 2584 1609 
Q 2584 2291 2321 2609 
Q 2059 2928 1675 2928 
Q 1300 2928 1048 2622 
Q 797 2316 797 1656 
z
" transform="scale(0.015625)"/>
       <path id="ArialMT-79" d="M 397 -1278 
L 334 -750 
Q 519 -800 656 -800 
Q 844 -800 956 -737 
Q 1069 -675 1141 -563 
Q 1194 -478 1313 -144 
Q 1328 -97 1363 -6 
L 103 3319 
L 709 3319 
L 1400 1397 
Q 1534 1031 1641 628 
Q 1738 1016 1872 1384 
L 2581 3319 
L 3144 3319 
L 1881 -56 
Q 1678 -603 1566 -809 
Q 1416 -1088 1222 -1217 
Q 1028 -1347 759 -1347 
Q 597 -1347 397 -1278 
z
" transform="scale(0.015625)"/>
       <path id="ArialMT-73" d="M 197 991 
L 753 1078 
Q 800 744 1014 566 
Q 1228 388 1613 388 
Q 2000 388 2187 545 
Q 2375 703 2375 916 
Q 2375 1106 2209 1216 
Q 2094 1291 1634 1406 
Q 1016 1563 777 1677 
Q 538 1791 414 1992 
Q 291 2194 291 2438 
Q 291 2659 392 2848 
Q 494 3038 669 3163 
Q 800 3259 1026 3326 
Q 1253 3394 1513 3394 
Q 1903 3394 2198 3281 
Q 2494 3169 2634 2976 
Q 2775 2784 2828 2463 
L 2278 2388 
Q 2241 2644 2061 2787 
Q 1881 2931 1553 2931 
Q 1166 2931 1000 2803 
Q 834 2675 834 2503 
Q 834 2394 903 2306 
Q 972 2216 1119 2156 
Q 1203 2125 1616 2013 
Q 2213 1853 2448 1751 
Q 2684 1650 2818 1456 
Q 2953 1263 2953 975 
Q 2953 694 2789 445 
Q 2625 197 2315 61 
Q 2006 -75 1616 -75 
Q 969 -75 630 194 
Q 291 463 197 991 
z
" transform="scale(0.015625)"/>
       <path id="ArialMT-29" d="M 791 -1347 
L 388 -1347 
Q 1322 153 1322 1656 
Q 1322 2244 1188 2822 
Q 1081 3291 891 3722 
Q 769 4003 388 4659 
L 791 4659 
Q 1378 3875 1659 3084 
Q 1900 2403 1900 1659 
Q 1900 816 1576 28 
Q 1253 -759 791 -1347 
z
" transform="scale(0.015625)"/>
      </defs>
      <use xlink:href="#ArialMT-44"/>
      <use xlink:href="#ArialMT-65" x="72.216797"/>
      <use xlink:href="#ArialMT-74" x="127.832031"/>
      <use xlink:href="#ArialMT-65" x="155.615234"/>
      <use xlink:href="#ArialMT-63" x="211.230469"/>
      <use xlink:href="#ArialMT-74" x="261.230469"/>
      <use xlink:href="#ArialMT-69" x="289.013672"/>
      <use xlink:href="#ArialMT-6f" x="311.230469"/>
      <use xlink:href="#ArialMT-6e" x="366.845703"/>
      <use xlink:href="#ArialMT-20" x="422.460938"/>
      <use xlink:href="#ArialMT-6c" x="450.244141"/>
      <use xlink:href="#ArialMT-61" x="472.460938"/>
      <use xlink:href="#ArialMT-67" x="528.076172"/>
      <use xlink:href="#ArialMT-20" x="583.691406"/>
      <use xlink:href="#ArialMT-28" x="611.474609"/>
      <use xlink:href="#ArialMT-64" x="644.775391"/>
      <use xlink:href="#ArialMT-61" x="700.390625"/>
      <use xlink:href="#ArialMT-79" x="756.005859"/>
      <use xlink:href="#ArialMT-73" x="806.005859"/>
      <use xlink:href="#ArialMT-29" x="856.005859"/>
     </g>
    </g>
   </g>
   <g id="patch_60">
    <path d="M 67.415 375.673094 
L 67.415 41.107052 
" style="fill: none; stroke: #000000; stroke-width: 0.8; stroke-linejoin: miter; stroke-linecap: square"/>
   </g>
   <g id="patch_61">
    <path d="M 67.415 375.673094 
L 831.034979 375.673094 
" style="fill: none; stroke: #000000; stroke-width: 0.8; stroke-linejoin: miter; stroke-linecap: square"/>
   </g>
   <g id="text_24">
    <!-- A -->
    <g transform="translate(29.234001 24.37875) scale(0.24 -0.24)">
     <defs>
      <path id="Arial-BoldMT-41" d="M 4597 0 
L 3591 0 
L 3191 1041 
L 1359 1041 
L 981 0 
L 0 0 
L 1784 4581 
L 2763 4581 
L 4597 0 
z
M 2894 1813 
L 2263 3513 
L 1644 1813 
L 2894 1813 
z
" transform="scale(0.015625)"/>
     </defs>
     <use xlink:href="#Arial-BoldMT-41"/>
    </g>
   </g>
   <g id="legend_1">
    <g id="patch_62">
     <path d="M 556.628729 85.632052 
L 817.034979 85.632052 
Q 821.034979 85.632052 821.034979 81.632052 
L 821.034979 55.107052 
Q 821.034979 51.107052 817.034979 51.107052 
L 556.628729 51.107052 
Q 552.628729 51.107052 552.628729 55.107052 
L 552.628729 81.632052 
Q 552.628729 85.632052 556.628729 85.632052 
z
" style="fill: #ffffff; opacity: 0.8; stroke: #cccccc; stroke-linejoin: miter"/>
    </g>
    <g id="patch_63">
     <path d="M 560.628729 73.422677 
L 600.628729 73.422677 
L 600.628729 59.422677 
L 560.628729 59.422677 
z
" style="fill: #b02425; opacity: 0.6"/>
    </g>
    <g id="text_25">
     <!-- Weekly average delay -->
     <g transform="translate(616.628729 73.422677) scale(0.2 -0.2)">
      <defs>
       <path id="ArialMT-57" d="M 1294 0 
L 78 4581 
L 700 4581 
L 1397 1578 
Q 1509 1106 1591 641 
Q 1766 1375 1797 1488 
L 2669 4581 
L 3400 4581 
L 4056 2263 
Q 4303 1400 4413 641 
Q 4500 1075 4641 1638 
L 5359 4581 
L 5969 4581 
L 4713 0 
L 4128 0 
L 3163 3491 
Q 3041 3928 3019 4028 
Q 2947 3713 2884 3491 
L 1913 0 
L 1294 0 
z
" transform="scale(0.015625)"/>
       <path id="ArialMT-6b" d="M 425 0 
L 425 4581 
L 988 4581 
L 988 1969 
L 2319 3319 
L 3047 3319 
L 1778 2088 
L 3175 0 
L 2481 0 
L 1384 1697 
L 988 1316 
L 988 0 
L 425 0 
z
" transform="scale(0.015625)"/>
       <path id="ArialMT-76" d="M 1344 0 
L 81 3319 
L 675 3319 
L 1388 1331 
Q 1503 1009 1600 663 
Q 1675 925 1809 1294 
L 2547 3319 
L 3125 3319 
L 1869 0 
L 1344 0 
z
" transform="scale(0.015625)"/>
       <path id="ArialMT-72" d="M 416 0 
L 416 3319 
L 922 3319 
L 922 2816 
Q 1116 3169 1280 3281 
Q 1444 3394 1641 3394 
Q 1925 3394 2219 3213 
L 2025 2691 
Q 1819 2813 1613 2813 
Q 1428 2813 1281 2702 
Q 1134 2591 1072 2394 
Q 978 2094 978 1738 
L 978 0 
L 416 0 
z
" transform="scale(0.015625)"/>
      </defs>
      <use xlink:href="#ArialMT-57"/>
      <use xlink:href="#ArialMT-65" x="92.634766"/>
      <use xlink:href="#ArialMT-65" x="148.25"/>
      <use xlink:href="#ArialMT-6b" x="203.865234"/>
      <use xlink:href="#ArialMT-6c" x="253.865234"/>
      <use xlink:href="#ArialMT-79" x="276.082031"/>
      <use xlink:href="#ArialMT-20" x="326.082031"/>
      <use xlink:href="#ArialMT-61" x="353.865234"/>
      <use xlink:href="#ArialMT-76" x="409.480469"/>
      <use xlink:href="#ArialMT-65" x="459.480469"/>
      <use xlink:href="#ArialMT-72" x="515.095703"/>
      <use xlink:href="#ArialMT-61" x="548.396484"/>
      <use xlink:href="#ArialMT-67" x="604.011719"/>
      <use xlink:href="#ArialMT-65" x="659.626953"/>
      <use xlink:href="#ArialMT-20" x="715.242188"/>
      <use xlink:href="#ArialMT-64" x="743.025391"/>
      <use xlink:href="#ArialMT-65" x="798.640625"/>
      <use xlink:href="#ArialMT-6c" x="854.255859"/>
      <use xlink:href="#ArialMT-61" x="876.472656"/>
      <use xlink:href="#ArialMT-79" x="932.087891"/>
     </g>
    </g>
   </g>
  </g>
  <g id="axes_2">
   <g id="patch_64">
    <path d="M 67.415 649.685802 
L 831.034979 649.685802 
L 831.034979 482.402781 
L 67.415 482.402781 
z
" style="fill: #ffffff"/>
   </g>
   <g id="PolyCollection_1">
    <path d="M -64.047765 649.579922 
L -64.047765 649.685802 
L -58.889245 649.685802 
L -53.730725 649.685802 
L -48.572204 649.685802 
L -43.413684 649.685802 
L -38.255164 649.685802 
L -33.096644 649.685802 
L -27.938124 649.685802 
L -22.779604 649.685802 
L -17.621084 649.685802 
L -12.462563 649.685802 
L -7.304043 649.685802 
L -2.145523 649.685802 
L 3.012997 649.685802 
L 8.171517 649.685802 
L 13.330037 649.685802 
L 18.488557 649.685802 
L 23.647078 649.685802 
L 28.805598 649.685802 
L 33.964118 649.685802 
L 39.122638 649.685802 
L 44.281158 649.685802 
L 49.439678 649.685802 
L 54.598198 649.685802 
L 59.756719 649.685802 
L 64.915239 649.685802 
L 70.073759 649.685802 
L 75.232279 649.685802 
L 80.390799 649.685802 
L 85.549319 649.685802 
L 90.707839 649.685802 
L 95.86636 649.685802 
L 101.02488 649.685802 
L 106.1834 649.685802 
L 111.34192 649.685802 
L 116.50044 649.685802 
L 121.65896 649.685802 
L 126.81748 649.685802 
L 131.976001 649.685802 
L 137.134521 649.685802 
L 142.293041 649.685802 
L 147.451561 649.685802 
L 152.610081 649.685802 
L 157.768601 649.685802 
L 162.927121 649.685802 
L 168.085642 649.685802 
L 173.244162 649.685802 
L 178.402682 649.685802 
L 183.561202 649.685802 
L 188.719722 649.685802 
L 193.878242 649.685802 
L 199.036762 649.685802 
L 204.195283 649.685802 
L 209.353803 649.685802 
L 214.512323 649.685802 
L 219.670843 649.685802 
L 224.829363 649.685802 
L 229.987883 649.685802 
L 235.146403 649.685802 
L 240.304924 649.685802 
L 245.463444 649.685802 
L 250.621964 649.685802 
L 255.780484 649.685802 
L 260.939004 649.685802 
L 266.097524 649.685802 
L 271.256044 649.685802 
L 276.414565 649.685802 
L 281.573085 649.685802 
L 286.731605 649.685802 
L 291.890125 649.685802 
L 297.048645 649.685802 
L 302.207165 649.685802 
L 307.365685 649.685802 
L 312.524206 649.685802 
L 317.682726 649.685802 
L 322.841246 649.685802 
L 327.999766 649.685802 
L 333.158286 649.685802 
L 338.316806 649.685802 
L 343.475326 649.685802 
L 348.633847 649.685802 
L 353.792367 649.685802 
L 358.950887 649.685802 
L 364.109407 649.685802 
L 369.267927 649.685802 
L 374.426447 649.685802 
L 379.584967 649.685802 
L 384.743488 649.685802 
L 389.902008 649.685802 
L 395.060528 649.685802 
L 400.219048 649.685802 
L 405.377568 649.685802 
L 410.536088 649.685802 
L 415.694608 649.685802 
L 420.853129 649.685802 
L 426.011649 649.685802 
L 431.170169 649.685802 
L 436.328689 649.685802 
L 441.487209 649.685802 
L 446.645729 649.685802 
L 451.804249 649.685802 
L 456.96277 649.685802 
L 462.12129 649.685802 
L 467.27981 649.685802 
L 472.43833 649.685802 
L 477.59685 649.685802 
L 482.75537 649.685802 
L 487.91389 649.685802 
L 493.072411 649.685802 
L 498.230931 649.685802 
L 503.389451 649.685802 
L 508.547971 649.685802 
L 513.706491 649.685802 
L 518.865011 649.685802 
L 524.023531 649.685802 
L 529.182052 649.685802 
L 534.340572 649.685802 
L 539.499092 649.685802 
L 544.657612 649.685802 
L 549.816132 649.685802 
L 554.974652 649.685802 
L 560.133173 649.685802 
L 565.291693 649.685802 
L 570.450213 649.685802 
L 575.608733 649.685802 
L 580.767253 649.685802 
L 585.925773 649.685802 
L 591.084293 649.685802 
L 596.242814 649.685802 
L 601.401334 649.685802 
L 606.559854 649.685802 
L 611.718374 649.685802 
L 616.876894 649.685802 
L 622.035414 649.685802 
L 627.193934 649.685802 
L 632.352455 649.685802 
L 637.510975 649.685802 
L 642.669495 649.685802 
L 647.828015 649.685802 
L 652.986535 649.685802 
L 658.145055 649.685802 
L 663.303575 649.685802 
L 668.462096 649.685802 
L 673.620616 649.685802 
L 678.779136 649.685802 
L 683.937656 649.685802 
L 689.096176 649.685802 
L 694.254696 649.685802 
L 699.413216 649.685802 
L 704.571737 649.685802 
L 709.730257 649.685802 
L 714.888777 649.685802 
L 720.047297 649.685802 
L 725.205817 649.685802 
L 730.364337 649.685802 
L 735.522857 649.685802 
L 740.681378 649.685802 
L 745.839898 649.685802 
L 750.998418 649.685802 
L 756.156938 649.685802 
L 761.315458 649.685802 
L 766.473978 649.685802 
L 771.632498 649.685802 
L 776.791019 649.685802 
L 781.949539 649.685802 
L 787.108059 649.685802 
L 792.266579 649.685802 
L 797.425099 649.685802 
L 802.583619 649.685802 
L 807.742139 649.685802 
L 812.90066 649.685802 
L 818.05918 649.685802 
L 823.2177 649.685802 
L 828.37622 649.685802 
L 833.53474 649.685802 
L 838.69326 649.685802 
L 843.85178 649.685802 
L 849.010301 649.685802 
L 854.168821 649.685802 
L 859.327341 649.685802 
L 864.485861 649.685802 
L 869.644381 649.685802 
L 874.802901 649.685802 
L 879.961421 649.685802 
L 885.119942 649.685802 
L 890.278462 649.685802 
L 895.436982 649.685802 
L 900.595502 649.685802 
L 905.754022 649.685802 
L 910.912542 649.685802 
L 916.071062 649.685802 
L 921.229583 649.685802 
L 926.388103 649.685802 
L 931.546623 649.685802 
L 936.705143 649.685802 
L 941.863663 649.685802 
L 947.022183 649.685802 
L 952.180703 649.685802 
L 957.339224 649.685802 
L 962.497744 649.685802 
L 962.497744 649.666853 
L 962.497744 649.666853 
L 957.339224 649.658999 
L 952.180703 649.648406 
L 947.022183 649.634336 
L 941.863663 649.615935 
L 936.705143 649.592237 
L 931.546623 649.562189 
L 926.388103 649.524681 
L 921.229583 649.478591 
L 916.071062 649.422842 
L 910.912542 649.356469 
L 905.754022 649.278687 
L 900.595502 649.188965 
L 895.436982 649.087087 
L 890.278462 648.973189 
L 885.119942 648.847783 
L 879.961421 648.711736 
L 874.802901 648.566223 
L 869.644381 648.412631 
L 864.485861 648.252446 
L 859.327341 648.087102 
L 854.168821 647.917842 
L 849.010301 647.74557 
L 843.85178 647.570757 
L 838.69326 647.393382 
L 833.53474 647.21295 
L 828.37622 647.028582 
L 823.2177 646.839187 
L 818.05918 646.643694 
L 812.90066 646.441337 
L 807.742139 646.231957 
L 802.583619 646.01628 
L 797.425099 645.796153 
L 792.266579 645.574684 
L 787.108059 645.356261 
L 781.949539 645.146451 
L 776.791019 644.951744 
L 771.632498 644.779187 
L 766.473978 644.635907 
L 761.315458 644.528572 
L 756.156938 644.462831 
L 750.998418 644.442783 
L 745.839898 644.470517 
L 740.681378 644.545764 
L 735.522857 644.665681 
L 730.364337 644.8248 
L 725.205817 645.01512 
L 720.047297 645.226358 
L 714.888777 645.446322 
L 709.730257 645.661391 
L 704.571737 645.85707 
L 699.413216 646.018603 
L 694.254696 646.131598 
L 689.096176 646.18267 
L 683.937656 646.160052 
L 678.779136 646.05418 
L 673.620616 645.85822 
L 668.462096 645.568517 
L 663.303575 645.184939 
L 658.145055 644.711102 
L 652.986535 644.154433 
L 647.828015 643.52605 
L 642.669495 642.840452 
L 637.510975 642.114993 
L 632.352455 641.369155 
L 627.193934 640.623656 
L 622.035414 639.899404 
L 616.876894 639.21639 
L 611.718374 638.592562 
L 606.559854 638.042768 
L 601.401334 637.577846 
L 596.242814 637.203915 
L 591.084293 636.921931 
L 585.925773 636.727538 
L 580.767253 636.61121 
L 575.608733 636.558695 
L 570.450213 636.551703 
L 565.291693 636.568809 
L 560.133173 636.58649 
L 554.974652 636.580239 
L 549.816132 636.525692 
L 544.657612 636.399687 
L 539.499092 636.181212 
L 534.340572 635.8522 
L 529.182052 635.398114 
L 524.023531 634.808331 
L 518.865011 634.0763 
L 513.706491 633.19948 
L 508.547971 632.179093 
L 503.389451 631.019707 
L 498.230931 629.728695 
L 493.072411 628.315621 
L 487.91389 626.79159 
L 482.75537 625.168615 
L 477.59685 623.459035 
L 472.43833 621.675014 
L 467.27981 619.828128 
L 462.12129 617.929043 
L 456.96277 615.987272 
L 451.804249 614.010982 
L 446.645729 612.006828 
L 441.487209 609.979788 
L 436.328689 607.932984 
L 431.170169 605.867479 
L 426.011649 603.782076 
L 420.853129 601.673143 
L 415.694608 599.534496 
L 410.536088 597.357411 
L 405.377568 595.130788 
L 400.219048 592.841523 
L 395.060528 590.475078 
L 389.902008 588.016269 
L 384.743488 585.45021 
L 379.584967 582.763365 
L 374.426447 579.94462 
L 369.267927 576.986297 
L 364.109407 573.885005 
L 358.950887 570.642266 
L 353.792367 567.264855 
L 348.633847 563.764834 
L 343.475326 560.15927 
L 338.316806 556.469677 
L 333.158286 552.721219 
L 327.999766 548.941742 
L 322.841246 545.160703 
L 317.682726 541.408048 
L 312.524206 537.713109 
L 307.365685 534.103552 
L 302.207165 530.604423 
L 297.048645 527.23732 
L 291.890125 524.019711 
L 286.731605 520.964435 
L 281.573085 518.079399 
L 276.414565 515.367524 
L 271.256044 512.826932 
L 266.097524 510.451434 
L 260.939004 508.231296 
L 255.780484 506.154278 
L 250.621964 504.206932 
L 245.463444 502.376061 
L 240.304924 500.65029 
L 235.146403 499.021618 
L 229.987883 497.486856 
L 224.829363 496.048817 
L 219.670843 494.71716 
L 214.512323 493.508812 
L 209.353803 492.447897 
L 204.195283 491.565175 
L 199.036762 490.897 
L 193.878242 490.483867 
L 188.719722 490.368639 
L 183.561202 490.594572 
L 178.402682 491.203265 
L 173.244162 492.232677 
L 168.085642 493.715323 
L 162.927121 495.676757 
L 157.768601 498.13442 
L 152.610081 501.096881 
L 147.451561 504.563492 
L 142.293041 508.524417 
L 137.134521 512.960989 
L 131.976001 517.846313 
L 126.81748 523.14604 
L 121.65896 528.819235 
L 116.50044 534.819266 
L 111.34192 541.094684 
L 106.1834 547.590063 
L 101.02488 554.246827 
L 95.86636 561.004065 
L 90.707839 567.799408 
L 85.549319 574.56997 
L 80.390799 581.253416 
L 75.232279 587.789146 
L 70.073759 594.119578 
L 64.915239 600.191498 
L 59.756719 605.957385 
L 54.598198 611.376651 
L 49.439678 616.416681 
L 44.281158 621.053599 
L 39.122638 625.272694 
L 33.964118 629.068454 
L 28.805598 632.444218 
L 23.647078 635.411454 
L 18.488557 637.988729 
L 13.330037 640.20044 
L 8.171517 642.075412 
L 3.012997 643.645438 
L -2.145523 644.94387 
L -7.304043 646.004327 
L -12.462563 646.859581 
L -17.621084 647.540659 
L -22.779604 648.076179 
L -27.938124 648.491907 
L -33.096644 648.810535 
L -38.255164 649.051625 
L -43.413684 649.231714 
L -48.572204 649.364513 
L -53.730725 649.461183 
L -58.889245 649.530648 
L -64.047765 649.579922 
z
" clip-path="url(#pfa584440d2)" style="fill: #faa419; fill-opacity: 0.25; stroke: #faa419"/>
   </g>
   <g id="matplotlib.axis_3">
    <g id="xtick_18">
     <g id="line2d_23">
      <g>
       <use xlink:href="#m93a733b834" x="67.415" y="649.685802" style="stroke: #000000; stroke-width: 0.8"/>
      </g>
     </g>
     <g id="text_26">
      <!-- 0 -->
      <g transform="translate(60.741875 673.864552) scale(0.24 -0.24)">
       <use xlink:href="#ArialMT-30"/>
      </g>
     </g>
    </g>
    <g id="xtick_19">
     <g id="line2d_24">
      <g>
       <use xlink:href="#m93a733b834" x="194.684996" y="649.685802" style="stroke: #000000; stroke-width: 0.8"/>
      </g>
     </g>
     <g id="text_27">
      <!-- 5 -->
      <g transform="translate(188.011871 673.864552) scale(0.24 -0.24)">
       <use xlink:href="#ArialMT-35"/>
      </g>
     </g>
    </g>
    <g id="xtick_20">
     <g id="line2d_25">
      <g>
       <use xlink:href="#m93a733b834" x="321.954993" y="649.685802" style="stroke: #000000; stroke-width: 0.8"/>
      </g>
     </g>
     <g id="text_28">
      <!-- 10 -->
      <g transform="translate(308.608743 673.864552) scale(0.24 -0.24)">
       <use xlink:href="#ArialMT-31"/>
       <use xlink:href="#ArialMT-30" x="55.615234"/>
      </g>
     </g>
    </g>
    <g id="xtick_21">
     <g id="line2d_26">
      <g>
       <use xlink:href="#m93a733b834" x="449.224989" y="649.685802" style="stroke: #000000; stroke-width: 0.8"/>
      </g>
     </g>
     <g id="text_29">
      <!-- 15 -->
      <g transform="translate(435.878739 673.864552) scale(0.24 -0.24)">
       <use xlink:href="#ArialMT-31"/>
       <use xlink:href="#ArialMT-35" x="55.615234"/>
      </g>
     </g>
    </g>
    <g id="xtick_22">
     <g id="line2d_27">
      <g>
       <use xlink:href="#m93a733b834" x="576.494986" y="649.685802" style="stroke: #000000; stroke-width: 0.8"/>
      </g>
     </g>
     <g id="text_30">
      <!-- 20 -->
      <g transform="translate(563.148736 673.864552) scale(0.24 -0.24)">
       <use xlink:href="#ArialMT-32"/>
       <use xlink:href="#ArialMT-30" x="55.615234"/>
      </g>
     </g>
    </g>
    <g id="xtick_23">
     <g id="line2d_28">
      <g>
       <use xlink:href="#m93a733b834" x="703.764982" y="649.685802" style="stroke: #000000; stroke-width: 0.8"/>
      </g>
     </g>
     <g id="text_31">
      <!-- 25 -->
      <g transform="translate(690.418732 673.864552) scale(0.24 -0.24)">
       <use xlink:href="#ArialMT-32"/>
       <use xlink:href="#ArialMT-35" x="55.615234"/>
      </g>
     </g>
    </g>
    <g id="xtick_24">
     <g id="line2d_29">
      <g>
       <use xlink:href="#m93a733b834" x="831.034979" y="649.685802" style="stroke: #000000; stroke-width: 0.8"/>
      </g>
     </g>
     <g id="text_32">
      <!-- 30 -->
      <g transform="translate(817.688729 673.864552) scale(0.24 -0.24)">
       <use xlink:href="#ArialMT-33"/>
       <use xlink:href="#ArialMT-30" x="55.615234"/>
      </g>
     </g>
    </g>
    <g id="text_33">
     <!-- Detection lag (days) -->
     <g transform="translate(342.514989 700.105802) scale(0.24 -0.24)">
      <use xlink:href="#ArialMT-44"/>
      <use xlink:href="#ArialMT-65" x="72.216797"/>
      <use xlink:href="#ArialMT-74" x="127.832031"/>
      <use xlink:href="#ArialMT-65" x="155.615234"/>
      <use xlink:href="#ArialMT-63" x="211.230469"/>
      <use xlink:href="#ArialMT-74" x="261.230469"/>
      <use xlink:href="#ArialMT-69" x="289.013672"/>
      <use xlink:href="#ArialMT-6f" x="311.230469"/>
      <use xlink:href="#ArialMT-6e" x="366.845703"/>
      <use xlink:href="#ArialMT-20" x="422.460938"/>
      <use xlink:href="#ArialMT-6c" x="450.244141"/>
      <use xlink:href="#ArialMT-61" x="472.460938"/>
      <use xlink:href="#ArialMT-67" x="528.076172"/>
      <use xlink:href="#ArialMT-20" x="583.691406"/>
      <use xlink:href="#ArialMT-28" x="611.474609"/>
      <use xlink:href="#ArialMT-64" x="644.775391"/>
      <use xlink:href="#ArialMT-61" x="700.390625"/>
      <use xlink:href="#ArialMT-79" x="756.005859"/>
      <use xlink:href="#ArialMT-73" x="806.005859"/>
      <use xlink:href="#ArialMT-29" x="856.005859"/>
     </g>
    </g>
   </g>
   <g id="matplotlib.axis_4">
    <g id="text_34">
     <!-- Lag density -->
     <g transform="translate(58.36375 627.416792) rotate(-90) scale(0.24 -0.24)">
      <defs>
       <path id="ArialMT-4c" d="M 469 0 
L 469 4581 
L 1075 4581 
L 1075 541 
L 3331 541 
L 3331 0 
L 469 0 
z
" transform="scale(0.015625)"/>
      </defs>
      <use xlink:href="#ArialMT-4c"/>
      <use xlink:href="#ArialMT-61" x="55.615234"/>
      <use xlink:href="#ArialMT-67" x="111.230469"/>
      <use xlink:href="#ArialMT-20" x="166.845703"/>
      <use xlink:href="#ArialMT-64" x="194.628906"/>
      <use xlink:href="#ArialMT-65" x="250.244141"/>
      <use xlink:href="#ArialMT-6e" x="305.859375"/>
      <use xlink:href="#ArialMT-73" x="361.474609"/>
      <use xlink:href="#ArialMT-69" x="411.474609"/>
      <use xlink:href="#ArialMT-74" x="433.691406"/>
      <use xlink:href="#ArialMT-79" x="461.474609"/>
     </g>
    </g>
   </g>
   <g id="patch_65">
    <path d="M 67.415 649.685802 
L 67.415 482.402781 
" style="fill: none; stroke: #000000; stroke-width: 0.8; stroke-linejoin: miter; stroke-linecap: square"/>
   </g>
   <g id="patch_66">
    <path d="M 67.415 649.685802 
L 831.034979 649.685802 
" style="fill: none; stroke: #000000; stroke-width: 0.8; stroke-linejoin: miter; stroke-linecap: square"/>
   </g>
   <g id="text_35">
    <!-- B -->
    <g transform="translate(29.234001 474.03863) scale(0.24 -0.24)">
     <defs>
      <path id="Arial-BoldMT-42" d="M 469 4581 
L 2300 4581 
Q 2844 4581 3111 4536 
Q 3378 4491 3589 4347 
Q 3800 4203 3940 3964 
Q 4081 3725 4081 3428 
Q 4081 3106 3907 2837 
Q 3734 2569 3438 2434 
Q 3856 2313 4081 2019 
Q 4306 1725 4306 1328 
Q 4306 1016 4161 720 
Q 4016 425 3764 248 
Q 3513 72 3144 31 
Q 2913 6 2028 0 
L 469 0 
L 469 4581 
z
M 1394 3819 
L 1394 2759 
L 2000 2759 
Q 2541 2759 2672 2775 
Q 2909 2803 3045 2939 
Q 3181 3075 3181 3297 
Q 3181 3509 3064 3642 
Q 2947 3775 2716 3803 
Q 2578 3819 1925 3819 
L 1394 3819 
z
M 1394 1997 
L 1394 772 
L 2250 772 
Q 2750 772 2884 800 
Q 3091 838 3220 983 
Q 3350 1128 3350 1372 
Q 3350 1578 3250 1722 
Q 3150 1866 2961 1931 
Q 2772 1997 2141 1997 
L 1394 1997 
z
" transform="scale(0.015625)"/>
     </defs>
     <use xlink:href="#Arial-BoldMT-42"/>
    </g>
   </g>
  </g>
 </g>
 <defs>
  <clipPath id="p6fbbd34f7a">
   <rect x="67.415" y="41.107052" width="763.619979" height="334.566042"/>
  </clipPath>
  <clipPath id="pfa584440d2">
   <rect x="67.415" y="482.402781" width="763.619979" height="167.283021"/>
  </clipPath>
 </defs>
</svg>
